<svg width="326" height="165" viewBox="0 0 326 165" fill="none" xmlns="http://www.w3.org/2000/svg">
<path d="M33.75 164.645C33.75 164.645 46.9621 130.012 74.6025 148.689C95.5266 162.829 121.835 144.532 135.533 123.674C149.232 102.816 231.866 123.943 250.252 149.414C257.976 160.113 276.672 150.325 279.647 164.233L33.75 164.645Z" fill="#A8D29F"/>
<path d="M197.846 91.6007C197.87 90.1859 198.875 87.772 196.89 85.4789C195.484 83.8327 194.244 81.9824 193.651 81.0781C193.436 80.7111 191.035 82.8685 191.087 82.9554C191.482 83.5949 193.294 86.8516 193.557 88.6676C193.844 90.7147 197.056 92.9551 197.056 92.9551C197.056 92.9551 197.839 93.0083 197.846 91.6007Z" fill="#F4A671"/>
<path d="M194.897 82.9015L191.087 82.9558C191.087 82.9558 185.13 72.6757 184.947 69.4145C184.771 66.2999 179.046 52.6698 185.748 44.1599C186.05 43.7738 186.379 43.3988 186.736 43.0364C186.747 43.022 186.761 43.0093 186.774 42.9966C186.774 42.9966 186.785 43.0165 186.807 43.0563C186.943 43.3046 187.476 44.3555 188.099 46.6781C189.077 50.3089 190.284 57.0488 190.57 68.6897C190.57 68.6897 193.221 78.6548 194.897 82.9015Z" fill="#F4A671"/>
<path d="M183.007 28.323C183.007 28.323 182.596 29.5379 183.203 30.0137C183.81 30.4898 181.661 32.6738 181.247 34.5083C180.832 36.3427 181.35 37.3166 181.35 37.3166C181.35 37.3166 181.288 36.207 181.662 35.6634C181.662 35.6634 181.261 36.9241 181.924 37.8603C182.588 38.7963 182.198 39.2717 182.198 39.2717C182.198 39.2717 184.302 39.3096 184.814 37.7546C184.814 37.7546 184.689 38.4944 184.537 38.7662C184.537 38.7662 186.592 37.9811 187.127 36.441C187.662 34.901 186.661 33.0979 186.037 32.8554C185.414 32.6126 184.399 30.7717 184.586 30.2735C184.772 29.775 183.007 28.323 183.007 28.323Z" fill="#1D1617"/>
<path d="M183.492 159.11L181.027 160.112C181.027 160.112 170.318 143.893 169 129.623C168.764 127.075 168.842 124.607 169.352 122.327C169.352 122.327 169.247 121.674 169.064 120.52C168.979 119.982 168.875 119.333 168.756 118.591C168.408 116.412 167.929 113.432 167.381 110.038C166.121 102.228 164.489 92.244 163.221 84.9046L163.885 84.6715L171.073 82.1393L172.558 76.9868L177.91 75.4482C177.91 75.4482 179.106 78.0024 180.175 90.0677C180.372 91.6503 180.551 93.3957 180.686 95.2881C181.102 101.065 181.133 108.231 180.177 116.423C179.931 118.52 179.621 120.685 179.237 122.91C178.955 124.541 178.913 126.763 179.031 129.315C179.571 140.981 183.492 159.11 183.492 159.11Z" fill="#75AA12"/>
<path d="M180.686 95.2889L169.064 120.521C168.979 119.982 168.875 119.334 168.756 118.591C168.408 116.413 167.929 113.432 167.381 110.038C166.121 102.228 164.489 92.2446 163.221 84.9052L163.885 84.6721L171.073 82.1399L172.558 76.9874L178.951 74.9111C178.951 74.9111 179.106 78.003 180.174 90.0683C180.372 91.6511 180.551 93.3965 180.686 95.2889Z" fill="#627B34"/>
<path d="M188.365 20.715L176.758 30.9771C176.758 30.9771 176.42 28.7504 175.225 29.0928C173.362 29.6255 170.503 24.1702 172.703 19.2367C172.847 18.9141 174.634 14.0302 180.35 13.4153C187.699 14.0303 188.365 20.715 188.365 20.715Z" fill="#1D1617"/>
<path d="M184.186 48.127C182.771 48.8436 181.062 49.3316 178.995 49.4548C171.245 49.9186 169.486 42.5 169.166 37.5762C170.283 37.1343 171.261 37.1761 171.825 37.2092C172.375 37.2421 172.948 37.3037 173.421 37.3674C174.369 36.8267 176.072 34.1999 177.056 29.8059L177.39 29.9753L182.982 32.8459C182.982 32.8459 182.388 34.8331 181.949 36.7344C181.607 38.2226 181.362 39.66 181.567 40.0623C182.008 40.2579 182.271 40.381 182.271 40.381C182.271 40.381 182.271 40.3833 182.273 40.3876C182.33 40.5436 183.546 43.9263 184.186 48.127Z" fill="#FFB27D"/>
<path d="M186.12 53.6783C186.062 53.8468 185.998 54.0116 185.928 54.1819C183.965 58.7984 178.631 74.0503 178.631 74.0503C179.149 77.4889 156.673 77.2444 156.61 74.1136C155.927 71.4448 158.294 67.4769 160.383 64.6325C160.894 63.9386 161.387 63.3135 161.815 62.7882C162.089 62.4511 162.334 62.0906 162.548 61.71C163.087 60.7571 163.429 59.6791 163.539 58.5539C163.827 55.5681 163.847 52.7091 163.841 50.3864C163.837 49.2577 163.829 48.2577 163.841 47.4296C164.267 47.0834 164.68 46.7646 165.065 46.4619C165.652 45.9945 166.172 45.556 166.553 45.1121C166.975 44.6284 167.238 44.1336 167.268 43.5756C167.29 43.1535 167.278 42.7204 167.239 42.2874C167.22 42.0827 167.195 41.8797 167.167 41.675C166.865 39.5264 166.044 37.5786 166.044 37.5786C168.124 36.6599 171.821 37.2071 171.821 37.2071C171.821 37.2071 171.818 37.4319 171.816 37.7997C171.803 39.2743 171.816 43.061 172.249 43.7785C172.79 44.67 182.694 48.5818 183.219 47.3695C183.733 46.1791 182.323 40.5969 182.27 40.3868C182.268 40.3814 182.268 40.3795 182.268 40.3795C182.374 40.4249 182.477 40.4702 182.578 40.5135C183.083 40.7383 183.519 40.9956 183.939 41.1623C186.633 42.2367 186.887 43.2149 186.887 43.2149C184.888 44.6303 187.667 49.2014 186.12 53.6783Z" fill="#003342"/>
<path d="M182.979 32.8462C182.979 32.8462 182.384 34.8312 181.946 36.7346C178.678 35.7386 177.685 31.9869 177.387 29.9756L182.979 32.8462Z" fill="#ED985F"/>
<path d="M183.669 34.9489C183.669 34.9489 175.849 32.9727 177.051 27.6737C178.253 22.3747 178.054 18.5509 183.097 19.5887C188.14 20.6265 188.648 22.9097 188.641 24.7852C188.634 26.6604 185.734 35.3265 183.669 34.9489Z" fill="#FFB27D"/>
<path d="M189.081 21.7765C188.241 19.8558 187.251 19.9583 186.632 20.2988C182.958 16.5864 179.354 19.6192 179.354 19.6192C177.967 23.2787 174.961 24.774 174.961 24.774C174.961 24.774 176.162 26.1172 179.644 26.0876C180.707 26.0786 181.777 25.5454 182.75 24.8106C180.873 26.8746 178.672 28.1313 178.672 28.1313C183.031 27.2204 185.953 21.7102 186.253 21.125C186.622 21.7204 187.328 22.988 187.387 24.0583C187.468 25.5128 187.01 28.3372 187.773 28.4442C187.773 28.4444 190.342 24.6568 189.081 21.7765Z" fill="#1D1617"/>
<path d="M191.207 164.055H178.79C178.79 164.055 178.326 161.892 179.141 160.42C179.862 159.118 179.803 158.326 179.269 157.248C179.831 157.5 180.342 157.779 181.143 157.729C181.761 157.69 182.448 157.213 183.022 156.849C183.556 157.514 185.812 160.517 186.527 161.078C187.339 161.715 190.957 161.488 191.207 164.055Z" fill="#233862"/>
<path d="M169.048 65.8066C165.806 65.5564 162.72 65.243 160.389 64.6325C160.9 63.9386 161.392 63.3135 161.82 62.7881C162.094 62.4511 162.34 62.0906 162.554 61.71C163.093 60.7571 163.435 59.6791 163.544 58.5539C163.833 55.5681 163.853 52.7091 163.846 50.3864C166.673 46.9295 169.048 44.1194 169.048 44.1194C169.048 44.1194 174.317 49.3936 175.133 54.6476C175.949 59.902 177.49 66.459 169.048 65.8066Z" fill="#0A5065"/>
<path d="M170.35 37.072C170.35 37.072 174.176 42.0232 173.356 49.4538H174.942C174.942 49.4538 175.839 44.2579 171.823 37.2093C171.823 37.2093 171.299 37.1281 171.129 37.1124C170.931 37.0938 170.35 37.072 170.35 37.072Z" fill="#627B34"/>
<path d="M184.144 53.391L182.605 52.9762C184.673 47.0045 183.087 41.888 182.578 40.5146C183.082 40.7392 183.536 40.9568 183.939 41.1634C186.074 48.7747 184.144 53.391 184.144 53.391Z" fill="#627B34"/>
<path d="M184.814 50.3886C184.814 50.3886 177.179 48.217 175.025 47.6131C172.871 47.0091 172.701 48.3982 172.701 48.3982C172.701 48.3982 172.401 52.9251 172.368 53.3903C171.87 60.4962 162.548 61.7101 162.548 61.7101C162.548 61.7101 160.14 64.9872 158.074 68.2091C154.533 73.7332 154.969 83.0658 154.969 83.0658C154.893 84.195 154.882 85.4222 154.957 86.7532C155.237 91.6574 155.748 112.497 156.282 118.664C156.475 120.899 156.644 122.49 156.713 123.125C156.715 123.128 156.715 123.129 156.715 123.131C156.736 123.325 156.674 123.508 156.584 123.677C155.798 125.134 155.147 126.651 154.613 128.203C149.373 143.451 155.42 162.23 155.42 162.23L156.989 161.539C156.989 161.539 160.431 140.641 163.227 131.408C163.701 129.842 164.156 128.612 164.573 127.876C165.789 125.734 166.917 122.233 167.941 118.069C169.876 110.196 171.434 99.9545 172.471 92.0495C172.614 92.0569 173.75 81.4333 177.486 76.546L178.949 74.9108L183.586 62.4673C183.586 62.4673 184.866 54.1959 185.253 52.8068C185.64 51.4178 184.814 50.3886 184.814 50.3886Z" fill="#75AA12"/>
<path d="M173.475 48.8217C173.475 48.4216 173.772 48.0969 174.138 48.0969C174.505 48.0969 174.802 48.4214 174.802 48.8217C174.802 49.222 174.505 49.5465 174.138 49.5465C173.772 49.5465 173.475 49.2219 173.475 48.8217Z" fill="#ED7D2B"/>
<path d="M173.596 48.8217C173.596 48.4216 173.893 48.0969 174.259 48.0969C174.626 48.0969 174.923 48.4214 174.923 48.8217C174.923 49.222 174.626 49.5465 174.259 49.5465C173.893 49.5464 173.596 49.2219 173.596 48.8217Z" fill="#003342"/>
<path d="M173.868 48.6854C173.884 48.6299 173.938 48.5993 173.989 48.6172C174.04 48.6348 174.068 48.6941 174.052 48.7494C174.035 48.8049 173.981 48.8355 173.93 48.8178C173.88 48.7999 173.852 48.7406 173.868 48.6854Z" fill="#2B478B"/>
<path d="M174.467 48.8947C174.484 48.8392 174.538 48.8086 174.589 48.8263C174.639 48.8439 174.668 48.9032 174.651 48.9587C174.635 49.0141 174.581 49.0448 174.53 49.027C174.479 49.0091 174.451 48.9499 174.467 48.8947Z" fill="#2B478B"/>
<path d="M183.037 51.173C183.037 50.7729 183.334 50.4482 183.701 50.4482C184.067 50.4482 184.365 50.7727 184.365 51.173C184.365 51.5733 184.067 51.8977 183.701 51.8977C183.334 51.8976 183.037 51.5733 183.037 51.173Z" fill="#ED7D2B"/>
<path d="M183.158 51.173C183.158 50.7729 183.455 50.4482 183.822 50.4482C184.188 50.4482 184.485 50.7727 184.485 51.173C184.485 51.5733 184.188 51.8977 183.822 51.8977C183.455 51.8976 183.158 51.5733 183.158 51.173Z" fill="#003342"/>
<path d="M183.43 51.0366C183.447 50.9814 183.501 50.9507 183.552 50.9684C183.602 50.9861 183.63 51.0453 183.614 51.1008C183.598 51.1562 183.544 51.1868 183.493 51.1692C183.442 51.1514 183.414 51.0921 183.43 51.0366Z" fill="#2B478B"/>
<path d="M184.03 51.2462C184.046 51.1908 184.1 51.1602 184.151 51.1778C184.202 51.1956 184.23 51.2549 184.214 51.3104C184.198 51.3657 184.143 51.3963 184.092 51.3786C184.042 51.3608 184.014 51.3016 184.03 51.2462Z" fill="#2B478B"/>
<path d="M172.554 25.7866C172.554 25.7866 172.143 27.0013 172.75 27.4772C173.357 27.9534 171.208 30.1374 170.794 31.9719C170.379 33.8064 170.897 34.7801 170.897 34.7801C170.897 34.7801 170.835 33.6705 171.209 33.1268C171.209 33.1268 170.808 34.3875 171.471 35.3238C172.135 36.2598 171.745 36.7352 171.745 36.7352C171.745 36.7352 173.849 36.7733 174.361 35.2181C174.361 35.2181 174.236 35.958 174.084 36.2297C174.084 36.2297 176.139 35.4447 176.674 33.9045C177.209 32.3645 176.208 30.5614 175.584 30.3187C174.961 30.076 173.946 28.2352 174.133 27.737C174.319 27.2387 172.554 25.7866 172.554 25.7866Z" fill="#1D1617"/>
<path d="M188.1 46.6777C186.326 46.9623 185.608 48.1108 185.608 48.1108C185.608 48.1108 185.455 45.674 185.749 44.1595C185.85 43.6303 186.008 43.2136 186.243 43.0543C186.351 42.9817 186.522 42.9817 186.736 43.036C186.76 43.0414 186.783 43.0489 186.808 43.056C186.944 43.3042 187.476 44.355 188.1 46.6777Z" fill="#003342"/>
<path d="M212.931 91.8815C209.772 92.0614 207.614 86.7095 206.283 86.639C206.065 86.6284 205.65 86.6943 205.118 86.7799C206.427 89.1267 207.429 91.8858 207.983 94.918C209.877 105.242 205.886 114.821 199.071 116.311C192.443 117.759 185.583 111.02 183.472 101.148C183.413 100.873 183.359 100.594 183.306 100.312C182.754 97.3006 182.703 94.354 183.077 91.6518C183.077 91.6442 183.078 91.6352 183.08 91.6278C182.794 91.7102 182.573 91.7823 182.442 91.8497C181.238 92.475 181.134 98.3203 178.154 99.4825C175.176 100.643 173.168 94.4095 176.715 89.5539C178.878 86.5923 182.71 85.1631 185.371 84.4989C185.925 83.5137 186.56 82.6289 187.269 81.8641C187.295 81.8356 187.321 81.8055 187.349 81.7771C185.393 80.6225 183.906 78.5621 183.435 75.9948C183.276 75.1265 183.246 74.2613 183.328 73.4246C183.321 73.4231 183.316 73.4201 183.309 73.4186C181.963 72.9747 180.881 71.757 180.586 70.1481C180.16 67.8237 181.54 65.5609 183.67 65.0962C185.211 64.7588 186.723 65.4561 187.602 66.7487C188.193 66.4306 188.832 66.1893 189.51 66.041C190.112 65.9103 190.71 65.8579 191.297 65.8804C191.669 64.3463 192.807 63.0987 194.327 62.7658C196.457 62.301 198.528 63.8079 198.955 66.1338C199.233 67.659 198.735 69.1584 197.759 70.1392C198.16 70.9085 198.458 71.7602 198.625 72.6747C199.07 75.0981 198.518 77.4854 197.28 79.3329C198.392 79.7513 199.471 80.3783 200.494 81.1833C203.163 80.6256 207.527 80.1726 210.76 82.1131C215.746 85.1033 216.089 91.7 212.931 91.8815Z" fill="#2B478B"/>
<path d="M183.472 101.149C183.413 100.873 183.358 100.594 183.306 100.313C182.754 97.3014 182.703 94.3548 183.076 91.6526C183.468 91.1547 183.988 90.7843 184.578 91.0902C185.883 91.7651 185.677 98.5881 187.668 100.163C189.144 101.329 185.453 101.343 183.472 101.149Z" fill="#233862"/>
<path d="M191.045 80.7793C190.296 81.0822 188.699 81.6235 187.268 81.8635C187.295 81.835 187.321 81.8049 187.348 81.7765C185.393 80.6219 183.906 78.5615 183.435 75.9942C183.275 75.1259 183.245 74.2607 183.328 73.424C183.321 73.4225 183.315 73.4195 183.308 73.418C183.387 73.3835 183.487 73.436 183.617 73.6369C184.115 74.4063 186.799 80.6292 191.045 79.9171C191.045 79.9171 192.154 80.3293 191.045 80.7793Z" fill="#233862"/>
<path d="M193.057 66.4214C193.057 66.4214 194.052 64.397 195.528 64.9218C197.004 65.4467 197.21 67.7709 196.249 68.4083C196.249 68.4083 194.818 66.9626 193.057 66.4214Z" fill="#233862"/>
<path d="M186.122 67.6065C186.122 67.6065 183.994 66.5357 183.033 67.7727C182.072 69.0099 183.994 70.5881 183.994 70.5881C183.994 70.5881 184.921 68.49 186.122 67.6065Z" fill="#233862"/>
<path d="M186.989 78.9731L186.303 81.7457C186.303 81.7457 183.895 80.7878 182.653 80.2737C182.281 80.1173 182.07 80.0139 182.07 80.0139C181.079 79.5904 179.898 79.047 178.611 78.4618L178.593 78.4582C176.397 77.4039 173.946 76.1752 171.912 74.9454C170.485 74.0636 169.265 73.1815 168.469 72.3823C168.387 72.304 168.323 72.2291 168.245 72.1307C166.378 70.003 164.655 64.4869 163.561 58.7221C163.409 57.9258 163.274 57.1333 163.137 56.3609C162.663 53.4928 162.366 50.7013 162.304 48.3287C162.254 46.911 162.276 45.6313 162.408 44.6015C162.45 44.2372 162.488 43.893 162.559 43.5754C163.558 37.7682 166.334 37.4877 166.334 37.4877C166.393 37.4785 166.451 37.4691 166.528 37.4639C167 37.474 167.421 37.909 167.807 38.6687C168.296 39.6136 168.735 41.0876 169.145 42.8456C169.764 45.6386 170.312 49.2045 170.789 52.7357C171.057 54.6725 171.306 56.6058 171.578 58.3985C171.721 59.4829 171.874 60.5067 172.022 61.4472C172.312 63.2436 172.601 64.7084 172.917 65.6613C173.118 66.2805 173.833 67.2292 174.807 68.3322C176.498 70.26 179.035 72.6863 181.262 74.6988C182.184 75.5434 183.061 76.3168 183.789 76.9575C184.964 77.9965 186.989 78.9731 186.989 78.9731Z" fill="#FFB27D"/>
<path d="M169.458 42.8827C165.924 41.0682 162.553 43.568 162.553 43.568C163.576 37.6739 166.489 37.4141 166.489 37.4141C167.689 37.1453 168.646 39.4481 169.458 42.8827Z" fill="#003342"/>
<path d="M185.358 78.3545C185.358 78.3545 186.821 78.9905 187.654 79.152C188.486 79.3135 189.77 78.8627 190.825 79.614C191.879 80.3652 192.63 80.8652 192.63 80.8652C192.63 80.8652 192.887 81.2912 192.326 81.4641C192.006 81.5625 190.389 80.445 190.32 80.7431C190.251 81.0412 191.349 81.7083 191.987 81.7458C192.625 81.7834 193.787 82.394 193.787 82.8445C193.787 83.2951 191.903 84.3616 190.802 84.2864C189.702 84.2112 187.44 82.0927 186.868 81.9423C186.296 81.7922 183.889 80.7429 183.889 80.7429L185.358 78.3545Z" fill="#FFB27D"/>
<path d="M164.546 164.054H152.129C152.129 164.054 151.831 161.988 152.48 160.42C153.101 158.915 154.19 158.17 153.957 156.35C154.746 157.237 155.831 158.092 157.626 157.828C157.846 158.217 159.132 160.501 159.866 161.078C160.678 161.715 164.296 161.488 164.546 164.054Z" fill="#233862"/>
<path d="M292.964 151.628C292.964 151.628 295.369 154.062 294.9 155.792C294.431 157.522 292.26 158.675 291.967 160.789C291.673 162.904 290.5 164.057 289.444 164.057C288.388 164.057 284.41 164.057 284.41 164.057C284.41 164.057 283.632 162.569 285.509 162.121C287.387 161.672 288.095 159.188 287.977 156.881C287.86 154.575 288.153 151.5 288.153 151.5L292.143 150.475L292.964 151.628Z" fill="#1D1617"/>
<path d="M262.986 163.82C262.802 163.921 262.264 163.997 261.504 164.056H249.328C249.385 163.63 249.703 162.406 251.487 162.089C253.589 161.717 257.233 160.382 258.047 157.446C258.072 157.35 258.096 157.254 258.116 157.156C258.761 154.017 263.455 158.117 263.455 158.117C263.455 158.117 263.469 158.243 263.489 158.456C263.598 159.607 263.877 163.333 262.986 163.82Z" fill="#1D1617"/>
<path d="M252.045 79.8529C252.045 79.8529 252.758 89.5648 253.595 101.239C254.734 117.098 256.103 136.577 256.239 140.268C256.473 146.676 257.413 156.926 257.413 156.926C257.413 156.926 259.641 159.361 264.101 158.335C264.101 158.335 268.075 143.702 269.21 128.221C269.228 127.967 269.245 127.711 269.263 127.456C270.319 111.695 271.961 78.5078 271.961 78.5078L252.045 79.8529Z" fill="#3B5C1A"/>
<path d="M252.045 79.8529C252.045 79.8529 252.758 89.5648 253.595 101.239L269.21 128.221C269.228 127.967 269.245 127.711 269.263 127.456C270.319 111.695 271.961 78.5078 271.961 78.5078L252.045 79.8529Z" fill="#7E8B13"/>
<path d="M255.299 81.0053C255.299 81.0053 268.147 116.178 276.595 132.708C285.043 149.237 287.683 153.85 287.683 153.85C287.683 153.85 292.523 151.736 292.963 150.294C292.963 150.294 289.732 118.383 284.075 110.604C280.878 106.209 277.123 93.018 276.947 88.4051C276.771 83.7923 275.803 74.6626 275.803 74.6626L255.299 81.0053Z" fill="#3B5C1A"/>
<path d="M230.087 76.1367C230.087 76.1367 225.553 78.5132 224.942 79.1232C224.332 79.7331 222.826 82.7275 222.942 82.9533C223.057 83.1789 223.283 83.2488 223.694 82.9385C224.105 82.6281 225.258 81.3312 225.3 81.572C225.343 81.8127 222.223 85.8225 222.774 86.6711C223.326 87.5196 226.454 87.2689 228.241 85.8814C230.027 84.4942 231.81 79.3945 232.079 79.1161C234.356 76.7546 230.087 76.1367 230.087 76.1367Z" fill="#FFB27D"/>
<path d="M229.883 78.6841C228.625 77.4882 228.592 77.1855 228.592 77.1855C228.592 77.1855 236.631 62.0036 237.328 60.5436C238.025 59.0834 242.334 36.2827 242.334 36.2827L257.23 31.5664C257.23 31.5664 246.737 61.1947 244.905 64.8564C241.877 70.9072 231.992 79.8126 231.992 79.8126C231.992 79.8126 230.872 79.6232 229.883 78.6841Z" fill="#054B60"/>
<path d="M249.641 25.6329C249.641 25.6329 244.398 35.7052 239.274 37.02C239.274 37.02 239.488 33.6371 240.735 31.3222C240.224 30.6641 239.776 30.0595 239.387 29.5186C238.098 27.7136 237.484 26.6087 237.484 26.6087L239.223 21.5034L240.403 18.0393C240.97 19.1635 241.596 20.1215 242.247 20.9407C245.605 25.1569 249.641 25.6329 249.641 25.6329Z" fill="#FFB27D"/>
<path d="M242.249 20.9401C242.249 20.9401 242.875 25.9877 239.389 29.5181C238.1 27.7131 237.486 26.6082 237.486 26.6082L239.225 21.5029C241.09 20.8823 242.249 20.9401 242.249 20.9401Z" fill="#ED975D"/>
<path d="M236.101 27.3527C236.101 27.3527 243.933 24.0182 241.957 18.7235C239.98 13.4288 239.66 9.43258 234.575 11.3377C229.491 13.2428 229.28 15.6933 229.546 17.6358C229.812 19.5781 234.012 28.0837 236.101 27.3527Z" fill="#FFB27D"/>
<path d="M276.562 77.3203C273.403 82.2802 249.778 88.9083 250.061 85.476C250.167 84.1605 250.312 81.8452 250.058 78.7041C249.998 77.9678 249.913 77.1867 249.807 76.3647C249.205 71.8499 247.781 66.0508 244.6 59.3338C244.362 58.8303 244.114 58.3234 243.857 57.8095C242.546 55.2097 241.432 52.4627 240.582 49.7737C238.945 44.6085 238.283 39.6656 239.111 36.4356C239.114 36.4184 239.117 36.4048 239.124 36.3911C244.061 33.8975 245.974 24.2278 245.974 24.2278C245.974 24.2278 262.821 27.5299 272.259 52.0516C272.259 52.0516 273.165 54.744 274.2 58.3988C275.458 62.8311 276.907 68.6748 277.158 72.8434C277.28 74.8233 277.129 76.4264 276.562 77.3203Z" fill="#003342"/>
<path d="M243.08 8.88757C243.135 8.76925 243.295 8.64268 243.684 8.51272C243.684 8.51272 243.319 8.37896 242.895 8.48076C242.675 7.89486 242.141 6.89701 241.138 6.88916C241.138 6.88916 241.713 7.05256 241.925 7.68137C240.551 6.73036 238.004 6.4542 231.647 8.76668C223.269 11.8144 227.455 17.126 228.724 17.5518C229.994 17.9777 232.332 15.2448 234.435 14.8717C236.537 14.4985 237.675 17.6971 238.476 17.9623C239.278 18.2275 238.822 17.4999 239.662 16.7709C240.501 16.0419 240.983 17.7568 240.965 18.9611C240.947 20.1655 242.583 21.307 242.583 21.307C242.583 21.307 242.583 21.307 243.543 19.3841C244.503 17.4613 244.242 10.4807 243.325 9.22424C243.244 9.11324 243.163 9.00047 243.08 8.88757Z" fill="#1D1617"/>
<path d="M277.156 72.8435C256.828 66.147 253.594 39.6794 253.594 39.6794C253.594 39.6794 265.168 49.339 274.198 58.3988C275.456 62.8312 276.905 68.6749 277.156 72.8435Z" fill="#075065"/>
<path d="M282.73 73.7126C282.73 73.7126 282.272 77.9124 282.383 78.5977C282.493 79.2831 283.226 81.3219 283.408 81.3331C283.59 81.3442 284.143 81.3687 284.128 80.9486C284.113 80.5286 283.863 80.1362 284.024 80.2058C284.185 80.2751 284.231 81.8605 284.964 81.8194C285.697 81.7782 287.855 80.8899 287.768 79.0488C287.68 77.2075 285.381 73.8351 285.327 73.5294C284.862 70.937 282.73 73.7126 282.73 73.7126Z" fill="#FFB27D"/>
<path d="M283.951 74.4209C282.338 75.2278 281.739 74.4047 281.739 74.4047C281.739 74.4047 272.345 57.2737 271.355 55.896C270.366 54.5183 253.024 46.3913 253.024 46.3913C253.024 46.3913 245.966 43.445 245.687 38.7697C245.445 34.707 247.557 32.211 249.87 30.7055C252.626 28.9114 256.113 29.1754 258.648 31.3247C264.337 36.1494 275.614 45.8541 277.429 48.4858C281.468 54.3431 285.945 72.7028 285.945 72.7028C285.945 72.7028 285.217 73.7869 283.951 74.4209Z" fill="#003342"/>
<path d="M243.568 86.0384L239.34 90.6515L239.281 90.6113L232.936 86.2642C232.936 86.2642 236.219 87.422 236.663 87.2868C237.082 87.1593 241.669 85.438 242.751 85.5812C242.817 85.59 242.87 85.606 242.908 85.6294C243.568 86.0384 243.568 86.0384 243.568 86.0384Z" fill="#4A75CB"/>
<path d="M239.147 91.9042C238.977 91.864 238.474 91.7337 237.788 91.5421C235.818 90.9911 232.344 89.9345 230.973 89.0679C229.742 88.2904 223.241 84.1624 218.762 81.2627C220.548 80.2195 222.311 80.0726 223.789 80.2752C229.018 83.6275 235.85 88.0278 236.686 88.6697C238.061 89.7263 239.936 91.004 239.936 91.004C239.936 91.004 239.929 91.0621 239.909 91.1491C239.845 91.4327 239.65 92.0224 239.147 91.9042Z" fill="#E58638"/>
<path d="M239.149 91.9047C238.979 91.8645 238.476 91.7341 237.791 91.5425C235.82 90.9916 232.346 89.935 230.975 89.0683C229.744 88.2908 223.243 84.1628 218.764 81.2631C216.515 79.8074 214.775 78.6609 214.47 78.4045C213.556 77.6374 211.797 75.7194 212.229 75.3576C212.662 74.9956 213.506 75.3599 213.823 75.3063C213.828 75.3055 213.832 75.305 213.837 75.3039C213.911 75.2914 214.034 75.2703 214.203 75.2592C214.807 75.2201 216.005 75.3112 217.711 76.3866C217.711 76.3866 220.417 78.1129 223.791 80.2757C229.02 83.628 235.852 88.0282 236.688 88.6702C238.063 89.7268 239.938 91.0044 239.938 91.0044C239.938 91.0044 239.931 91.0625 239.911 91.1496C239.847 91.4332 239.652 92.0229 239.149 91.9047Z" fill="#739AF0"/>
<path d="M239.148 91.9031C238.978 91.8633 238.474 91.733 237.789 91.5413C237.878 90.6879 237.332 90.0083 237.332 90.0083L239.91 91.1483C239.846 91.4316 239.651 92.0217 239.148 91.9031Z" fill="#4A75CB"/>
<g opacity="0.5">
<path d="M233.559 88.2778C233.519 88.2519 233.506 88.1948 233.529 88.1508L233.575 88.0665C233.599 88.0226 233.651 88.0078 233.691 88.0338C233.731 88.0597 233.745 88.1168 233.721 88.1608L233.675 88.2452C233.652 88.289 233.599 88.3036 233.559 88.2778Z" fill="#4A75CB"/>
<path d="M233.184 88.0334C233.144 88.0075 233.131 87.9504 233.154 87.9067L233.2 87.8222C233.224 87.7785 233.276 87.7637 233.316 87.7897C233.356 87.8156 233.37 87.8727 233.346 87.9167L233.3 88.001C233.277 88.0447 233.224 88.0592 233.184 88.0334Z" fill="#4A75CB"/>
<path d="M232.807 87.7913C232.767 87.7654 232.754 87.7084 232.777 87.6646L232.823 87.5801C232.847 87.5364 232.899 87.5215 232.939 87.5475C232.98 87.5733 232.993 87.6305 232.969 87.6745L232.923 87.7589C232.9 87.8025 232.847 87.8173 232.807 87.7913Z" fill="#4A75CB"/>
<path d="M232.434 87.5488C232.394 87.5231 232.381 87.4659 232.404 87.4219L232.45 87.3375C232.474 87.2936 232.526 87.2788 232.566 87.3048C232.606 87.3308 232.62 87.3878 232.596 87.4318L232.55 87.5163C232.527 87.56 232.474 87.5748 232.434 87.5488Z" fill="#4A75CB"/>
<path d="M232.053 87.3056C232.013 87.2796 232 87.2226 232.024 87.1786L232.069 87.0942C232.093 87.0504 232.145 87.0357 232.185 87.0617C232.226 87.0875 232.239 87.1448 232.215 87.1887L232.17 87.2731C232.146 87.3167 232.094 87.3316 232.053 87.3056Z" fill="#4A75CB"/>
<path d="M231.676 87.0615C231.636 87.0356 231.623 86.9785 231.647 86.9345L231.692 86.8502C231.716 86.8063 231.768 86.7915 231.809 86.8175C231.849 86.8434 231.862 86.9005 231.838 86.9445L231.793 87.029C231.769 87.0727 231.717 87.0875 231.676 87.0615Z" fill="#4A75CB"/>
<path d="M231.301 86.8188C231.261 86.7929 231.248 86.7358 231.271 86.6918L231.317 86.6073C231.341 86.5636 231.393 86.5489 231.433 86.5749C231.474 86.6007 231.487 86.6578 231.463 86.7018L231.418 86.7862C231.394 86.83 231.341 86.8448 231.301 86.8188Z" fill="#4A75CB"/>
<path d="M230.922 86.5761C230.882 86.5503 230.869 86.4931 230.893 86.4491L230.938 86.3648C230.962 86.3209 231.014 86.3062 231.055 86.3322C231.095 86.358 231.108 86.4152 231.084 86.459L231.039 86.5435C231.015 86.5874 230.963 86.602 230.922 86.5761Z" fill="#4A75CB"/>
<path d="M230.547 86.3329C230.507 86.307 230.494 86.2499 230.518 86.206L230.563 86.1215C230.587 86.0777 230.639 86.0631 230.68 86.089C230.72 86.115 230.733 86.172 230.709 86.2159L230.664 86.3004C230.64 86.3442 230.588 86.3587 230.547 86.3329Z" fill="#4A75CB"/>
<path d="M226.108 83.4678C226.068 83.4419 226.054 83.3848 226.078 83.3408L226.124 83.2563C226.148 83.2124 226.2 83.1978 226.24 83.2238C226.28 83.2497 226.294 83.3068 226.27 83.3507L226.224 83.4351C226.201 83.479 226.148 83.4938 226.108 83.4678Z" fill="#4A75CB"/>
<path d="M225.733 83.2247C225.693 83.1988 225.679 83.1416 225.703 83.0977L225.749 83.0132C225.773 82.9694 225.825 82.9546 225.865 82.9806C225.905 83.0065 225.919 83.0637 225.895 83.1076L225.849 83.1921C225.826 83.2359 225.773 83.2506 225.733 83.2247Z" fill="#4A75CB"/>
<path d="M225.356 82.9814C225.316 82.9555 225.302 82.8984 225.326 82.8545L225.372 82.7701C225.396 82.7262 225.448 82.7115 225.488 82.7375C225.528 82.7633 225.542 82.8204 225.518 82.8644L225.472 82.9488C225.448 82.9928 225.396 83.0073 225.356 82.9814Z" fill="#4A75CB"/>
<path d="M224.983 82.7377C224.943 82.7119 224.929 82.6548 224.953 82.6109L224.999 82.5264C225.023 82.4826 225.075 82.4678 225.115 82.4938C225.155 82.5197 225.169 82.5768 225.145 82.6208L225.099 82.7053C225.075 82.749 225.023 82.7636 224.983 82.7377Z" fill="#4A75CB"/>
<path d="M224.604 82.4951C224.564 82.4692 224.55 82.4121 224.574 82.3681L224.62 82.2837C224.644 82.2399 224.696 82.2251 224.736 82.2511C224.776 82.277 224.79 82.3341 224.766 82.3781L224.72 82.4626C224.696 82.5063 224.644 82.5209 224.604 82.4951Z" fill="#4A75CB"/>
<path d="M224.225 82.2508C224.185 82.2249 224.172 82.1679 224.195 82.124L224.241 82.0395C224.265 81.9957 224.317 81.981 224.357 82.007C224.397 82.0328 224.411 82.09 224.387 82.134L224.341 82.2183C224.318 82.2622 224.265 82.2768 224.225 82.2508Z" fill="#4A75CB"/>
<path d="M223.85 82.0088C223.81 81.9828 223.797 81.9258 223.82 81.8818L223.866 81.7973C223.89 81.7536 223.942 81.7387 223.982 81.7649C224.022 81.7907 224.036 81.8477 224.012 81.8916L223.966 81.976C223.943 82.0199 223.89 82.0348 223.85 82.0088Z" fill="#4A75CB"/>
<path d="M223.471 81.765C223.431 81.7391 223.418 81.682 223.441 81.638L223.487 81.5537C223.511 81.5098 223.563 81.4952 223.603 81.5212C223.644 81.547 223.657 81.604 223.633 81.6479L223.587 81.7324C223.564 81.7761 223.511 81.791 223.471 81.765Z" fill="#4A75CB"/>
<path d="M223.096 81.5214C223.056 81.4956 223.043 81.4383 223.066 81.3945L223.112 81.31C223.136 81.2663 223.188 81.2515 223.228 81.2775C223.269 81.3034 223.282 81.3606 223.258 81.4045L223.213 81.489C223.189 81.5327 223.137 81.5474 223.096 81.5214Z" fill="#4A75CB"/>
<path d="M221.639 80.582C221.599 80.5561 221.586 80.499 221.609 80.455L221.655 80.3707C221.679 80.3268 221.731 80.312 221.771 80.338C221.811 80.364 221.825 80.421 221.801 80.4649L221.755 80.5494C221.732 80.5932 221.679 80.608 221.639 80.582Z" fill="#4A75CB"/>
<path d="M222.376 81.0575C222.335 81.0316 222.322 80.9745 222.346 80.9305L222.391 80.8461C222.415 80.8023 222.467 80.7877 222.508 80.8137C222.548 80.8395 222.561 80.8966 222.537 80.9405L222.492 81.025C222.468 81.0688 222.416 81.0833 222.376 81.0575Z" fill="#4A75CB"/>
<path d="M221.266 80.3389C221.226 80.313 221.213 80.2557 221.236 80.2119L221.282 80.1274C221.306 80.0835 221.358 80.0689 221.398 80.0949C221.438 80.1209 221.452 80.1779 221.428 80.2219L221.382 80.3062C221.359 80.3501 221.306 80.3648 221.266 80.3389Z" fill="#4A75CB"/>
<path d="M220.885 80.0957C220.845 80.0699 220.832 80.0127 220.856 79.9688L220.901 79.8843C220.925 79.8405 220.977 79.8257 221.017 79.8517C221.058 79.8776 221.071 79.9347 221.047 79.9787L221.002 80.063C220.978 80.107 220.926 80.1216 220.885 80.0957Z" fill="#4A75CB"/>
<path d="M220.51 79.8513C220.47 79.8255 220.457 79.7685 220.481 79.7246L220.526 79.6402C220.55 79.5964 220.602 79.5815 220.642 79.6075C220.682 79.6334 220.696 79.6905 220.672 79.7345L220.626 79.8189C220.603 79.8629 220.55 79.8773 220.51 79.8513Z" fill="#4A75CB"/>
<path d="M220.135 79.6092C220.095 79.5833 220.082 79.5263 220.106 79.4825L220.151 79.398C220.175 79.3543 220.227 79.3394 220.267 79.3653C220.308 79.3913 220.321 79.4483 220.297 79.4923L220.252 79.5768C220.228 79.6204 220.175 79.6352 220.135 79.6092Z" fill="#4A75CB"/>
<path d="M219.757 79.3661C219.716 79.3403 219.703 79.2831 219.727 79.2391L219.772 79.1548C219.796 79.1109 219.848 79.0962 219.889 79.1223C219.929 79.1482 219.942 79.2052 219.918 79.249L219.873 79.3335C219.849 79.3774 219.797 79.392 219.757 79.3661Z" fill="#4A75CB"/>
<path d="M219.381 79.1224C219.341 79.0966 219.328 79.0396 219.352 78.9956L219.397 78.9111C219.421 78.8674 219.473 78.8525 219.514 78.8786C219.554 78.9045 219.567 78.9616 219.543 79.0056L219.498 79.0899C219.474 79.1338 219.422 79.1484 219.381 79.1224Z" fill="#4A75CB"/>
<path d="M219.002 78.8804C218.962 78.8545 218.949 78.7974 218.973 78.7534L219.018 78.6689C219.042 78.6252 219.094 78.6103 219.135 78.6364C219.175 78.6623 219.188 78.7194 219.164 78.7633L219.119 78.8478C219.095 78.8916 219.043 78.9062 219.002 78.8804Z" fill="#4A75CB"/>
<path d="M218.624 78.6361C218.584 78.6102 218.57 78.553 218.594 78.5091L218.64 78.4248C218.663 78.3809 218.716 78.3663 218.756 78.3923C218.796 78.4181 218.809 78.4753 218.786 78.5191L218.74 78.6036C218.716 78.6472 218.664 78.6619 218.624 78.6361Z" fill="#4A75CB"/>
<path d="M218.26 78.3984C218.22 78.3725 218.207 78.3154 218.231 78.2714L218.276 78.1869C218.3 78.1432 218.352 78.1285 218.392 78.1544C218.433 78.1803 218.446 78.2373 218.422 78.2814L218.377 78.3659C218.353 78.4096 218.3 78.4244 218.26 78.3984Z" fill="#4A75CB"/>
<path d="M217.883 78.1542C217.843 78.1283 217.83 78.0713 217.854 78.0273L217.899 77.9428C217.923 77.8991 217.975 77.8843 218.015 77.9103C218.056 77.9362 218.069 77.9933 218.045 78.0373L218 78.1216C217.976 78.1655 217.924 78.1802 217.883 78.1542Z" fill="#4A75CB"/>
<path d="M217.503 77.9121C217.462 77.8862 217.449 77.8291 217.473 77.7851L217.518 77.7007C217.542 77.6569 217.594 77.6421 217.635 77.6681C217.675 77.694 217.688 77.7511 217.664 77.795L217.619 77.8794C217.595 77.9233 217.543 77.9379 217.503 77.9121Z" fill="#4A75CB"/>
<path d="M214.609 75.7912C214.573 75.8395 214.514 75.8562 214.463 75.8363C214.45 75.8312 214.438 75.8238 214.426 75.8141L213.836 75.3035C213.91 75.291 214.033 75.2699 214.202 75.2588L214.588 75.5921C214.644 75.6405 214.653 75.7299 214.609 75.7912Z" fill="#4A75CB"/>
<path d="M224.087 82.648L223.973 82.5741C223.897 82.5254 223.872 82.4179 223.917 82.3352L224.199 81.814C224.243 81.7315 224.342 81.7038 224.417 81.7527L224.532 81.8266C224.608 81.8753 224.633 81.9829 224.588 82.0655L224.306 82.5867C224.261 82.6691 224.163 82.6968 224.087 82.648Z" fill="#4A75CB"/>
<path d="M224.837 83.1304L224.723 83.0565C224.647 83.0078 224.622 82.9002 224.667 82.8176L224.949 82.2964C224.993 82.214 225.092 82.1862 225.167 82.2351L225.282 82.309C225.357 82.3577 225.383 82.4653 225.338 82.5479L225.056 83.0691C225.011 83.1516 224.913 83.1793 224.837 83.1304Z" fill="#4A75CB"/>
<path d="M229.436 85.6171C229.396 85.5913 229.382 85.5341 229.406 85.4902L229.452 85.4058C229.476 85.362 229.528 85.3472 229.568 85.3732C229.608 85.3991 229.622 85.4563 229.598 85.5002L229.552 85.5846C229.529 85.6285 229.476 85.6431 229.436 85.6171Z" fill="#4A75CB"/>
<path d="M229.063 85.373C229.023 85.3471 229.009 85.29 229.033 85.2461L229.079 85.1617C229.103 85.1178 229.155 85.1031 229.195 85.1291C229.235 85.1549 229.249 85.212 229.225 85.256L229.179 85.3404C229.156 85.3842 229.103 85.399 229.063 85.373Z" fill="#4A75CB"/>
<path d="M228.686 85.1308C228.646 85.105 228.632 85.0478 228.656 85.0038L228.702 84.9195C228.726 84.8756 228.778 84.8609 228.818 84.8869C228.858 84.9127 228.872 84.9699 228.848 85.0139L228.802 85.0982C228.779 85.1421 228.726 85.1568 228.686 85.1308Z" fill="#4A75CB"/>
<path d="M228.313 84.888C228.273 84.8622 228.259 84.8051 228.283 84.7612L228.329 84.6767C228.353 84.6329 228.405 84.6182 228.445 84.6442C228.485 84.6701 228.499 84.7272 228.475 84.7711L228.429 84.8555C228.405 84.8994 228.353 84.9139 228.313 84.888Z" fill="#4A75CB"/>
<path d="M227.932 84.6454C227.892 84.6196 227.879 84.5626 227.902 84.5186L227.948 84.4341C227.972 84.3904 228.024 84.3755 228.064 84.4015C228.104 84.4273 228.118 84.4845 228.094 84.5285L228.048 84.6128C228.025 84.6567 227.972 84.6713 227.932 84.6454Z" fill="#4A75CB"/>
<path d="M227.555 84.4008C227.515 84.375 227.502 84.3178 227.525 84.2738L227.571 84.1895C227.595 84.1457 227.647 84.1309 227.687 84.1569C227.728 84.1829 227.741 84.2399 227.717 84.2839L227.671 84.3683C227.648 84.4121 227.595 84.4268 227.555 84.4008Z" fill="#4A75CB"/>
<path d="M227.18 84.1582C227.14 84.1323 227.127 84.0753 227.15 84.0312L227.196 83.9467C227.22 83.903 227.272 83.8882 227.312 83.9142C227.352 83.9401 227.366 83.9972 227.342 84.0412L227.296 84.1257C227.273 84.1694 227.22 84.1842 227.18 84.1582Z" fill="#4A75CB"/>
<path d="M226.801 83.9151C226.761 83.8892 226.748 83.8321 226.772 83.7881L226.817 83.7036C226.841 83.6599 226.893 83.645 226.933 83.671C226.974 83.697 226.987 83.754 226.963 83.798L226.918 83.8825C226.894 83.9263 226.842 83.9411 226.801 83.9151Z" fill="#4A75CB"/>
<path d="M226.426 83.6724C226.386 83.6464 226.373 83.5894 226.397 83.5454L226.442 83.4609C226.466 83.4172 226.518 83.4023 226.558 83.4284C226.598 83.4543 226.612 83.5113 226.588 83.5554L226.543 83.6398C226.519 83.6836 226.466 83.6984 226.426 83.6724Z" fill="#4A75CB"/>
</g>
<path d="M224.113 84.8246C224.366 84.8743 224.558 84.5774 224.43 84.3338C224.302 84.0902 224.106 83.8082 223.829 83.6333C223.258 83.2736 223.09 84.4136 223.275 84.5418C223.384 84.6175 223.776 84.7586 224.113 84.8246Z" fill="#2B478B"/>
<path d="M224.055 83.4691L223.355 84.7636C223.355 84.7636 222.658 84.609 221.705 84.0277C221.122 83.6718 220.77 83.3423 220.585 83.1405C220.468 83.0124 220.418 82.9355 220.418 82.9355L221.153 81.5784C221.223 81.5695 221.311 81.5829 221.412 81.614C222.246 81.8723 223.959 83.3476 223.959 83.3476L224.055 83.4691Z" fill="#2B478B"/>
<path d="M221.412 81.614L220.585 83.1405C220.468 83.0124 220.418 82.9355 220.418 82.9355L221.153 81.5784C221.223 81.5695 221.311 81.583 221.412 81.614Z" fill="#4A75CB"/>
<path d="M237.362 89.781C237.397 89.7672 239.818 90.3649 241.134 91.417L239.47 91.3891L237.332 90.009C237.332 90.009 237.191 89.8504 237.362 89.781Z" fill="#2B478B"/>
<path d="M232.42 84.5152C232.42 84.5152 230.922 85.641 230.661 85.7937C230.401 85.9464 229.983 85.9045 229.983 85.9045L229.98 85.9039L227.404 85.4296C227.404 85.4296 224.657 83.6778 224.066 83.2803L224.066 83.2802C224.012 83.2441 223.976 83.219 223.962 83.2078C223.789 83.0707 223.731 82.9491 223.79 82.9112C223.849 82.8735 228.366 84.8359 228.865 85.0566C228.87 85.0588 228.875 85.0607 228.879 85.063C229.366 85.2751 229.464 85.1645 229.464 85.1645L231.954 84.4176C231.99 84.3981 232.038 84.3949 232.088 84.4004C232.239 84.4176 232.42 84.5152 232.42 84.5152Z" fill="#4A75CB"/>
<path d="M232.088 84.4003C231.407 84.6291 229.524 85.2571 229.36 85.28C229.183 85.3047 225.076 83.6783 224.066 83.2803L224.066 83.2802C224.012 83.2441 223.976 83.219 223.962 83.2078C223.789 83.0706 223.731 82.9491 223.79 82.9112C223.849 82.8735 228.366 84.8359 228.865 85.0566C229.364 85.2774 229.464 85.1645 229.464 85.1645L231.954 84.4176C231.99 84.398 232.038 84.3948 232.088 84.4003Z" fill="#4A75CB"/>
<path d="M232.421 84.5158C232.421 84.5158 230.923 85.6416 230.663 85.7943C230.402 85.947 229.984 85.905 229.984 85.905L229.982 85.9045C229.494 85.6222 229.119 85.2969 228.881 85.0634C229.367 85.2755 229.465 85.1649 229.465 85.1649L231.956 84.4181C231.992 84.3986 232.039 84.3953 232.09 84.4009C232.241 84.4182 232.421 84.5158 232.421 84.5158Z" fill="#4A75CB"/>
<path d="M239.398 90.6792L232.936 86.2641C232.936 86.2641 236.272 87.4528 236.721 87.3205C237.145 87.1958 241.783 85.5047 242.88 85.6572C241.634 86.2071 238.711 87.5684 238.509 88.3232C238.317 89.0421 239.027 90.1607 239.398 90.6792Z" fill="#739AF0"/>
<path d="M84.2088 4.81137C84.1958 4.42149 83.9193 0.219578 78.0586 0C78.0586 0 80.9407 0.375126 81.4387 1.75893C81.4387 1.75893 79.4763 0.04928 77.8782 0.599174C76.2801 1.14907 75.3414 4.20665 75.3321 5.21235C75.3227 6.21805 76.2105 9.45988 77.2248 9.7355C77.6091 9.84001 78.0515 9.81199 78.4533 9.73726C78.1833 10.1973 77.9189 10.7051 77.666 11.2719C75.3275 16.5144 77.7392 21.6377 79.7191 21.0718C80.9888 20.7087 81.3481 23.0748 81.3481 23.0748L93.6841 12.1686C93.6839 12.1683 89.153 1.92977 84.2088 4.81137Z" fill="#1D1617"/>
<path d="M88.5073 159.256L85.887 160.321C85.887 160.321 74.5058 143.084 73.1047 127.917C72.8545 125.21 72.9378 122.586 73.479 120.163C73.479 120.163 73.3679 119.469 73.1732 118.243C73.0832 117.67 72.9722 116.982 72.846 116.192C72.4758 113.877 71.9666 110.709 71.3847 107.102C70.0455 98.8014 68.3105 88.1905 66.9629 80.3901L67.6689 80.1424L75.3081 77.4511L76.8868 71.9752L82.5751 70.3398C82.5751 70.3398 83.8459 73.0545 84.9818 85.8778C85.1914 87.5597 85.3818 89.4147 85.5252 91.4261C85.968 97.5655 86 105.181 84.984 113.889C84.7229 116.117 84.3936 118.418 83.985 120.783C83.6855 122.516 83.6406 124.878 83.7668 127.59C84.3401 139.988 88.5073 159.256 88.5073 159.256Z" fill="#2B478B"/>
<path d="M85.5252 91.426L73.1732 118.243C73.0832 117.67 72.9722 116.982 72.846 116.192C72.4758 113.877 71.9666 110.709 71.3847 107.102C70.0455 98.8014 68.3105 88.1905 66.9629 80.3901L67.6689 80.1424L75.3081 77.4511L76.8868 71.9752L82.5751 70.3398C82.5751 70.3398 83.8459 73.0545 84.9818 85.8778C85.1915 87.5596 85.3819 89.4146 85.5252 91.426Z" fill="#233862"/>
<path d="M80.0896 73.7815L79.8036 71.1037C75.0129 72.4933 62.2133 67.2207 62.2133 67.2207C62.2133 67.2207 57.5724 71.6758 58.1818 82.3548C58.4791 87.567 59.0225 109.716 59.5897 116.27C59.7948 118.645 59.9744 120.336 60.0478 121.011C60.0493 121.014 60.0493 121.016 60.0493 121.018C60.0718 121.223 60.0059 121.418 59.9101 121.598C59.0748 123.146 58.3832 124.758 57.8157 126.408C52.2466 142.614 58.6735 162.572 58.6735 162.572L60.3412 161.838C60.3412 161.838 63.9984 139.627 66.9702 129.815C67.4746 128.15 67.9583 126.843 68.4015 126.061C69.6933 123.784 70.8925 120.063 71.9808 115.637C74.0378 107.27 75.6934 96.3852 76.7953 87.9836C76.9474 87.9916 80.0896 73.7815 80.0896 73.7815Z" fill="#2B478B"/>
<path d="M117.831 70.3609C116.799 71.3569 114.063 67.9355 113.686 67.4809C113.666 67.4376 113.646 67.4158 113.646 67.4158L114.479 64.882C114.479 64.882 118.069 64.7306 118.663 65.38C119.258 66.0298 118.961 69.2998 117.831 70.3609Z" fill="#ED985F"/>
<path d="M114.48 64.882L114.123 67.5024C114.123 67.5024 113.965 67.5024 113.687 67.4808C112.815 67.4157 110.693 67.2858 108.293 67.004C104.685 66.6144 100.401 65.9213 98.6958 64.7737C96.0983 63.0416 91.8348 57.7359 89.0588 52.4303C88.9793 52.3004 88.9201 52.1707 88.8604 52.0407C87.4128 49.2253 86.4015 46.4317 86.3223 44.2015C86.2628 42.8372 86.4015 41.6677 86.6593 40.6501C86.9964 39.3076 87.5516 38.2465 88.1267 37.4452C88.2061 37.3151 88.2854 37.1855 88.4044 37.077C89.3562 35.8428 90.2881 35.323 90.2881 35.323C90.764 35.1064 91.2796 35.3663 91.8149 35.9943V36.0159C92.2512 36.5141 92.727 37.2717 93.183 38.2247C93.2029 38.2464 93.2227 38.2681 93.2227 38.2899C93.322 38.4845 93.4212 38.7011 93.5402 38.9394C93.5796 38.9826 93.5994 39.0477 93.6194 39.091C93.8376 39.589 94.0556 40.1088 94.2738 40.6501C96.7128 46.4535 99.3106 55.2454 101.472 57.8658C102.404 58.9918 106.667 61.2006 110.058 62.8465C112.497 64.0161 114.48 64.882 114.48 64.882Z" fill="#ED985F"/>
<path d="M89.2425 41.3007C87.7386 42.0623 85.9224 42.5809 83.7254 42.7118C75.4893 43.2047 73.6196 35.3201 73.2793 30.087C74.4665 29.6176 75.5063 29.6618 76.1053 29.6969C76.6893 29.7321 77.2991 29.7973 77.8018 29.865C78.8095 29.2903 80.6192 26.4986 81.6652 21.8286L82.0204 22.0085L87.9631 25.0596C87.9631 25.0596 87.3321 27.1715 86.8657 29.1922C86.5019 30.7738 86.241 32.3018 86.4593 32.7291C86.9277 32.9371 87.208 33.0679 87.208 33.0679C87.208 33.0679 87.208 33.0703 87.2101 33.075C87.2701 33.2407 88.5622 36.8362 89.2425 41.3007Z" fill="#FFB27D"/>
<path d="M91.3 47.2024C91.2379 47.3823 91.1694 47.5575 91.0946 47.7376C89.0089 52.6434 85.1474 72.9658 85.1474 72.9658C85.6972 76.6194 60.0028 72.2486 59.9364 68.9219C59.0315 65.3941 63.1475 59.7266 65.4687 56.8834C65.7595 56.5261 66.0206 56.143 66.2473 55.7388C66.8205 54.7249 67.1843 53.5801 67.2998 52.384C67.7556 47.6681 67.582 43.2484 67.6206 40.5611C67.6206 40.5608 67.6206 40.5608 67.6206 40.5605C68.0742 40.1939 68.5127 39.8551 68.9213 39.5326C69.5459 39.035 70.0979 38.5702 70.5045 38.0983C70.9516 37.5843 71.2318 37.0586 71.2637 36.4653C71.2873 36.0166 71.2745 35.5564 71.2318 35.0962C71.2124 34.8791 71.1869 34.6617 71.1569 34.4444C70.8359 32.162 69.9631 30.0921 69.9631 30.0921C72.173 29.1156 76.1028 29.6973 76.1028 29.6973C76.1028 29.6973 76.0986 29.9356 76.0963 30.3258C76.0835 31.8934 76.0964 35.9186 76.5563 36.6801C77.1318 37.6287 87.659 41.7847 88.2153 40.4974C88.7628 39.2311 87.2633 33.2995 87.2076 33.0755C87.2055 33.0708 87.2055 33.0683 87.2055 33.0683C90.7308 34.5799 91.991 35.8484 91.991 35.8484C89.8665 37.3531 92.9429 42.4436 91.3 47.2024Z" fill="#003342"/>
<path d="M87.961 25.0614C87.961 25.0614 87.3292 27.1714 86.8637 29.194C83.3901 28.1358 82.3352 24.1482 82.0176 22.0105L87.961 25.0614Z" fill="#ED985F"/>
<path d="M88.6961 27.2956C88.6961 27.2956 80.3854 25.1952 81.6628 19.5633C82.9402 13.9316 82.728 9.86751 88.0881 10.9705C93.4483 12.0733 93.9879 14.5002 93.9801 16.4933C93.9724 18.4863 90.8909 27.6968 88.6961 27.2956Z" fill="#FFB27D"/>
<path d="M94.4468 13.2955C93.5534 11.2543 92.5019 11.3633 91.844 11.725C87.939 7.77954 84.1089 11.0028 84.1089 11.0028C82.6346 14.8921 79.4395 16.4814 79.4395 16.4814C79.4395 16.4814 80.7162 17.9091 84.4166 17.8776C85.5468 17.868 86.6833 17.3011 87.7174 16.5203C85.7228 18.7142 83.3841 20.0498 83.3841 20.0498C88.0161 19.0817 91.1224 13.2254 91.4405 12.6034C91.8329 13.2362 92.5835 14.5834 92.6467 15.7208C92.7325 17.2666 92.2455 20.2686 93.0561 20.3824C93.0561 20.3824 95.7867 16.3568 94.4468 13.2955Z" fill="#1D1617"/>
<path d="M91.9934 35.8474C91.9934 35.8474 93.9946 39.6593 94.2938 40.6404C94.2938 40.6404 91.699 40.5313 90.6512 42.7111C90.6512 42.7111 90.3999 36.3612 91.9934 35.8474Z" fill="#003342"/>
<path d="M78.2318 66.137C73.164 66.0784 68.8726 60.3316 66.25 55.7386C66.8232 54.7248 67.187 53.5799 67.3025 52.3839C67.7583 47.6679 67.5847 43.2482 67.6233 40.5609C67.6233 40.5606 67.6233 40.5606 67.6233 40.5604C68.0769 40.1938 68.5154 39.8549 68.924 39.5324C69.5486 39.0348 70.1006 38.5701 70.5072 38.0981C74.6571 45.7583 85.1032 66.2162 78.2318 66.137Z" fill="#0B5166"/>
<path d="M68.3695 164.06H55.1721C55.1721 164.06 54.8557 161.863 55.5451 160.197C56.2057 158.598 57.2403 157.871 56.9926 155.937C57.8312 156.879 59.1979 157.935 61.1058 157.655C61.3398 158.069 62.6149 160.284 63.3958 160.897C64.2581 161.573 68.104 161.332 68.3695 164.06Z" fill="#233862"/>
<path d="M96.7061 164.061H83.509C83.509 164.061 83.0157 161.762 83.8821 160.198C84.6491 158.814 84.3549 158.026 83.7869 156.881C84.3848 157.148 85.1583 157.391 86.0098 157.338C86.6673 157.297 87.3626 156.971 87.9724 156.584C88.5404 157.291 90.9726 160.302 91.7326 160.898C92.5949 161.575 96.4406 161.333 96.7061 164.061Z" fill="#233862"/>
<path d="M108.124 57.7012L95.2832 75.9427L96.3272 76.7409L109.326 58.4993L108.124 57.7012Z" fill="#233862"/>
<path d="M109.329 58.5H122.36L108.719 76.7415H96.3301L109.329 58.5Z" fill="#2B478B"/>
<path d="M108.127 57.7012H121.072L121.803 58.4993H109.328L108.127 57.7012Z" fill="#CCDFED"/>
<path d="M108.471 57.9301H121.307L121.516 57.7012H108.127L108.471 57.9301Z" fill="#2B478B"/>
<path d="M106.645 69.5694C106.609 68.8436 105.732 68.8769 105.067 68.8734C103.974 68.8677 102.252 68.786 101.255 68.3689C101.255 68.3689 104.438 68.3194 103.761 67.2211C103.638 67.0211 102.056 67.1726 100.29 67.1726C99.5656 67.1726 97.7755 68.2564 97.8678 68.3068C96.5883 68.1222 95.4246 67.8514 95.0485 67.7626C94.1759 67.2429 93.125 66.6148 92.0146 65.9216C89.3375 64.2761 86.2639 62.2622 84.162 60.5946C82.9524 59.6419 82.0402 58.7974 81.723 58.1909C81.2273 57.2597 80.6719 55.7872 80.0572 53.9684C79.74 53.0155 79.4029 51.9761 79.0657 50.8717C78.4708 49.0525 77.8759 47.082 77.2612 45.1116C76.1508 41.5168 74.9609 37.9002 73.8307 35.1067C73.0971 33.3528 72.3831 31.9019 71.709 31.0141C71.1736 30.2994 70.6579 29.9314 70.1622 30.0181C70.0828 30.0395 70.0233 30.0612 69.9638 30.083C69.9638 30.083 67.1084 30.9491 67.0688 37.2289C67.0489 37.5758 67.0688 37.9437 67.0886 38.3334C67.1283 39.4378 67.3266 40.7806 67.624 42.2529C68.0999 44.7216 68.893 47.5801 69.8845 50.4821C70.162 51.2615 70.4396 52.0629 70.7372 52.8639C72.8787 58.6676 75.6352 64.0813 77.9551 65.9216C78.0544 66.0084 78.1336 66.0734 78.2327 66.1385C79.2043 66.81 80.6321 67.4812 82.2779 68.109C84.6178 68.9756 87.394 69.7548 89.8728 70.4046H89.8926C91.3401 70.751 92.6686 71.076 93.7791 71.3142C93.7791 71.3142 93.9615 71.3637 94.2859 71.4342C94.3324 71.4443 94.3815 71.4548 94.4335 71.4656C95.4845 71.7471 97.6458 72.3536 99.6885 73.2197C102.544 74.4539 104.644 72.9194 105.598 71.8339C106.202 71.1455 106.678 70.2321 106.645 69.5694Z" fill="#FFB27D"/>
<path d="M73.8228 35.116C70.0053 33.9667 67.0605 37.2218 67.0605 37.2218C67.1085 30.952 69.9663 30.0938 69.9663 30.0938C71.1161 29.5738 72.4485 31.7482 73.8228 35.116Z" fill="#003342"/>
<path d="M164.633 111.851C163.074 110.32 164.356 106.705 163.762 105.991C163.665 105.875 163.442 105.694 163.155 105.461C162.763 107.232 162.05 109.039 161.01 110.745C157.47 116.557 151.49 119.01 147.654 116.223C143.923 113.513 143.595 106.843 146.838 101.132C146.929 100.972 147.022 100.813 147.119 100.654C148.151 98.9595 149.391 97.551 150.725 96.4742C150.728 96.4709 150.733 96.4672 150.737 96.4645C150.568 96.3571 150.433 96.2777 150.343 96.2428C149.51 95.9202 146.954 98.6092 145.057 97.6303C143.162 96.6517 144.894 92.7003 148.64 92.2363C150.925 91.953 153.336 93.2426 154.869 94.292C155.551 94.1128 156.229 94.0227 156.89 94.0264C156.914 94.0264 156.939 94.0256 156.964 94.0264C156.542 92.4845 156.728 90.7574 157.608 89.3121C157.906 88.8232 158.262 88.4017 158.66 88.0513C158.657 88.0471 158.656 88.0428 158.653 88.0386C158.213 87.142 158.227 86.0175 158.779 85.1115C159.576 83.8034 161.193 83.4476 162.392 84.3188C163.26 84.9484 163.67 86.0489 163.528 87.1048C163.942 87.2583 164.345 87.4715 164.727 87.7489C165.065 87.9953 165.368 88.2769 165.634 88.5873C166.466 88.058 167.535 88.0547 168.391 88.676C169.59 89.5472 169.915 91.3132 169.118 92.6228C168.594 93.4808 167.718 93.9293 166.839 93.8902C166.697 94.4562 166.472 95.0081 166.158 95.523C165.328 96.8875 164.045 97.7252 162.671 97.9585C163.014 98.7235 163.251 99.5696 163.386 100.471C164.877 101.574 167.119 103.594 167.803 106.157C168.86 110.11 166.192 113.381 164.633 111.851Z" fill="#EFCDAF"/>
<path d="M146.838 101.132C146.928 100.973 147.022 100.813 147.119 100.655C148.151 98.9596 149.391 97.5512 150.725 96.4744C151.122 96.4411 151.525 96.5335 151.671 96.9791C151.994 97.9629 148.971 101.059 149.23 102.816C149.422 104.118 147.684 102.236 146.838 101.132Z" fill="#E2B99A"/>
<path d="M159.128 95.4485C158.647 95.208 157.666 94.6451 156.892 94.0259C156.916 94.0259 156.941 94.0251 156.966 94.0259C156.544 92.4839 156.73 90.7568 157.61 89.3116C157.908 88.8227 158.265 88.4012 158.662 88.0508C158.659 88.0466 158.658 88.0423 158.656 88.0381C158.707 88.0619 158.732 88.1377 158.707 88.2988C158.61 88.914 157.2 93.2067 159.498 95.0439C159.498 95.0439 159.842 95.805 159.128 95.4485Z" fill="#E2B99A"/>
<path d="M166.227 89.7421C166.227 89.7421 167.562 89.3014 168.029 90.3027C168.497 91.3039 167.597 92.4997 166.872 92.3072C166.872 92.3072 166.821 90.897 166.227 89.7421Z" fill="#FFF3E9"/>
<path d="M162.467 86.7524C162.467 86.7524 161.928 85.1615 160.947 85.2502C159.965 85.339 160.19 87.0627 160.19 87.0627C160.19 87.0627 161.525 86.5523 162.467 86.7524Z" fill="#FFF3E9"/>
<path d="M132.225 102.495C132.225 102.495 128.879 97.7846 128.856 93.9399C128.834 90.0953 128.936 88.8191 129.524 88.9924C130.112 89.1658 132.755 91.3093 133.705 93.4444C134.655 95.5794 136.324 101.165 136.358 101.925C136.393 102.685 132.225 102.495 132.225 102.495Z" fill="#AFCDFB"/>
<path d="M132.406 100.991C132.406 100.991 130.268 97.7369 130.187 95.1372C130.107 92.5375 130.147 91.677 130.511 91.8064C130.875 91.9359 132.537 93.4399 133.158 94.903C133.778 96.3661 134.901 100.177 134.936 100.692C134.97 101.206 132.406 100.991 132.406 100.991Z" fill="#E57970"/>
<path d="M137.623 100.529C137.623 100.529 136.018 94.1485 136.652 92.4113C137.286 90.6741 140.572 91.8342 140.944 93.0588C141.317 94.2836 141.087 99.4544 141.087 99.4544L137.623 100.529Z" fill="#AFCDFB"/>
<path d="M138.048 93.1938C138.048 93.1938 137.816 98.2504 138.626 100.218L140.183 99.7354C140.183 99.7354 140.425 94.0896 140.217 93.7081C140.009 93.3265 138.048 93.1938 138.048 93.1938Z" fill="#E57970"/>
<path d="M136.563 92.7737C136.563 92.7737 141.958 96.6731 142.393 96.2615C142.829 95.8498 141.188 91.8916 140.552 91.5372C139.916 91.1829 136.524 90.4519 136.563 92.7737Z" fill="#AFCDFB"/>
<path d="M126.634 164.04H200.182V97.8131L126.634 97.8131L126.634 164.04Z" fill="#D3671E"/>
<path d="M236.955 97.8149H163.408V164.042H236.955V97.8149Z" fill="#F1A34F"/>
<path opacity="0.4" d="M236.955 97.8149V143.241L163.408 164.042V97.8149H236.955Z" fill="#D86713"/>
<path d="M163.41 97.8145L177.963 115.24H250.537L236.957 97.8145H163.41Z" fill="#F1A34F"/>
<path d="M126.678 147.245H138.332L137.305 143.663L138.332 141.104H126.678V147.245Z" fill="#F1A34F"/>
<path opacity="0.4" d="M236.974 158.603H225.32L226.347 155.022L225.32 152.463H236.974V158.603Z" fill="#D86713"/>
<path d="M163.408 105.3L147.906 122.23H126.678V97.8135H163.408V105.3Z" fill="#C95C12"/>
<path d="M126.635 97.8135L110.1 115.239H146.896L163.409 97.8135H126.635Z" fill="#F1A34F"/>
<path d="M108.479 146.596L107.139 146.88C105.55 147.218 103.998 146.073 103.69 144.338L101.72 133.264C101.439 131.682 102.283 130.136 103.636 129.618C103.624 129.58 103.614 129.542 103.606 129.501L103.491 128.849C103.41 128.398 103.683 127.957 104.097 127.869L104.693 127.742C105.108 127.655 105.512 127.952 105.592 128.404L105.707 129.056C105.713 129.085 105.716 129.116 105.719 129.147C105.719 129.153 105.72 129.157 105.72 129.163C107.188 129.038 108.551 130.14 108.838 131.753L110.807 142.828C111.116 144.562 110.068 146.259 108.479 146.596Z" fill="#CADDFF"/>
<path d="M108.948 132.4L101.83 133.909L103.183 141.519L110.301 140.01L108.948 132.4Z" fill="#2B478B"/>
<path d="M105.717 129.147L103.634 129.618C103.622 129.58 103.612 129.542 103.605 129.501L103.489 128.849C103.408 128.398 103.681 127.957 104.095 127.869L104.691 127.742C105.106 127.655 105.51 127.952 105.59 128.404L105.705 129.056C105.711 129.085 105.714 129.116 105.717 129.147Z" fill="#4A75CB"/>
<path d="M144.564 126.353C144.564 126.353 143.683 127.708 142.874 127.727C142.066 127.746 140.836 127.099 140.836 127.099C140.836 127.099 140.093 125.292 140.597 124.585C140.597 124.585 141.102 124.343 141.63 124.771C141.72 124.845 141.812 124.937 141.903 125.057C142.031 125.225 142.175 125.32 142.328 125.371C142.904 125.562 143.589 125.112 143.845 125.547C143.995 125.8 144.157 125.99 144.291 126.123C144.449 126.277 144.564 126.353 144.564 126.353Z" fill="#F9DDBF"/>
<path d="M133.068 136.132C133.068 136.132 136.185 127.884 141.795 127.727C141.795 127.727 146.974 128.355 147.262 136.132H133.068Z" fill="#F9DDBF"/>
<path d="M140.257 127.979C140.257 127.979 142.506 128.525 143.2 128.204C143.2 128.204 143.304 127.177 142.357 127.321C141.709 127.42 141.287 127.08 141.039 126.942C140.687 126.746 140.164 127.549 140.257 127.979Z" fill="#F1A34F"/>
<path d="M142.214 126.431C142.071 126.548 141.629 124.77 141.629 124.77C141.72 124.844 141.812 124.937 141.902 125.056C142.03 125.224 142.174 125.32 142.327 125.37C142.328 125.422 142.354 126.316 142.214 126.431Z" fill="#E5C1A1"/>
<path d="M144.291 126.123C144.259 126.143 143.219 126.824 143.078 126.824C142.934 126.824 143.845 125.546 143.845 125.546C143.994 125.799 144.157 125.989 144.291 126.123Z" fill="#E5C1A1"/>
<path d="M136.112 133.827C136.055 133.774 138.318 130.188 138.942 130.162C139.565 130.136 140.965 130.947 141.979 131.052C142.994 131.157 143.976 130.843 144.168 131.497C144.36 132.152 144.887 134.472 144.564 134.844C144.24 135.215 137.357 134.989 136.112 133.827Z" fill="#E5C1A1"/>
<path d="M109.849 139.403C109.763 139.587 109.639 139.735 109.492 139.843C109.409 139.903 109.32 139.95 109.226 139.983C108.965 140.076 108.673 140.061 108.41 139.915L94.4345 132.162C93.9096 131.871 93.6984 131.164 93.9651 130.591C94.0985 130.304 94.3265 130.103 94.5877 130.01C94.8487 129.917 95.1414 129.933 95.4038 130.078L109.379 137.832C109.904 138.123 110.116 138.829 109.849 139.403Z" fill="#E57970"/>
<path d="M99.071 134.733L98.19 131.623L95.9395 130.375L97.2961 133.749L99.071 134.733Z" fill="#75AA12"/>
<path d="M102.485 136.626L100.71 135.642L99.3535 132.268L101.604 133.516L102.485 136.626Z" fill="#75AA12"/>
<path d="M105.894 138.518L104.118 137.533L102.762 134.159L105.013 135.408L105.894 138.518Z" fill="#75AA12"/>
<path d="M109.491 139.842C109.408 139.903 109.319 139.949 109.225 139.983C108.964 140.076 108.672 140.061 108.409 139.915L107.589 139.46L106.232 136.086L108.483 137.335L109.491 139.842Z" fill="#75AA12"/>
<path d="M93.9667 130.592C93.9667 130.592 93.6845 128.933 92.4502 128.44C92.4502 128.44 92.5953 128.631 92.0016 128.838C91.4078 129.044 91.5804 129.492 91.3691 129.694C91.3691 129.694 92.2255 130.937 93.9667 130.592Z" fill="#75AA12"/>
<path d="M93.7242 130.811L93.6912 130.792C93.5968 130.74 93.5587 130.612 93.6067 130.509L93.7805 130.135C93.8286 130.032 93.9454 129.99 94.0401 130.043L94.0728 130.061C94.1676 130.113 94.2056 130.241 94.1576 130.344L93.9835 130.718C93.9356 130.822 93.8187 130.863 93.7242 130.811Z" fill="#4A75CB"/>
<path d="M109.791 139.37C109.791 139.37 111.184 138.641 112.277 139.439C112.277 139.439 112.05 139.424 112.247 140.069C112.444 140.715 112.012 140.826 111.987 141.132C111.987 141.132 110.563 141.109 109.791 139.37Z" fill="#75AA12"/>
<path d="M109.771 139.711L109.804 139.729C109.899 139.782 110.016 139.74 110.064 139.637L110.238 139.263C110.286 139.159 110.248 139.032 110.153 138.979L110.12 138.961C110.026 138.909 109.909 138.95 109.861 139.054L109.687 139.428C109.639 139.531 109.677 139.659 109.771 139.711Z" fill="#4A75CB"/>
<path d="M127.94 139.522C127.777 139.626 127.598 139.677 127.421 139.679C127.322 139.68 127.224 139.667 127.128 139.639C126.863 139.561 126.625 139.375 126.478 139.096L118.628 124.279C118.333 123.722 118.508 123.004 119.018 122.682C119.273 122.521 119.564 122.489 119.83 122.566C120.095 122.643 120.333 122.83 120.48 123.109L128.33 137.926C128.625 138.482 128.45 139.2 127.94 139.522Z" fill="#F1A34F"/>
<path d="M121.229 129.193L122.042 126.061L120.778 123.675L120.232 127.311L121.229 129.193Z" fill="#F9DDBF"/>
<path d="M123.148 132.811L122.15 130.929L122.696 127.293L123.961 129.679L123.148 132.811Z" fill="#F9DDBF"/>
<path d="M125.066 136.427L124.068 134.545L124.614 130.908L125.879 133.295L125.066 136.427Z" fill="#F9DDBF"/>
<path d="M127.419 139.68C127.32 139.681 127.222 139.668 127.127 139.64C126.861 139.562 126.624 139.375 126.476 139.097L126.016 138.228L126.562 134.591L127.826 136.977L127.419 139.68Z" fill="#F9DDBF"/>
<path d="M119.018 122.683C119.018 122.683 119.609 121.123 118.82 119.976C118.82 119.976 118.846 120.223 118.245 120.042C117.644 119.862 117.566 120.34 117.287 120.384C117.287 120.384 117.386 121.936 119.018 122.683Z" fill="#F1A34F"/>
<path d="M118.708 122.725L118.69 122.69C118.637 122.59 118.668 122.46 118.76 122.402L119.093 122.192C119.185 122.134 119.303 122.168 119.356 122.269L119.375 122.303C119.428 122.404 119.396 122.533 119.304 122.591L118.972 122.801C118.88 122.86 118.761 122.825 118.708 122.725Z" fill="#D3671E"/>
<path d="M127.906 139.462C127.906 139.462 129.438 139.679 129.957 140.998C129.957 140.998 129.773 140.851 129.617 141.509C129.461 142.168 129.042 142.004 128.869 142.245C128.869 142.245 127.686 141.379 127.906 139.462Z" fill="#F1A34F"/>
<path d="M127.715 139.734L127.734 139.769C127.787 139.869 127.905 139.904 127.997 139.846L128.33 139.636C128.421 139.578 128.453 139.448 128.4 139.348L128.382 139.313C128.328 139.213 128.21 139.178 128.118 139.236L127.785 139.446C127.694 139.504 127.662 139.634 127.715 139.734Z" fill="#D3671E"/>
<path d="M102.532 143.68C102.365 143.583 102.231 143.445 102.135 143.283C102.082 143.191 102.04 143.094 102.011 142.991C101.93 142.704 101.949 142.385 102.086 142.101L109.41 126.965C109.685 126.397 110.336 126.178 110.856 126.478C111.117 126.628 111.297 126.88 111.378 127.167C111.459 127.454 111.44 127.773 111.302 128.057L103.979 143.192C103.703 143.761 103.053 143.98 102.532 143.68Z" fill="#4A75CB"/>
<path d="M106.982 131.983L109.844 131.071L111.024 128.634L107.913 130.061L106.982 131.983Z" fill="#699FF0"/>
<path d="M105.199 135.68L106.129 133.758L109.241 132.331L108.061 134.768L105.199 135.68Z" fill="#699FF0"/>
<path d="M103.41 139.373L104.341 137.449L107.452 136.022L106.272 138.461L103.41 139.373Z" fill="#699FF0"/>
<path d="M102.135 143.282C102.082 143.19 102.04 143.093 102.011 142.99C101.93 142.703 101.949 142.384 102.086 142.1L102.516 141.212L105.627 139.785L104.448 142.222L102.135 143.282Z" fill="#699FF0"/>
<path d="M110.857 126.478C110.857 126.478 112.38 126.196 112.851 124.857C112.851 124.857 112.674 125.012 112.494 124.36C112.315 123.709 111.902 123.89 111.72 123.656C111.72 123.656 110.569 124.571 110.857 126.478Z" fill="#699FF0"/>
<path d="M110.661 126.214L110.678 126.178C110.728 126.076 110.845 126.036 110.939 126.09L111.278 126.286C111.372 126.34 111.409 126.469 111.359 126.571L111.342 126.607C111.292 126.709 111.175 126.749 111.081 126.694L110.741 126.498C110.648 126.444 110.611 126.316 110.661 126.214Z" fill="#4A75CB"/>
<path d="M102.564 143.616C102.564 143.616 103.21 145.149 102.462 146.33C102.462 146.33 102.479 146.082 101.885 146.287C101.291 146.492 101.195 146.018 100.916 145.986C100.916 145.986 100.96 144.431 102.564 143.616Z" fill="#4A75CB"/>
<path d="M102.252 143.588L102.235 143.623C102.186 143.726 102.222 143.854 102.315 143.908L102.655 144.104C102.749 144.158 102.866 144.118 102.916 144.016L102.933 143.981C102.983 143.878 102.946 143.75 102.853 143.696L102.513 143.5C102.419 143.446 102.302 143.485 102.252 143.588Z" fill="#4A75CB"/>
<path d="M117.166 129.924C117.166 129.924 117.806 130.907 118.393 130.921C118.979 130.935 119.872 130.465 119.872 130.465C119.872 130.465 120.411 129.154 120.045 128.641C120.045 128.641 119.679 128.465 119.296 128.775C119.23 128.829 119.163 128.896 119.097 128.983C119.005 129.105 118.9 129.174 118.789 129.211C118.371 129.35 117.874 129.023 117.688 129.339C117.579 129.522 117.462 129.66 117.364 129.757C117.25 129.869 117.166 129.924 117.166 129.924Z" fill="#75AA12"/>
<path d="M125.51 137.02C125.51 137.02 123.248 131.035 119.176 130.921C119.176 130.921 115.418 131.377 115.209 137.02H125.51Z" fill="#75AA12"/>
<path d="M120.288 131.105C120.288 131.105 118.656 131.501 118.153 131.268C118.153 131.268 118.077 130.523 118.764 130.627C119.234 130.699 119.541 130.452 119.721 130.352C119.976 130.21 120.356 130.793 120.288 131.105Z" fill="#963333"/>
<path d="M118.867 129.98C118.971 130.066 119.292 128.775 119.292 128.775C119.226 128.829 119.159 128.896 119.093 128.983C119 129.105 118.896 129.174 118.785 129.211C118.784 129.249 118.766 129.897 118.867 129.98Z" fill="#963333"/>
<path d="M117.363 129.758C117.386 129.773 118.141 130.267 118.243 130.267C118.348 130.267 117.687 129.34 117.687 129.34C117.578 129.524 117.46 129.661 117.363 129.758Z" fill="#963333"/>
<path d="M123.304 135.349C123.346 135.31 121.703 132.707 121.251 132.688C120.798 132.669 119.782 133.259 119.046 133.334C118.31 133.411 117.597 133.182 117.457 133.657C117.318 134.133 116.935 135.817 117.17 136.086C117.405 136.356 122.401 136.191 123.304 135.349Z" fill="#963333"/>
<path d="M133.387 130.242L133.388 130.241C132.714 130.25 132.376 129.14 132.376 129.14L125.816 131.308C126.111 132.093 125.635 132.698 125.635 132.698C125.635 132.698 124.5 133.526 124.853 134.799L126.305 140.036C126.562 140.964 127.468 141.493 128.317 141.212L135.237 138.924C136.087 138.644 136.571 137.654 136.314 136.727L134.862 131.49C134.659 130.757 134.052 130.275 133.387 130.242Z" fill="#CADDFF"/>
<path d="M125.162 131.076L125.556 132.497C125.698 133.011 127.495 132.872 129.569 132.186C131.643 131.501 133.208 130.528 133.066 130.015L132.672 128.593L125.162 131.076Z" fill="#963333"/>
<path d="M132.671 128.594C132.814 129.107 131.248 130.08 129.174 130.765C127.1 131.451 125.304 131.59 125.161 131.076C125.019 130.563 126.584 129.59 128.658 128.905C130.732 128.219 132.529 128.08 132.671 128.594Z" fill="#75AA12"/>
<path d="M115.783 133.088L115.783 133.088C115.312 132.839 115.431 131.94 115.431 131.94L110.188 130.96C110.142 131.617 109.62 131.857 109.62 131.857C109.62 131.857 108.569 132.002 108.41 133.019L107.754 137.205C107.638 137.947 108.099 138.657 108.778 138.784L114.309 139.817C114.988 139.944 115.639 139.441 115.755 138.699L116.411 134.513C116.503 133.928 116.234 133.363 115.783 133.088Z" fill="#B7D2F9"/>
<path d="M109.805 130.551L109.627 131.687C109.563 132.098 110.855 132.682 112.512 132.992C114.17 133.302 115.566 133.22 115.63 132.809L115.808 131.673L109.805 130.551Z" fill="#C95C12"/>
<path d="M115.808 131.673C115.744 132.084 114.348 132.165 112.69 131.856C111.032 131.546 109.741 130.962 109.805 130.551C109.869 130.141 111.265 130.059 112.923 130.368C114.581 130.678 115.872 131.262 115.808 131.673Z" fill="#F1A34F"/>
<path d="M99.076 164.042H131.566V134.785H99.076V164.042Z" fill="#D3671E"/>
<path d="M115.32 164.042H147.811V134.785H115.32V164.042Z" fill="#F1A34F"/>
<path opacity="0.4" d="M115.318 134.785H147.893V154.829L115.318 164.041V134.785Z" fill="#D86713"/>
<path d="M115.318 134.785L121.747 142.483H153.808L147.809 134.785H115.318Z" fill="#F1A34F"/>
<path d="M99.0918 156.623H104.24L103.787 155.041L104.24 153.91H99.0918V156.623Z" fill="#F1A34F"/>
<path d="M115.318 138.092L108.469 145.571H99.0918V134.785H115.318V138.092Z" fill="#C95C12"/>
<path d="M99.0742 134.785L91.7695 142.483H108.025L115.319 134.785H99.0742Z" fill="#F1A34F"/>
<path d="M52.9009 158.25C52.9009 158.25 46.3893 122.011 35.2943 123.499C24.1992 124.987 52.9009 158.25 52.9009 158.25Z" fill="#A8D29F"/>
<path d="M48.0678 156.569C48.0678 156.569 37.8124 143.209 28.6964 147.181C19.5804 151.154 41.6107 150.163 48.0678 156.569Z" fill="#A8D29F"/>
<path d="M239.232 142.948C239.232 142.948 243.307 118.296 246.819 122.556C250.33 126.818 239.232 142.948 239.232 142.948Z" fill="#A8D29F"/>
<path d="M240.727 145.069C240.727 145.069 247.731 132.926 250.202 136.903C252.673 140.88 240.727 145.069 240.727 145.069Z" fill="#A8D29F"/>
<path d="M325.631 165H0.369289C0.166112 165 0 164.818 0 164.597V164.459C0 164.237 0.166236 164.056 0.369289 164.056H325.631C325.834 164.056 326 164.237 326 164.459V164.597C326 164.818 325.834 165 325.631 165Z" fill="#2E3552"/>
</svg>
