<svg width="846" height="936" viewBox="0 150 865 700" fill="none" xmlns="http://www.w3.org/2000/svg">
<mask id="mask0_839_3522" style="mask-type:luminance" maskUnits="userSpaceOnUse" x="0" y="0" width="906" height="862">
<path d="M905.699 0H0V861.878H905.699V0Z" fill="white"/>
</mask>
<g mask="url(#mask0_839_3522)">
<path d="M856.594 771.307H82.1061C58.2537 737.645 57.0871 689.337 83.356 657.346C119.555 613.264 193.025 601.241 215.046 549.37C230.03 514.076 214.273 473.772 193.192 441.421C172.113 409.07 145.139 378.988 135.033 342.157C124.598 304.126 134.144 262.331 157.114 229.663C180.083 196.994 215.574 173.21 254.461 159.957C289.944 147.865 330.447 144.451 364.7 159.411C454.019 198.423 456.69 334.465 546.336 372.793C609.868 399.956 688.384 363.854 752.231 390.341C800.89 410.526 827.909 468.689 810.848 516.522C798.182 552.031 764.666 584.062 772.806 620.754C777.271 640.884 793.699 656.501 810.451 669.507C827.203 682.513 845.536 694.694 856.575 712.385C867.611 730.074 872.75 757.635 856.594 771.307Z" fill="#003342"/>
<path d="M215.702 601.083C212.703 596.802 215.916 591.342 220.195 587.633C218.651 579.057 215.769 570.628 211.985 562.723C203.753 545.528 191.562 530.371 179.476 515.38C179.625 524.483 177.636 533.417 174.752 542.277C178.29 545.463 180.786 549.548 179.474 554.544C177.038 558.02 172.97 558.37 169.461 556.662C164.808 568.399 159.754 580.1 157.23 591.991C154.258 605.996 155.636 620.681 160.63 634.147C169.602 633.199 172.555 644.422 170.254 652.458C174.064 657.872 178.543 662.854 183.677 667.188C200.275 654.194 213.902 637.677 219.285 617.876C220.361 613.92 220.992 609.899 221.272 605.855C218.698 604.614 216.842 602.168 215.702 601.083Z" fill="#C0D32C"/>
<path d="M250.975 608.408C256.322 607.634 258.396 601.696 258.396 596.189C266.098 591.498 274.586 587.847 283.274 585.186C302.174 579.396 322.159 577.762 341.943 576.166C334.772 582.192 329.173 589.607 324.233 597.604C319.375 597.261 314.52 598.257 311.524 602.544C310.465 606.598 312.934 609.698 316.623 611.015C310.64 622.195 304.956 633.629 297.421 643.413C288.543 654.938 276.209 663.856 262.387 669.414C257.079 662.464 246.374 667.947 241.682 674.978C234.911 675.945 228.024 676.15 221.203 675.457C220.116 655.031 223.768 634.32 235.522 617.198C237.869 613.778 240.568 610.625 243.521 607.702C246.214 608.677 249.366 608.336 250.975 608.408Z" fill="#C0D32C"/>
<path d="M106.21 591.748C100.862 590.974 98.7883 585.036 98.7883 579.528C91.0862 574.838 82.598 571.187 73.9105 568.526C55.0104 562.735 35.0253 561.101 15.2412 559.505C22.4125 565.531 28.0116 572.947 32.9512 580.944C37.8094 580.6 42.6639 581.597 45.66 585.884C46.7197 589.938 44.2507 593.037 40.5609 594.354C46.544 605.535 52.2281 616.968 59.7635 626.752C68.6412 638.277 80.975 647.198 94.7978 652.753C100.105 645.803 110.811 651.287 115.502 658.318C122.273 659.285 129.16 659.49 135.984 658.797C137.07 638.37 133.419 617.66 121.664 600.537C119.317 597.118 116.618 593.965 113.665 591.041C110.968 592.019 107.818 591.677 106.21 591.748Z" fill="#C0D32C"/>
<path d="M180.094 718.816L178.312 718.512C184.075 687.847 184.994 656.614 181.047 625.685L182.844 625.476C186.814 656.578 185.889 687.98 180.094 718.816Z" fill="#C0D32C"/>
<path d="M187.574 740.056L185.854 739.516C198.976 701.449 222.798 667.529 254.74 641.426L255.921 642.733C224.227 668.634 200.594 702.285 187.574 740.056Z" fill="#C0D32C"/>
<path d="M163.044 720.404C150.945 683.669 132.324 649.554 107.698 619.014L109.135 617.965C133.891 648.666 152.612 682.961 164.775 719.89L163.044 720.404Z" fill="#C0D32C"/>
<path d="M221.037 771.306H147.438L119.87 696.071H248.602L221.037 771.306Z" fill="#A9A8F0"/>
<mask id="mask1_839_3522" style="mask-type:luminance" maskUnits="userSpaceOnUse" x="119" y="696" width="130" height="76">
<path d="M221.038 771.306H147.439L119.871 696.071H248.603L221.038 771.306Z" fill="white"/>
</mask>
<g mask="url(#mask1_839_3522)">
<path d="M129.14 729.875C124.983 729.875 120.794 728.772 117.269 726.705L117.984 725.604C122.172 728.062 127.362 729.065 132.214 728.362C135.926 727.826 140.447 725.881 142.01 722.044C143.152 719.241 142.489 716.066 141.847 712.996C141.67 712.15 141.494 711.305 141.355 710.469C140.291 704.145 141.409 697.946 144.499 693.016C147.897 687.598 153.801 683.894 159.907 683.348L160.034 684.634C154.351 685.144 148.845 688.61 145.666 693.68C142.737 698.35 141.683 704.24 142.693 710.264C142.831 711.086 143.005 711.914 143.179 712.745C143.858 715.996 144.559 719.359 143.277 722.511C141.503 726.864 136.506 729.048 132.419 729.641C131.338 729.798 130.238 729.875 129.14 729.875Z" fill="white"/>
<path d="M169.106 780.661C165.585 772.18 166.626 762.153 171.823 754.491C174.629 750.354 178.317 747.291 182.487 745.638C187.177 743.774 192.444 743.85 196.583 745.839C199.719 747.344 202.11 749.821 204.419 752.217C205.809 753.657 207.245 755.144 208.816 756.387C214.656 761.012 223.073 762.491 230.263 760.16C237.454 757.828 243.172 751.766 244.833 744.712L246.159 744.995C244.395 752.479 238.329 758.911 230.701 761.384C223.071 763.854 214.141 762.284 207.944 757.38C206.305 756.082 204.838 754.562 203.419 753.091C201.088 750.676 198.886 748.392 195.971 746.994C192.182 745.174 187.338 745.112 183.01 746.829C179.094 748.382 175.622 751.273 172.966 755.191C168.001 762.508 167.007 772.085 170.369 780.185L169.106 780.661Z" fill="white"/>
<path d="M143.115 771.762C141.804 761.201 143.974 751.177 149.216 743.534C155.172 734.855 165.347 729.494 175.271 729.818C179.945 729.984 184.452 731.342 188.81 732.655C191.217 733.381 193.706 734.133 196.182 734.667C199.301 735.338 209.896 737.029 215.272 730.497C218.381 726.724 218.41 721.549 217.888 717.871C217.577 715.673 217.028 713.458 216.499 711.317C215.941 709.067 215.367 706.744 215.051 704.4C214.526 700.471 214.637 694.931 218.154 690.849L219.205 691.668C215.995 695.395 215.908 700.561 216.399 704.236C216.705 706.513 217.27 708.804 217.819 711.022C218.357 713.192 218.913 715.437 219.234 717.7C219.79 721.623 219.739 727.169 216.338 731.297C212.378 736.105 204.732 737.835 195.878 735.931C193.347 735.384 190.829 734.624 188.395 733.89C184.124 732.604 179.706 731.271 175.219 731.114C165.781 730.802 156.054 735.939 150.352 744.244C145.28 751.634 143.188 761.354 144.46 771.614L143.115 771.762Z" fill="white"/>
<path d="M230.487 739.87C226.113 732.823 226.218 723.415 230.75 716.46C235.279 709.504 244.093 705.219 252.663 705.815L252.563 707.105C244.499 706.558 236.173 710.583 231.904 717.139C227.634 723.698 227.535 732.568 231.659 739.213L230.487 739.87Z" fill="white"/>
<path d="M131.183 745.071C130.513 745.071 129.845 745.038 129.184 744.972L129.325 743.687C135.259 744.276 141.785 741.999 146.772 737.6C151.063 733.815 154.367 728.543 156.592 721.933C156.827 721.235 157.048 720.53 157.269 719.823C157.938 717.691 158.63 715.482 159.733 713.45C160.74 711.594 163.008 708.325 166.881 707.308C170.581 706.336 174.204 707.751 177.705 709.113C181.038 710.409 184.185 711.637 187.367 710.983C191.503 710.134 194.138 706.2 194.917 702.68C195.794 698.721 195.032 694.625 194.291 690.664L195.627 690.438C196.354 694.33 197.178 698.741 196.247 702.946C195.377 706.876 192.383 711.276 187.654 712.247C184.053 712.988 180.567 711.625 177.193 710.311C173.746 708.97 170.487 707.705 167.243 708.556C163.868 709.444 161.847 712.376 160.941 714.045C159.898 715.97 159.224 718.118 158.574 720.195C158.351 720.909 158.126 721.621 157.889 722.327C155.59 729.154 152.163 734.611 147.698 738.55C142.976 742.709 136.933 745.071 131.183 745.071Z" fill="white"/>
</g>
<path d="M796.537 601.083C799.536 596.801 796.323 591.342 792.045 587.633C793.588 579.057 796.47 570.628 800.254 562.723C808.485 545.528 820.677 530.371 832.763 515.38C832.614 524.483 834.603 533.417 837.487 542.277C833.949 545.463 831.453 549.548 832.765 554.543C835.199 558.02 839.27 558.37 842.778 556.662C847.432 568.399 852.485 580.1 855.009 591.99C857.981 605.996 856.603 620.68 851.609 634.146C842.637 633.198 839.684 644.422 841.985 652.458C838.175 657.872 833.696 662.854 828.562 667.187C811.964 654.194 798.337 637.677 792.954 617.876C791.878 613.92 791.248 609.898 790.967 605.854C793.541 604.613 795.397 602.167 796.537 601.083Z" fill="#C0D32C"/>
<path d="M761.264 608.408C755.917 607.634 753.843 601.696 753.843 596.188C746.141 591.498 737.653 587.847 728.963 585.186C710.063 579.396 690.078 577.761 670.294 576.165C677.465 582.192 683.064 589.607 688.004 597.604C692.862 597.261 697.717 598.257 700.713 602.544C701.772 606.598 699.304 609.697 695.614 611.014C701.597 622.195 707.281 633.628 714.816 643.412C723.692 654.937 736.028 663.856 749.851 669.414C755.158 662.463 765.863 667.947 770.555 674.978C777.326 675.945 784.213 676.15 791.036 675.457C792.123 655.031 788.471 634.32 776.717 617.198C774.37 613.778 771.671 610.625 768.718 607.701C766.025 608.677 762.874 608.336 761.264 608.408Z" fill="#C0D32C"/>
<path d="M832.147 718.816L833.93 718.512C828.166 687.847 827.246 656.614 831.195 625.685L829.398 625.476C825.427 656.578 826.351 687.98 832.147 718.816Z" fill="#C0D32C"/>
<path d="M824.669 740.056L826.388 739.516C813.266 701.449 789.445 667.529 757.502 641.426L756.321 642.733C788.013 668.634 811.647 702.285 824.669 740.056Z" fill="#C0D32C"/>
<path d="M791.201 771.306H864.799L892.367 696.071H763.635L791.201 771.306Z" fill="#A9A8F0"/>
<mask id="mask2_839_3522" style="mask-type:luminance" maskUnits="userSpaceOnUse" x="763" y="696" width="130" height="76">
<path d="M791.201 771.306H864.799L892.367 696.071H763.635L791.201 771.306Z" fill="white"/>
</mask>
<g mask="url(#mask2_839_3522)">
<path d="M843.131 780.661C846.653 772.18 845.611 762.153 840.414 754.491C837.608 750.354 833.92 747.291 829.751 745.638C825.061 743.774 819.793 743.85 815.654 745.839C812.519 747.344 810.128 749.821 807.818 752.217C806.429 753.657 804.992 755.144 803.422 756.387C797.582 761.012 789.164 762.491 781.975 760.16C774.784 757.828 769.065 751.766 767.404 744.712L766.078 744.995C767.842 752.479 773.909 758.911 781.537 761.384C789.166 763.854 798.096 762.284 804.293 757.38C805.933 756.082 807.4 754.562 808.818 753.091C811.149 750.676 813.352 748.392 816.267 746.994C820.056 745.174 824.9 745.112 829.227 746.829C833.143 748.382 836.616 751.273 839.271 755.191C844.236 762.508 845.231 772.085 841.869 780.185L843.131 780.661Z" fill="white"/>
<path d="M869.126 771.762C870.437 761.2 868.267 751.177 863.025 743.534C857.069 734.854 846.895 729.494 836.97 729.818C832.297 729.983 827.792 731.341 823.432 732.655C821.024 733.381 818.535 734.132 816.059 734.667C812.94 735.337 802.345 737.028 796.969 730.497C793.86 726.723 793.831 721.549 794.353 717.87C794.665 715.672 795.214 713.457 795.742 711.317C796.3 709.067 796.875 706.743 797.19 704.399C797.715 700.471 797.605 694.93 794.087 690.849L793.036 691.667C796.248 695.394 796.333 700.56 795.842 704.235C795.536 706.512 794.969 708.803 794.422 711.022C793.884 713.192 793.33 715.436 793.007 717.7C792.451 721.623 792.502 727.168 795.904 731.297C799.863 736.104 807.509 737.835 816.363 735.93C818.894 735.384 821.412 734.623 823.846 733.889C828.118 732.603 832.536 731.271 837.024 731.114C846.462 730.802 856.189 735.939 861.889 744.244C866.961 751.633 869.053 761.354 867.782 771.613L869.126 771.762Z" fill="white"/>
<path d="M781.755 739.87C786.13 732.823 786.025 723.415 781.493 716.459C776.964 709.504 768.15 705.219 759.58 705.815L759.68 707.105C767.744 706.558 776.069 710.583 780.339 717.139C784.608 723.697 784.708 732.568 780.583 739.213L781.755 739.87Z" fill="white"/>
<path d="M881.058 745.07C881.728 745.07 882.397 745.037 883.06 744.972L882.918 743.686C876.984 744.276 870.458 741.999 865.471 737.599C861.18 733.814 857.876 728.543 855.651 721.932C855.416 721.234 855.195 720.529 854.974 719.822C854.305 717.69 853.613 715.482 852.51 713.45C851.503 711.593 849.235 708.325 845.363 707.308C841.662 706.336 838.039 707.751 834.538 709.113C831.205 710.409 828.058 711.636 824.876 710.983C820.74 710.133 818.105 706.2 817.326 702.68C816.449 698.72 817.212 694.625 817.953 690.663L816.616 690.438C815.889 694.33 815.063 698.741 815.996 702.945C816.866 706.875 819.86 711.276 824.589 712.246C828.191 712.988 831.676 711.624 835.05 710.311C838.497 708.97 841.756 707.704 845 708.556C848.375 709.444 850.396 712.376 851.302 714.044C852.346 715.97 853.019 718.118 853.671 720.195C853.894 720.908 854.119 721.62 854.356 722.327C856.655 729.153 860.082 734.61 864.547 738.549C869.266 742.709 875.309 745.07 881.058 745.07Z" fill="white"/>
</g>
<path d="M505.464 275.189C528.079 304.717 557.438 330.287 592.677 344.799C627.916 359.31 669.357 361.937 704.7 347.656C719.509 341.671 733.448 332.442 741.513 319.193C749.577 305.943 750.685 288.229 741.436 275.701C729.604 259.673 705.924 256.767 685.408 258.334C664.89 259.901 643.585 264.366 624.217 257.731C593.521 247.216 579.959 213.873 557.259 191.576C541.552 176.149 520.538 165.694 498.262 162.224C489.266 160.823 479.84 160.564 471.228 163.409C443.054 172.712 459.226 194.883 467.95 212.904C478.485 234.662 490.614 255.798 505.464 275.189Z" fill="#C0D32C"/>
<path d="M142.428 466.136C144.997 504.778 130.647 545.606 99.1483 570.111C91.9516 575.71 83.717 580.5 74.5459 581.945C65.3748 583.389 55.144 580.962 49.1845 574.172C38.9483 562.511 45.2411 544.431 55.144 532.513C65.0469 520.595 78.4114 510.492 83.2152 496.002C87.7021 482.467 83.7043 467.651 77.4242 454.778C71.1459 441.905 62.616 430.041 57.3358 416.769C52.0556 403.498 50.4054 387.884 57.8611 375.594C72.8993 350.8 100.282 359.992 112.428 379.419C128.826 405.649 140.392 435.52 142.428 466.136Z" fill="#003342"/>
<path d="M803.176 362.618C806.996 370.447 817.87 374.1 826.269 370.84C834.669 367.581 839.737 358.305 838.386 349.769C833.397 318.256 791.592 338.87 803.176 362.618Z" fill="#C0D32C"/>
<path d="M186.02 823.905C189.84 831.734 200.714 835.386 209.113 832.127C217.513 828.867 222.581 819.592 221.23 811.056C216.241 779.542 174.436 800.156 186.02 823.905Z" fill="#C0D32C"/>
<path d="M95.2555 196.996C106.053 204.684 123.068 202.678 131.636 192.768C140.204 182.858 139.037 166.656 129.188 157.889C101.119 132.9 65.4001 175.739 95.2555 196.996Z" fill="#003342"/>
<path d="M46.5628 846.437C56.6706 853.916 72.5979 851.964 80.6184 842.323C88.6389 832.683 87.5469 816.922 78.3276 808.394C52.0517 784.084 18.615 825.758 46.5628 846.437Z" fill="#003342"/>
</g>
<mask id="mask3_839_3522" style="mask-type:luminance" maskUnits="userSpaceOnUse" x="0" y="0" width="906" height="862">
<path d="M905.699 0H0V861.878H905.699V0Z" fill="white"/>
</mask>
<g mask="url(#mask3_839_3522)">
<path d="M542.962 607.43C543.554 607.949 544.025 608.469 544.418 608.921C545.57 610.241 546.029 611.167 546.029 611.167L510.449 667.896C509.734 667.42 509.056 666.922 508.439 666.365C507.919 665.886 507.426 665.4 506.984 664.874C504.16 661.596 502.829 657.326 503.416 652.996L505.568 637.149L505.696 636.327L505.89 634.783L506.009 633.978L506.221 632.443L506.332 631.611L507.723 621.373C523.167 616.602 523.163 599.187 523.163 599.187C533.773 600.518 539.79 604.438 542.962 607.43Z" fill="#161117"/>
<path d="M508.332 625.343L504.729 623.299C501.427 621.427 500.345 617.361 502.314 614.22C504.281 611.079 508.553 610.05 511.855 611.922L520.548 616.852L516.613 623.134L508.332 625.343Z" fill="#161117"/>
<path d="M542.962 607.43C543.555 607.949 544.026 608.47 544.419 608.921L508.439 666.365C507.919 665.886 507.426 665.4 506.984 664.874L542.962 607.43Z" fill="#CCCCCC"/>
<path d="M510.958 636.828L510.875 637.653L505.567 637.149L505.696 636.325L510.958 636.828Z" fill="white"/>
<path d="M511.205 634.464L511.122 635.29L505.889 634.781L506.008 633.975L511.205 634.464Z" fill="white"/>
<path d="M511.457 632.103L511.375 632.928L506.224 632.44L506.334 631.608L511.457 632.103Z" fill="white"/>
<path d="M512.444 622.68L511.824 623.672C510.846 625.233 508.787 625.868 507.033 625.149C506.91 625.099 506.821 624.994 506.796 624.868L506.162 621.613C505.914 620.343 506.454 619.097 507.564 618.357C508.68 617.619 510.096 617.571 511.261 618.231C512.877 619.147 513.406 621.143 512.444 622.68ZM507.544 624.518C508.885 624.964 510.399 624.456 511.134 623.28L511.754 622.289C512.489 621.113 512.084 619.588 510.848 618.886C509.957 618.381 508.874 618.418 508.022 618.983C507.175 619.547 506.756 620.5 506.95 621.472L507.544 624.518Z" fill="white"/>
</g>
<mask id="mask4_839_3522" style="mask-type:luminance" maskUnits="userSpaceOnUse" x="0" y="0" width="906" height="862">
<path d="M905.699 0H0V861.878H905.699V0Z" fill="white"/>
</mask>
<g mask="url(#mask4_839_3522)">
<path d="M571.816 654.38C571.021 654.256 570.327 654.068 569.738 653.895C568.012 653.397 567.095 652.863 567.095 652.863L564.021 586.862C564.895 586.884 565.748 586.946 566.585 587.088C567.297 587.215 567.988 587.363 568.662 587.572C572.915 588.832 576.495 591.702 578.507 595.625L585.869 609.988L586.236 610.743L586.966 612.134L587.332 612.868L588.042 614.259L588.43 615.013L593.185 624.29C583.045 636.358 593.113 650.899 593.113 650.899C583.485 655.343 576.194 655.219 571.816 654.38Z" fill="#1B141C"/>
<path d="M590.385 621.294L594.575 621.115C598.415 620.951 601.666 623.78 601.84 627.434C602.012 631.089 599.04 634.183 595.2 634.347L585.09 634.779L584.746 627.474L590.385 621.294Z" fill="#1B141C"/>
<path d="M571.815 654.38C571.02 654.256 570.326 654.068 569.738 653.895L566.584 587.09C567.296 587.217 567.988 587.365 568.662 587.574L571.815 654.38Z" fill="white"/>
<path d="M581.553 613.075L581.146 612.342L585.87 609.988L586.237 610.743L581.553 613.075Z" fill="white"/>
<path d="M582.711 615.18L582.304 614.446L586.968 612.135L587.336 612.869L582.711 615.18Z" fill="white"/>
<path d="M583.869 617.282L583.46 616.55L588.043 614.26L588.432 615.014L583.869 617.282Z" fill="white"/>
<path d="M588.489 625.669L588.434 624.518C588.349 622.701 589.702 621.094 591.583 620.777C591.715 620.755 591.849 620.796 591.943 620.887L594.354 623.275C595.296 624.206 595.566 625.528 595.064 626.727C594.559 627.927 593.405 628.71 592.048 628.767C590.17 628.846 588.574 627.457 588.489 625.669ZM591.519 621.57C590.143 621.897 589.172 623.116 589.237 624.483L589.291 625.635C589.357 627.001 590.577 628.063 592.014 628.001C593.05 627.956 593.934 627.36 594.318 626.443C594.7 625.528 594.499 624.512 593.776 623.804L591.519 621.57Z" fill="white"/>
</g>
<mask id="mask5_839_3522" style="mask-type:luminance" maskUnits="userSpaceOnUse" x="0" y="0" width="906" height="862">
<path d="M905.699 0H0V861.878H905.699V0Z" fill="white"/>
</mask>
<g mask="url(#mask5_839_3522)">
<path d="M523.707 633.039C523.448 627.469 524.934 621.602 528.949 617.542C533.159 613.286 539.698 611.559 545.808 612.149C551.918 612.738 557.633 615.417 562.605 618.849C566.094 621.255 569.574 624.163 573.863 624.548C578.015 624.92 581.904 622.831 585.871 621.603C594.533 618.923 604.526 620.523 611.79 625.753C619.054 630.982 623.387 639.699 623.03 648.361L527.636 649.282C525.787 643.993 523.966 638.608 523.707 633.039Z" fill="#F99746"/>
<path d="M480.04 659.03C476.448 655.726 475.628 650.22 477.491 645.809C479.355 641.398 483.563 638.107 488.276 636.53C492.99 634.953 498.159 634.951 503.077 635.791C508.481 636.711 513.861 638.624 519.304 637.945C529.589 636.661 536.471 626.741 546.442 624.024C554.028 621.957 562.437 624.529 568.476 629.363C574.515 634.196 578.453 641.02 581.187 648.065C564.775 656.769 547.116 664.81 528.422 666.584C512.732 668.071 491.378 669.457 480.04 659.03Z" fill="#376DFF"/>
<path d="M559.548 661.911C558.97 656.65 559.312 651.198 561.439 646.311C563.566 641.424 567.639 637.158 572.9 635.444C578.107 633.748 583.882 634.669 589.068 636.425C594.254 638.182 599.112 640.741 604.324 642.431C609.535 644.12 615.359 644.887 620.489 642.989C625.977 640.959 629.839 636.229 634.927 633.41C642.282 629.337 652.15 629.828 659.017 634.612C665.884 639.393 669.362 648.197 667.505 656.1C635.858 658.081 604.905 667.218 573.191 667.604C567.75 667.67 563.278 665.686 559.548 661.911Z" fill="#F06795"/>
<path d="M516.194 772.241H667.017V648.152H516.194V772.241Z" fill="#AD5B37"/>
<path d="M476.524 772.241H586.308V648.152H476.524V772.241Z" fill="#D67145"/>
<path d="M525.665 772.241H537.166V648.152H525.665V772.241Z" fill="#D69376"/>
<path d="M624.448 772.241H635.948V648.152H624.448V772.241Z" fill="#D98764"/>
<path d="M457.956 690.118H567.739L586.308 648.153H476.526L457.956 690.118Z" fill="#AD5B37"/>
<path d="M685.588 690.118H604.877L586.309 648.153H667.019L685.588 690.118Z" fill="#D67145"/>
</g>
<mask id="mask6_839_3522" style="mask-type:luminance" maskUnits="userSpaceOnUse" x="0" y="0" width="906" height="862">
<path d="M905.699 0H0V861.878H905.699V0Z" fill="white"/>
</mask>
<g mask="url(#mask6_839_3522)">
<path d="M752.555 439.157C752.309 441.794 753.023 444.506 754.546 446.721C755.204 447.678 756.187 448.622 757.388 448.565C758.551 448.512 759.421 447.543 760.02 446.593C761.306 444.561 762.491 441.827 762.639 439.461C763.542 440.907 765.561 441.517 767.269 441.089C768.978 440.662 770.343 439.354 771.084 437.828C771.825 436.303 772.003 434.579 771.936 432.9C771.771 428.78 769.814 424.169 767.057 420.99C769.32 422.104 772.307 422.954 774.22 421.352C775.305 420.442 775.683 418.943 775.506 417.577C775.328 416.211 774.671 414.947 773.964 413.746C770.331 407.573 765.503 401.779 759.25 397.952C760.506 396.953 760.772 395.107 760.138 393.671C759.504 392.235 758.131 391.187 756.629 390.564C755.128 389.942 753.666 389.918 752.048 389.675C753.566 387.658 753.267 384.73 751.757 382.708C750.246 380.686 747.743 379.496 745.185 379.01C740.448 378.109 735.588 379.02 732.065 382.165C731.594 380.324 732.199 378.41 732.351 376.521C732.501 374.632 731.951 372.398 730.125 371.643C728.871 371.124 727.415 371.482 726.154 371.984C719.651 374.571 715.076 380.444 712.315 386.615C710.986 385.476 709.488 384.461 707.769 383.988C706.05 383.516 704.077 383.657 702.639 384.667C701.041 385.79 700.349 387.796 700.391 389.687C700.432 391.578 701.409 392.878 702.072 394.658C700.179 393.914 698.261 393.16 696.232 392.878C694.203 392.595 692.022 392.828 690.325 393.922C688.615 395.026 687.572 396.906 687.226 398.845C686.88 400.783 687.169 402.779 687.7 404.68C690.158 413.497 698.141 420.699 707.524 422.564C716.351 424.319 724.89 420.968 733.512 423.478C742.136 425.988 753.354 430.611 752.555 439.157Z" fill="#1B141C"/>
<path d="M746.388 448.381H717.678V485.217H746.388V448.381Z" fill="#F78D7D"/>
<path d="M717.678 448.381V459.775C724.217 460.033 739.215 459.378 745.32 448.432L741.117 448.381H717.678Z" fill="#D2675D"/>
<path d="M598.341 699.512L597.235 754.167C597.131 759.002 600.779 763.298 605.94 764.094C611.592 764.964 616.914 761.312 617.828 755.934L627.208 700.818C617.584 700.456 607.963 699.984 598.341 699.512Z" fill="#F78D7D"/>
<path d="M692.735 594.237H771.332L774.462 492.727C774.744 483.591 769.508 475.462 761.606 472.912L733.327 463.782L702.738 473.08C694.699 475.522 689.328 483.722 689.612 492.974L692.735 594.237Z" fill="#F78D7D"/>
<path d="M701.225 654.551H762.841C771.262 654.551 777.492 644.147 776.186 632.465L771.121 587.151H692.947L687.882 632.465C686.574 644.147 692.803 654.551 701.225 654.551Z" fill="#D06C54"/>
<path d="M851.599 726.194L800.326 710.373C799.041 718.221 798.262 728.479 796.388 737.755L846.583 745.732C851.677 746.548 856.769 743.712 858.408 738.896C860.216 733.599 857.167 727.911 851.599 726.194Z" fill="#F78D7D"/>
<path d="M703.191 422.279C703.191 404.227 715.878 389.594 731.529 389.594C747.179 389.594 759.866 404.227 759.866 422.279C759.866 427.922 758.613 433.583 756.037 438.677C753.722 443.257 750.324 447.392 745.969 450.369C743.263 452.219 740.091 453.637 736.827 454.297C734.659 454.735 732.319 454.642 730.111 454.67C727.687 454.701 725.263 454.671 722.843 454.58C720.027 454.473 717.05 454.34 714.36 453.465C711.978 452.689 709.79 451.315 708.079 449.562C705.133 446.547 703.51 442.505 703.51 438.394V426.91C703.322 425.395 703.191 423.856 703.191 422.279Z" fill="#F78D7D"/>
<path d="M753.561 422.051C754.577 420.329 757.033 419.339 759.352 419.501C761.67 419.663 763.78 420.863 765.052 422.466C766.324 424.069 766.815 426.033 766.738 427.944C766.661 429.918 765.974 431.914 764.509 433.478C763.041 435.043 760.741 436.125 758.337 436.118C755.935 436.111 753.523 434.898 752.688 433.047L753.561 422.051Z" fill="#F78D7D"/>
<path d="M759.048 432.673C757.211 429.423 757.477 425.521 759.747 422.435" stroke="#D2675D" stroke-width="0.6854" stroke-miterlimit="10" stroke-linecap="round" stroke-linejoin="round"/>
<path d="M758.369 426.891C760.3 427.7 761.798 429.094 762.463 430.701" stroke="#D2675D" stroke-width="0.6854" stroke-miterlimit="10" stroke-linecap="round" stroke-linejoin="round"/>
<path d="M622.374 748.214C622.374 748.393 622.374 748.588 622.358 748.783C622.341 749.948 622.263 751.205 622.2 752.475C622.137 753.371 622.075 754.269 622.012 755.181C621.901 756.467 621.792 757.767 621.666 759.039C621.414 761.804 621.117 764.405 620.865 766.513C620.519 769.473 620.253 771.447 620.253 771.447L552.182 771.402C552.182 771.402 550.249 769.294 552.166 766.513C554.963 762.373 560.178 756.707 568.851 753.956C578.371 750.92 584.121 746.914 587.984 742.922C588.095 742.787 588.22 742.682 588.314 742.548C589.493 741.336 590.452 740.097 591.316 738.9C591.426 738.781 591.52 738.631 591.598 738.497C592.038 737.854 592.431 737.242 592.839 736.644C594.268 734.401 596.484 735.387 598.683 737.437C603.365 741.801 610.433 743.013 616.451 740.547C618.383 739.74 620.095 739.305 621.086 739.635C621.778 739.888 622.155 741.398 622.296 743.641C622.388 744.94 622.405 746.509 622.374 748.214Z" fill="#1B141C"/>
<path d="M620.864 766.503C621.072 769.454 621.047 771.453 621.047 771.453L552.165 771.398C552.165 771.398 550.237 769.292 552.166 766.503H620.864Z" fill="#D5D5D1"/>
<path d="M596.657 743.492L594.6 746.005C594.257 746.429 593.605 746.495 593.176 746.169L588.321 742.546C589.488 741.337 590.448 740.096 591.323 738.905C591.426 738.774 591.511 738.628 591.596 738.497L596.485 742.137C596.931 742.463 597.018 743.084 596.657 743.492Z" fill="#D5D5D1"/>
<path d="M622.375 748.214C622.375 748.393 622.375 748.588 622.359 748.782L620.819 748.962C620.254 749.036 619.736 748.648 619.689 748.124L619.281 744.954C619.203 744.416 619.611 743.937 620.161 743.878L622.297 743.639C622.389 744.94 622.406 746.509 622.375 748.214Z" fill="#D5D5D1"/>
<path d="M601.416 755.05C601.416 757.765 603.729 759.964 606.58 759.964C609.433 759.964 611.745 757.763 611.745 755.05C611.745 752.335 609.431 750.135 606.58 750.135C603.729 750.134 601.416 752.335 601.416 755.05Z" fill="#D5D5D1"/>
<path d="M831.605 757.657C830.359 758.036 829.042 758.405 827.627 758.753C818.947 760.872 813.746 765.242 810.944 768.437C810.839 768.553 810.752 768.668 810.683 768.768C809.221 770.739 810.962 772.195 810.962 772.195L835.593 772.212V770.318L840.979 769.465L850.836 768.768L831.605 757.657Z" fill="#1B141C"/>
<path d="M848.172 768.865L835.593 768.769V768.767H810.683C809.221 770.737 810.962 772.194 810.962 772.194L835.593 772.211V772.209C835.983 772.209 851.682 772.245 851.682 772.245L853.064 770.444L848.172 768.865Z" fill="#D5D5D1"/>
<path d="M832.53 763.82C831.719 758.547 830.15 754.476 828.288 751.226C828.188 751.083 828.125 750.937 828.022 750.809C827.194 749.358 826.268 748.096 825.353 746.934C825.27 746.796 825.15 746.664 825.042 746.55C824.544 745.946 824.058 745.397 823.595 744.836C821.821 742.828 823.515 741.149 826.259 739.824C832.106 737.005 835.581 731.022 835.057 724.808C834.874 722.807 834.992 721.124 835.637 720.338C836.111 719.797 837.734 719.942 840.013 720.535C841.337 720.868 842.904 721.357 844.59 721.933C844.77 721.99 844.962 722.053 845.15 722.129C846.306 722.517 847.53 722.991 848.775 723.457C849.648 723.801 850.519 724.146 851.407 724.494C852.651 725.006 853.91 725.523 855.135 726.044C857.806 727.157 860.299 728.262 862.317 729.166C865.152 730.427 867.03 731.301 867.03 731.301L853.057 770.443L848.436 768.952" fill="#1B141C"/>
<path d="M831.638 743.592L833.479 746.253C833.79 746.698 833.647 747.307 833.183 747.589L828.019 750.801C827.191 749.361 826.266 748.098 825.36 746.927C825.264 746.793 825.144 746.669 825.041 746.548L830.233 743.311C830.703 743.014 831.348 743.137 831.638 743.592Z" fill="#D5D5D1"/>
<path d="M844.593 721.931C844.772 721.988 844.964 722.052 845.153 722.128L844.837 723.572C844.73 724.107 844.176 724.448 843.642 724.322L840.356 723.672C839.794 723.571 839.45 723.048 839.568 722.535L840.015 720.532C841.34 720.866 842.906 721.356 844.593 721.931Z" fill="#D5D5D1"/>
<path d="M844.669 743.011C847.37 743.881 850.302 742.504 851.219 739.934C852.134 737.364 850.686 734.573 847.985 733.701C845.285 732.831 842.352 734.208 841.435 736.778C840.521 739.35 841.968 742.14 844.669 743.011Z" fill="#D5D5D1"/>
<path d="M596.371 551.025C599.603 546.742 602.657 542.35 605.642 537.916L566.651 522.256C563.081 518.171 559.328 512.724 557.109 508.792C555.843 506.549 553.609 502.862 552.303 502.153C550.126 500.973 550.083 505.337 550.813 506.765C551.983 509.047 553.646 513.708 553.908 514.949C554.171 516.19 551.483 516.952 546.634 512.858C541.785 508.764 528.607 500.338 529.982 504.12C531.356 507.902 542.594 516.521 542.594 516.521C536.747 512.651 520.439 505.644 523.678 510.346C526.917 515.051 539.41 521.408 539.41 521.408C534.635 518.996 519.325 513.928 522.952 518.09C526.578 522.252 537.417 526.114 537.417 526.114C528.429 523.487 523.462 525.231 524.587 526.424C525.712 527.617 530.405 529.759 536.609 531.381C539.792 532.214 548.023 535.089 555.285 537.694L590.466 558.381C592.486 555.967 594.48 553.532 596.371 551.025Z" fill="#F78D7D"/>
<path d="M696.777 415.27C700.893 417.059 705.724 417.309 710.019 415.954C714.313 414.597 718.03 411.651 720.206 407.875C722.403 409.692 725.354 410.178 728.23 409.76C731.107 409.345 733.781 408.121 736.355 406.832C736.639 409.347 738.976 411.224 741.495 412.029C744.015 412.832 746.833 412.453 749.257 411.417C748.629 413.013 749.246 414.718 750.471 415.963C751.693 417.207 753.365 417.955 755.021 418.607C753.242 423.042 753.438 428.756 756.166 432.73C757.273 432.249 758.006 431.852 758.546 430.813C759.086 429.773 759.363 428.632 759.613 427.5C760.337 424.233 760.885 420.932 761.256 417.614C761.834 412.436 759.385 407.394 757.129 402.648C754.874 397.904 751.444 393.552 746.794 390.806C742.196 388.091 736.677 387.09 731.268 386.983C725.457 386.867 719.487 387.777 714.466 390.565C709.537 393.3 705.84 397.642 702.563 402.088C699.569 406.146 697.895 410.421 696.777 415.27Z" fill="#1B141C"/>
<path d="M717.678 713.568C717.752 714.244 717.834 714.916 717.931 715.578C718.984 722.69 724.704 728.356 732.142 729.58L733.401 729.787C731.06 722.149 725.315 716.738 717.678 713.568Z" fill="#3E508F"/>
<path d="M813.483 711.852L766.318 698.105C766.318 698.105 783.722 658.189 778.154 626.39L774.475 602.043L691.013 596.834L688.801 611.103C688.801 611.103 640.54 609.233 610.945 621.006C611.483 629.573 605.144 637.79 596.847 640.378L595.259 718.943L625.518 722.618L636.483 659.727C636.483 659.727 686.608 657.695 696.876 656.7C707.145 655.705 726.464 656.535 726.464 656.535C726.464 656.535 715.012 689.501 717.68 713.57C725.319 716.74 731.063 722.151 733.403 729.791L803.564 741.335L813.483 711.852Z" fill="#376DFF"/>
<path d="M610.943 621.005C609.718 621.493 608.514 621.995 607.356 622.531C600.895 625.522 596.879 631.843 596.879 638.679L596.845 640.375C605.141 637.79 611.481 629.574 610.943 621.005Z" fill="#3E508F"/>
<path d="M775.67 605.828C760.864 607.651 745.952 609.205 731.034 608.632C716.117 608.06 701.707 605.245 688.393 598.816C687.993 562.932 688.105 521.102 687.705 485.218C692.051 478.154 698.91 474.228 707.049 471.575L709.069 469.501C714.258 476.522 723.301 480.802 732.316 480.509C741.331 480.214 750.042 475.353 754.716 468.012L758.763 470.156C764.084 472.974 768.667 476.848 772.223 481.478C774.953 485.032 776.384 489.34 776.456 493.742C776.775 512.602 777.607 574.254 775.67 605.828Z" fill="#F97046"/>
<path d="M621.865 719.999L633.08 654.905L708.751 651.004" stroke="#3E508F" stroke-miterlimit="10"/>
<path d="M810.098 708.04L797.57 743.272L806.645 745.219L817.653 710.244L810.098 708.04Z" fill="#3E508F"/>
<path d="M630.197 718.33L591.355 714.177L591.284 723.03L629.539 725.825L630.197 718.33Z" fill="#3E508F"/>
<path d="M810.053 715.463L760.256 700.354C760.256 700.354 773.292 663.788 773.87 647.443C774.205 637.947 773.196 630.471 772.622 627.212" stroke="#3E508F" stroke-miterlimit="10"/>
<path d="M759.345 614.237C759.345 614.237 757.825 630.283 776.908 626.708" stroke="#3E508F" stroke-miterlimit="10"/>
<path d="M730.047 615.87L729.842 620.827C729.641 625.699 728.511 630.492 726.507 634.979L724.841 638.706" stroke="#3E508F" stroke-miterlimit="10"/>
<path d="M723.571 615.87L722.428 625.414C721.426 628.682 723.246 632.132 726.601 633.319L730.554 634.717" stroke="#3E508F" stroke-miterlimit="10"/>
<path d="M709.948 631.97C705.108 629.158 700.164 626.605 695.06 624.261C695.036 624.251 695.029 624.246 695.011 624.237C694.676 624.122 694.27 623.98 693.73 623.791C691.669 623.067 689.618 622.303 687.564 621.562C687.07 621.382 686.568 621.201 686.072 621.022L664.822 648.456C664.761 648.535 664.723 648.625 664.663 648.706C660.214 651.012 655.104 653.155 651.3 654.425C648.714 655.289 644.439 656.857 643.479 658.004C641.877 659.915 646.514 660.648 648.148 660.169C650.762 659.403 655.983 658.538 657.345 658.481C658.707 658.424 659.093 661.134 653.968 665.159C648.846 669.182 637.796 680.545 642.037 679.82C646.277 679.094 657.223 669.63 657.223 669.63C652.182 674.652 642.145 689.254 647.661 686.878C653.177 684.503 661.919 673.474 661.919 673.474C658.597 677.694 650.782 691.639 655.785 688.805C660.786 685.972 666.612 676.139 666.612 676.139C662.395 684.382 663.464 689.443 664.911 688.549C666.358 687.652 669.38 683.47 672.088 677.751C673.513 674.74 678.067 666.952 682.063 660.248L710.254 632.154C710.149 632.096 710.051 632.03 709.948 631.97Z" fill="#F78D7D"/>
<path d="M709.071 469.5L700.851 473.211C693.459 476.548 687.016 481.524 682.061 487.72L635.42 546.065L593.595 531.913L578.165 554.201L635.347 587.515C643.075 592.016 653.097 590.475 658.941 583.888L694.531 543.766C694.531 543.766 701.78 494.942 701.78 494.411C701.78 493.88 709.071 469.5 709.071 469.5Z" fill="#F97046"/>
<path d="M733.94 490.681L718.552 573.089L671.728 632.52L696.738 651.004L757.387 590.085L775.548 517.753L764.89 478.289L753.947 476.402L733.94 490.681Z" fill="#F97046"/>
<path d="M597.825 531.055L579.87 558.382L573.82 554.589L590.896 527.249L597.825 531.055Z" fill="#B55133"/>
<path d="M696.818 600.677L718.553 573.09L730.028 511.629" stroke="#B55133" stroke-miterlimit="10"/>
<path d="M739.188 608.365L751.044 596.458C755.199 592.284 758.127 587.142 759.53 581.55L770.674 537.171" stroke="#B55133" stroke-miterlimit="10"/>
<path d="M636.146 548.242C638.16 554.892 641.216 561.255 645.179 567.059" stroke="#B55133" stroke-miterlimit="10"/>
<path d="M688.426 549.756C692.179 542.415 695.083 534.679 697.066 526.736" stroke="#B55133" stroke-miterlimit="10"/>
<path d="M675.677 623.901L705.306 648.002L697.953 653.398L669.358 631.72L675.677 623.901Z" fill="#B55133"/>
<path d="M759.674 470.673C753.624 479.602 743.01 485.445 732.051 485.807C731.688 485.825 731.308 485.825 730.946 485.825C730.33 485.825 729.714 485.807 729.098 485.773C728.935 485.773 728.772 485.756 728.627 485.739C728.174 485.704 727.721 485.67 727.269 485.618C727.051 485.601 726.852 485.583 726.653 485.549C726.145 485.48 725.656 485.411 725.167 485.325C725.131 485.325 725.095 485.308 725.059 485.308C724.588 485.221 724.135 485.135 723.682 485.032C723.392 484.98 723.102 484.911 722.813 484.825C720.947 484.377 719.099 483.773 717.324 483.032C716.944 482.877 716.563 482.705 716.183 482.515C715.802 482.343 715.44 482.17 715.078 481.981C714.607 481.757 714.154 481.515 713.719 481.274C713.629 481.222 713.556 481.171 713.466 481.119C712.596 480.636 711.763 480.102 710.948 479.55C710.459 479.223 709.97 478.878 709.517 478.516C709.136 478.223 708.774 477.947 708.412 477.654C708.303 477.568 708.213 477.482 708.122 477.396C707.742 477.085 707.397 476.775 707.035 476.447C707.017 476.43 707.017 476.43 706.999 476.413C706.365 475.844 705.767 475.241 705.188 474.62C704.934 474.362 704.68 474.086 704.445 473.81C704.173 473.483 703.883 473.155 703.612 472.81C703.449 472.604 703.286 472.397 703.104 472.19L709.064 469.501C714.263 476.516 723.302 480.809 732.322 480.516C741.343 480.223 750.038 475.362 754.711 468.018L758.769 470.156C759.077 470.311 759.366 470.483 759.674 470.673Z" fill="#B55133"/>
<path d="M588.528 531.044L576.56 550.207L571.772 547.392L586.349 530.168L588.528 531.044Z" fill="#D2675D"/>
<path d="M674.667 635.745L692.832 649.516L688.937 653.398L672.97 637.936L674.667 635.745Z" fill="#D2675D"/>
<path d="M816.083 715.234L808.396 739.663L816.083 740.884L818.925 716.112L816.083 715.234Z" fill="#D2675D"/>
<path d="M708.861 425.016C708.861 426.462 709.816 427.634 710.992 427.634C712.169 427.634 713.122 426.462 713.122 425.016C713.122 423.57 712.167 422.397 710.992 422.397C709.816 422.399 708.861 423.571 708.861 425.016Z" fill="#1B141C"/>
<path d="M728.025 425.016C728.025 426.462 728.98 427.634 730.156 427.634C731.331 427.634 732.286 426.462 732.286 425.016C732.286 423.57 731.331 422.397 730.156 422.397C728.98 422.397 728.025 423.571 728.025 425.016Z" fill="#1B141C"/>
<path d="M720.024 423.165C720.403 424.96 720.104 426.878 719.195 428.49C718.649 429.457 717.901 430.305 717.311 431.248C716.72 432.189 716.285 433.285 716.463 434.37C716.755 436.142 718.523 437.291 720.131 438.226" stroke="#1B141C" stroke-width="0.75" stroke-miterlimit="10" stroke-linecap="round" stroke-linejoin="round"/>
<path d="M707.255 420.884C706.851 420.825 706.438 420.737 706.105 420.518C705.77 420.299 705.529 419.92 705.598 419.543C705.701 418.972 706.398 418.698 707 418.558C709.275 418.031 711.664 417.967 713.977 418.308C714.588 418.398 715.604 418.708 715.441 419.486C715.309 420.115 714.37 420.261 713.82 420.387C711.706 420.872 709.422 421.197 707.255 420.884Z" fill="#1B141C"/>
<path d="M733.947 420.884C734.351 420.825 734.764 420.737 735.098 420.518C735.433 420.299 735.674 419.92 735.605 419.543C735.501 418.972 734.804 418.698 734.203 418.558C731.928 418.031 729.538 417.967 727.225 418.308C726.615 418.398 725.599 418.708 725.762 419.486C725.894 420.115 726.832 420.261 727.383 420.387C729.497 420.872 731.781 421.197 733.947 420.884Z" fill="#1B141C"/>
<path d="M713.49 440.583C718.135 441.178 722.864 441.173 727.509 440.566C728.103 443.095 726.965 445.996 724.659 447.373C722.353 448.75 719.227 448.693 716.901 447.347C714.573 445.999 713.601 443.172 713.49 440.583Z" fill="white"/>
</g>
<mask id="mask7_839_3522" style="mask-type:luminance" maskUnits="userSpaceOnUse" x="16" y="74" width="906" height="862">
<path d="M922 74.1216H16.3018V936H922V74.1216Z" fill="white"/>
</mask>
<g mask="url(#mask7_839_3522)">
<path d="M418.96 478.258C418.96 478.258 395.903 481.723 373.175 478.258L367.125 493.144L396.067 505.709C396.067 505.709 417.594 502.485 417.768 502.155C417.942 501.824 427.758 489.919 427.758 489.673C427.758 489.426 418.96 478.258 418.96 478.258Z" fill="#3E508F"/>
<path d="M436.733 489.583L395.156 473.802L350.454 489.583" stroke="#333333" stroke-width="0.75" stroke-miterlimit="10"/>
<path d="M395.154 474.284V466.699L398.283 463.722C399.321 462.735 399.904 461.394 399.904 459.997V458.918C399.904 456.009 397.424 453.649 394.367 453.649C391.309 453.649 388.829 456.009 388.829 458.918V460.788" stroke="#333333" stroke-width="0.75" stroke-miterlimit="10"/>
<path d="M311.232 578.044C313.792 570.719 317.846 563.917 320.246 556.542C323.463 546.655 323.588 536.142 324.698 525.846C325.808 515.55 328.14 504.905 334.92 496.812C343.964 486.018 359.158 481.816 373.177 478.258C373.177 496.897 396.069 496.17 396.069 496.17C396.069 496.17 418.961 496.895 418.961 478.258C432.98 481.814 448.172 486.017 457.216 496.812C463.998 504.905 466.328 515.55 467.438 525.846C468.548 536.142 468.673 546.655 471.89 556.542C474.291 563.918 478.346 570.719 480.904 578.044C483.463 585.372 484.387 593.746 480.594 600.571L483.136 608.352L459.656 613.807L457.564 605.683C452.436 604.539 448.938 597.432 447.583 592.588C446.228 587.744 446.667 582.637 446.88 577.627C447.511 562.955 446.096 548.058 441.031 534.187C438.965 554.155 438.934 574.64 443.676 594.191C444.629 598.121 445.727 602.127 445.243 606.133C444.761 610.139 442.29 614.224 438.246 615.429V623.49H396.065H353.885V615.429C349.84 614.226 347.37 610.141 346.888 606.133C346.406 602.125 347.502 598.119 348.455 594.191C353.197 574.642 353.166 554.155 351.099 534.187C346.035 548.058 344.62 562.955 345.25 577.627C345.466 582.637 345.902 587.744 344.547 592.588C343.192 597.432 338.923 604.078 333.795 605.223L332.474 613.807L308.995 608.352L312.241 599.264C308.452 592.44 308.673 585.372 311.232 578.044Z" fill="#376DFF"/>
<path d="M423.968 485.549C420.957 492.033 414.992 497.144 408.018 499.639C401.044 502.133 393.159 502.059 386.113 499.761C379.067 497.463 372.872 493.007 368.325 487.391" stroke="#3E508F" stroke-miterlimit="10"/>
<path d="M435.756 615.085H356.993" stroke="#3E508F" stroke-miterlimit="10"/>
<path d="M332.272 604.271L314.647 600.229" stroke="#3E508F" stroke-miterlimit="10"/>
<path d="M478.657 600.212L460.043 604.998" stroke="#3E508F" stroke-miterlimit="10"/>
<path d="M374.97 621.51V615.391" stroke="#3E508F" stroke-miterlimit="10"/>
<path d="M368.817 621.51V615.391" stroke="#3E508F" stroke-miterlimit="10"/>
<path d="M362.66 621.51V615.39" stroke="#3E508F" stroke-miterlimit="10"/>
<path d="M478.367 607.424L476.436 600.975" stroke="#3E508F" stroke-miterlimit="10"/>
<path d="M473.705 608.405L471.775 601.955" stroke="#3E508F" stroke-miterlimit="10"/>
<path d="M315.183 607.273L317.112 600.824" stroke="#3E508F" stroke-miterlimit="10"/>
<path d="M320.146 608.301L322.075 601.852" stroke="#3E508F" stroke-miterlimit="10"/>
<path d="M184.129 660.975L137.952 734.707C135.364 738.832 136.284 744.248 140.322 747.359C144.749 750.771 151.243 750.123 154.829 745.91L214.178 676.175C204.297 670.875 193.657 666.862 184.129 660.975Z" fill="#BB5030"/>
<path d="M236.309 532.271L210.371 562.638L200.699 629.094L173.644 671.345L204.861 690.489L234.731 655.537C235.269 647.373 238.162 638.189 245.714 635.294L266.588 548.889L236.309 532.271Z" fill="#E68B40"/>
<path d="M189.38 768.767C189.311 768.667 189.224 768.551 189.119 768.436C186.319 765.242 181.116 760.87 172.436 758.752C171.021 758.404 169.704 758.036 168.456 757.657V757.655C166.73 752.586 166.243 748.273 166.402 744.576C166.424 744.407 166.413 744.248 166.448 744.09C166.515 742.44 166.759 740.918 167.036 739.491C167.047 739.332 167.092 739.163 167.136 739.015C167.303 738.263 167.48 737.567 167.636 736.869C168.292 734.321 165.991 733.528 162.915 733.497C156.362 733.433 150.462 729.532 148.04 723.741C147.274 721.87 146.385 720.41 145.441 719.978C144.763 719.693 143.374 720.507 141.608 721.996C140.575 722.853 139.398 723.951 138.154 725.178C138.019 725.306 137.876 725.442 137.742 725.59C136.887 726.424 136.009 727.366 135.11 728.307C134.489 728.982 133.866 729.66 133.234 730.348C132.357 731.33 131.468 732.325 130.613 733.307C128.736 735.433 127.013 737.472 125.626 739.132C123.671 741.457 122.393 743.033 122.393 743.033L153.13 772.244L156.581 768.96L159.086 769.465L164.471 770.318V772.213L189.103 772.195C189.103 772.195 190.842 770.737 189.38 768.767Z" fill="#1B141C"/>
<path d="M159.848 739.142L159.435 742.305C159.363 742.836 159.776 743.32 160.321 743.379L166.445 744.082C166.518 742.443 166.76 740.919 167.028 739.488C167.052 739.326 167.101 739.164 167.137 739.014L160.975 738.299C160.419 738.23 159.895 738.611 159.848 739.142Z" fill="#D5D5D1"/>
<path d="M138.155 725.177C138.021 725.305 137.878 725.441 137.744 725.589L138.699 726.753C139.043 727.187 139.699 727.26 140.121 726.922L142.765 724.955C143.22 724.628 143.287 724.014 142.943 723.602L141.61 721.995C140.577 722.852 139.4 723.95 138.155 725.177Z" fill="#D5D5D1"/>
<path d="M147.895 744.112C145.878 746.03 142.608 746.03 140.592 744.112C138.576 742.193 138.574 739.08 140.592 737.161C142.61 735.241 145.879 735.241 147.895 737.161C149.911 739.08 149.911 742.191 147.895 744.112Z" fill="#D5D5D1"/>
<path d="M189.379 768.767H164.469V768.768H156.779L125.629 739.125C123.289 741.073 121.821 742.502 121.821 742.502L153.129 772.244C153.129 772.244 164.081 772.209 164.471 772.207V772.209L189.102 772.192C189.102 772.192 190.841 770.737 189.379 768.767Z" fill="#D5D5D1"/>
<path d="M172.703 666.519L209.521 689.095L204.018 695.597L168.906 674.646L172.703 666.519Z" fill="#BD7334"/>
<path d="M178.59 673.751L207.067 632.908L214.796 575.031" stroke="#BD7334" stroke-miterlimit="10"/>
<path d="M234.732 655.536L239.609 649.829C241.987 647.045 243.664 643.778 244.509 640.283L245.713 635.294C238.163 638.188 235.27 647.372 234.732 655.536Z" fill="#BD7334"/>
<path d="M259.665 316.78C265.613 311.202 266.459 301.394 261.545 294.968C256.631 288.542 246.565 286.291 239.156 289.962C234.423 292.307 230.974 296.604 226.152 298.778C216.416 303.164 203.482 297.957 194.779 304.001C190.535 306.946 188.372 312.223 188.928 317.194C189.352 320.997 191.212 324.691 190.727 328.486C189.957 334.508 183.749 338.441 180.941 343.887C178.411 348.796 178.942 355.006 182.271 359.461C185.472 363.742 191.058 366.609 192.408 371.704C193.987 377.672 188.975 383.255 187.444 389.235C186.289 393.748 187.234 398.709 189.982 402.548C192.728 406.386 197.233 409.043 202.07 409.672L252.166 398.795C256.792 399.476 260.853 395.117 261.436 390.695C262.021 386.275 260.174 381.933 258.498 377.774C256.823 373.614 255.267 369.093 256.43 364.778C257.75 359.878 262.318 356.277 263.898 351.445C265.758 345.755 263.148 339.717 260.797 334.192C258.446 328.671 255.203 320.964 259.665 316.78Z" fill="#1B141C"/>
<path d="M240.458 364.644H211.747V401.481H240.458V364.644Z" fill="#BB5030"/>
<path d="M240.459 364.644V376.038C233.92 376.297 218.922 375.642 212.817 364.696L217.02 364.644H240.459Z" fill="#893119"/>
<path d="M254.944 338.542C254.944 320.491 242.257 305.858 226.606 305.858C210.956 305.858 198.269 320.491 198.269 338.542C198.269 344.186 199.522 349.846 202.098 354.94C204.413 359.52 207.811 363.655 212.166 366.632C214.872 368.482 218.044 369.901 221.308 370.561C223.478 371 225.816 370.906 228.024 370.935C230.448 370.966 232.872 370.937 235.292 370.845C238.108 370.738 241.085 370.606 243.774 369.73C246.156 368.954 248.345 367.58 250.056 365.827C253.002 362.813 254.625 358.77 254.625 354.659V343.176C254.813 341.66 254.944 340.121 254.944 338.542Z" fill="#BB5030"/>
<path d="M290.65 483.191L291.449 484.094C294.905 487.967 300.649 489.599 305.969 487.779L306.54 487.584C302.631 483.208 296.186 481.927 290.65 483.191Z" fill="#893119"/>
<path d="M388.63 452.848C387.885 448.735 383.777 445.977 379.455 446.687L309.182 458.224C306.927 455.034 304.686 451.833 302.4 448.663C298.469 443.135 294.441 437.679 290.461 432.185C286.487 426.688 282.409 421.267 278.386 415.806C274.312 410.38 270.215 404.972 266.051 399.613C266.007 399.558 265.907 399.432 265.864 399.377C259.769 391.811 248.384 390.379 240.432 396.178C232.482 401.978 230.976 412.812 237.07 420.379C241.332 425.669 245.661 430.911 250.014 436.136C254.418 441.325 258.767 446.553 263.219 451.707C267.666 456.864 272.064 462.056 276.56 467.179C281.018 472.328 285.539 477.434 290.07 482.533L290.651 483.191C296.187 481.928 302.63 483.21 306.541 487.583L383.491 461.246C387.054 460.027 389.294 456.52 388.63 452.848Z" fill="#BB5030"/>
<path d="M291.438 674.117C281.153 675.737 270.875 677.782 260.611 679.916L277.356 749.407C278.479 754.091 283.076 757.402 288.255 756.995C293.932 756.55 298.156 751.81 297.689 746.408L291.438 674.117Z" fill="#BB5030"/>
<path d="M256.126 508.674H197.578L184.937 418.222C183.381 407.099 187.657 396.62 195.649 393.212L225.447 380.504L257.751 393.438C265.901 396.701 270.306 407.264 268.734 418.513L256.126 508.674Z" fill="#BB5030"/>
<path d="M256.944 546.558H196.764C188.538 546.558 184.448 535.364 187.642 523.934L197.586 488.347H256.123L266.068 523.934C269.26 535.364 265.168 546.558 256.944 546.558Z" fill="#BB5030"/>
<path d="M272.198 749.003C272.198 749.183 272.198 749.377 272.214 749.572C272.231 750.737 272.309 751.994 272.372 753.265C272.435 754.161 272.497 755.059 272.56 755.971C272.671 757.257 272.78 758.556 272.906 759.829C273.158 762.594 273.455 765.195 273.707 767.303C274.053 770.262 274.319 772.236 274.319 772.236L342.39 772.191C342.39 772.191 344.323 770.083 342.406 767.303C339.609 763.162 334.394 757.495 325.723 754.745C316.202 751.71 310.453 747.704 306.588 743.711C306.477 743.577 306.352 743.472 306.258 743.337C305.08 742.127 304.12 740.886 303.258 739.69C303.148 739.571 303.053 739.421 302.976 739.287C302.535 738.644 302.142 738.03 301.735 737.434C300.306 735.191 298.09 736.177 295.889 738.226C291.207 742.593 284.139 743.803 278.121 741.336C276.189 740.529 274.477 740.095 273.486 740.424C272.794 740.678 272.417 742.188 272.276 744.43C272.182 745.73 272.167 747.299 272.198 749.003Z" fill="#1B141C"/>
<path d="M273.707 767.292C273.499 770.244 273.524 772.243 273.524 772.243L342.406 772.188C342.406 772.188 344.332 770.082 342.405 767.292H273.707Z" fill="#D5D5D1"/>
<path d="M297.914 744.282L299.972 746.796C300.314 747.22 300.966 747.285 301.396 746.959L306.25 743.336C305.084 742.128 304.123 740.887 303.249 739.695C303.145 739.564 303.06 739.418 302.975 739.287L298.086 742.927C297.639 743.253 297.554 743.874 297.914 744.282Z" fill="#D5D5D1"/>
<path d="M272.198 749.003C272.198 749.183 272.198 749.377 272.214 749.572L273.754 749.751C274.319 749.826 274.837 749.438 274.884 748.914L275.292 745.744C275.37 745.206 274.962 744.727 274.412 744.666L272.276 744.427C272.182 745.73 272.167 747.299 272.198 749.003Z" fill="#D5D5D1"/>
<path d="M293.152 755.838C293.152 758.553 290.839 760.753 287.988 760.753C285.135 760.753 282.823 758.551 282.823 755.838C282.823 753.123 285.136 750.924 287.988 750.924C290.841 750.924 293.152 753.125 293.152 755.838Z" fill="#D5D5D1"/>
<path d="M256.857 324.29C255.335 327.981 251.26 330.572 247.095 330.499C244.4 330.453 241.846 329.406 239.391 328.341C236.939 327.276 234.435 326.157 231.749 325.945C229.061 325.733 226.098 326.631 224.679 328.815C223.116 331.223 223.62 334.762 221.295 336.527C219.426 337.946 216.698 337.436 214.439 336.694C212.181 335.951 209.71 335.045 207.484 335.874C205.535 336.601 204.323 338.535 203.921 340.492C203.518 342.448 203.783 344.463 203.957 346.449C204.131 348.435 204.203 350.496 203.448 352.355C202.656 354.304 200.944 355.897 198.878 356.607C196.811 357.317 194.425 357.129 192.509 356.109C188.227 353.83 188.377 347.463 189.382 342.893C190.388 338.323 192.931 334.205 195.603 330.287C199.1 325.156 199.613 317.952 204.368 313.837C209.123 309.723 215.724 305.079 222.047 303.991C228.429 302.895 235.212 304.067 240.782 307.228C246.347 310.388 254.841 318.426 256.857 324.29Z" fill="#1B141C"/>
<path d="M382.745 460.512C384.718 462.623 388.918 463.689 391.541 463.43C394.164 463.172 396.943 461.782 398.631 459.855C400.51 460.396 402.511 459.695 404.33 458.993C405.096 458.697 405.873 458.395 406.531 457.918C407.188 457.44 407.724 456.759 407.829 455.978C407.935 455.197 407.554 454.098 406.786 453.803C407.364 452.829 407.409 451.584 406.902 450.574C406.395 449.564 405.33 448.857 404.17 448.671C404.739 447.93 404.868 446.903 404.497 446.056C404.123 445.21 403.392 444.343 402.439 444.209C402.745 442.776 401.756 441.28 400.376 440.639C398.995 439.997 397.338 440.092 395.889 440.573C394.438 441.054 392.914 441.766 391.646 442.59C389.969 440.197 386.504 439.101 383.656 440.061C380.807 441.021 378.842 443.95 379.122 446.813L363.95 449.873L367.778 464.851L382.745 460.512Z" fill="#BB5030"/>
<path d="M290.439 633.962L289.514 621.477C289.305 618.776 288.452 616.156 287.018 613.817L283.078 607.392C282.37 616.689 284.06 626.514 290.439 633.962Z" fill="#BD7334"/>
<path d="M259.708 495.41L266.396 522.501C268.537 531.173 268.6 540.192 266.584 548.891H247.193L283.073 607.396C282.367 616.69 284.057 626.517 290.435 633.966L294.268 685.62L261.139 693.015L246.791 631.261L192.732 555.245C185.497 544.803 183.474 531.854 187.203 519.86L194.806 495.414C194.806 495.41 233.878 506.716 259.708 495.41Z" fill="#F99746"/>
<path d="M297.318 678.761L254.947 689.324L258.054 697.133L298.27 687.608L297.318 678.761Z" fill="#BD7334"/>
<path d="M267.151 690.488L252.269 629.841L198.055 545.6C194.818 540.57 193.826 534.519 195.296 528.79L199.926 510.75" stroke="#BD7334" stroke-miterlimit="10"/>
<path d="M193.997 509.142C193.997 509.142 207.592 516.18 212.689 501.342" stroke="#3E508F" stroke-miterlimit="10"/>
<path d="M262.409 510.732C258.658 510.309 254.587 508.084 252.272 501.342" stroke="#BD7334" stroke-miterlimit="10"/>
<path d="M264.784 548.889H248.302C247.811 548.889 247.507 549.396 247.753 549.799L258.834 567.866" stroke="#BD7334" stroke-miterlimit="10"/>
<path d="M239.823 501.342L238.631 508.692C237.694 514.464 238.093 520.359 239.799 525.968L242.244 534.014" stroke="#BD7334" stroke-miterlimit="10"/>
<path d="M231.598 504.859L231.023 514.512C230.935 516.003 231.134 517.497 231.612 518.92C233.161 523.532 238.486 525.937 243.221 524.158" stroke="#BD7334" stroke-miterlimit="10"/>
<path d="M270.043 412.438C269.284 409.393 269.098 406.243 268.462 403.171C268.456 403.14 268.449 403.109 268.442 403.08C267.594 399.109 264.685 395.814 260.903 393.956L249.634 388.418C245.1 396.02 236.076 400.998 226.89 400.967C217.705 400.936 208.72 395.894 204.244 388.261L193.401 393.796C184.975 398.097 180.207 406.91 181.459 415.931C184.527 438.05 187.329 459.974 189.786 482.294C196.736 484.986 203.742 486.272 211.238 486.643C224.36 487.289 237.527 487.101 250.623 486.082C253.511 485.858 256.932 485.986 259.722 485.217C262.236 484.522 261.707 482.18 261.946 480.049C262.595 474.256 263.903 468.528 265.835 463C266.995 459.683 268.38 456.436 269.982 453.29C273.126 447.115 277.202 440.944 277.128 434.082C277.044 426.482 271.885 419.828 270.043 412.438Z" fill="#F06795"/>
<path d="M249.635 388.416L257.163 391.955C263.713 395.034 269.323 399.659 273.458 405.388L306.429 451.064L278.032 472.036L262.407 456.165L252.674 411.813L249.635 388.416Z" fill="#F06795"/>
<path d="M305.003 446.036L274.378 472.035L278.032 477.058L309.943 452.284L305.003 446.036Z" fill="#B54E71"/>
<path d="M265.679 460.31C271.959 452.781 276.027 443.009 274.232 433.549C272.787 425.93 267.74 419.249 266.374 411.616" stroke="#B54E71" stroke-miterlimit="10"/>
<path d="M228.807 433.942L165.132 438.75L173.669 541.133L237.344 536.325L228.807 433.942Z" fill="#AD5B37"/>
<path d="M169.071 438.453L61.4824 446.577L70.0193 548.961L177.608 540.838L169.071 438.453Z" fill="#D67145"/>
<path d="M91.1539 542.9L78.1988 543.877C75.6556 544.069 73.4294 542.262 73.2265 539.842C73.0255 537.42 74.9238 535.302 77.467 535.11L90.4221 534.133C92.9653 533.941 95.1915 535.748 95.3944 538.168C95.5973 540.59 93.6989 542.707 91.1539 542.9Z" fill="#AD5B37"/>
<path d="M92.9012 532.024L74.6731 533.4C73.5863 533.483 72.6335 532.709 72.5484 531.674C72.4614 530.64 73.2747 529.733 74.3616 529.652L92.5897 528.277C93.6765 528.194 94.6293 528.966 94.7144 530.002C94.7996 531.037 93.9881 531.942 92.9012 532.024Z" fill="#AD5B37"/>
<path d="M121.552 442.04L109.007 442.987L117.544 545.37L130.088 544.423L121.552 442.04Z" fill="#AD5B37"/>
<path d="M204.686 435.762L192.142 436.71L200.678 539.093L213.223 538.146L204.686 435.762Z" fill="#D67145"/>
<path d="M119.262 415.878L119.027 415.951C112.754 417.9 108.74 423.964 109.845 430.353L109.99 431.183C116.59 427.993 119.041 422.282 119.262 415.878Z" fill="#893119"/>
<path d="M169.127 430.509C165.816 421.657 162.087 412.818 159.594 403.721C159.52 403.744 159.446 403.765 159.371 403.785C152.973 405.676 146.559 407.512 140.178 409.46C133.783 411.365 127.409 413.34 121.037 415.326L119.26 415.877C119.037 422.281 116.586 427.992 109.985 431.183L123.846 511.348C124.462 514.924 127.715 517.662 131.651 517.675C136.035 517.689 139.602 514.319 139.616 510.148L139.87 440.929C142.721 440.368 145.57 439.805 148.416 439.222C154.979 437.924 161.509 436.516 168.057 435.164C168.934 434.983 169.805 434.79 170.68 434.606C170.158 433.242 169.638 431.877 169.127 430.509Z" fill="#BB5030"/>
<path d="M123.65 501.095C123.65 501.095 123.36 524.893 122.688 530.48C122.016 536.066 122.328 540.607 123.009 541.927C123.692 543.247 126.954 539.819 127.681 531.629C127.681 531.629 127.425 541.743 129.91 546.109C132.396 550.475 133.102 536.325 132.579 531.626C132.579 531.626 133.993 543.935 137.094 548.172C140.195 552.409 139.507 536.785 138.047 530.718C138.047 530.718 141.915 542.784 144.831 545.194C147.747 547.603 144.717 534.031 142.712 528.696C140.706 523.361 142.309 521.442 143.331 522.08C144.353 522.719 147.956 525.663 149.598 527.394C150.626 528.475 154.549 529.937 154.237 527.766C154.051 526.465 151.515 523.39 149.939 521.595C145.738 516.809 139.598 507.933 138.565 503.365C137.533 498.797 137.319 496.932 137.319 496.932L123.65 501.095Z" fill="#BB5030"/>
<path d="M204.245 388.26L136.379 409.672L145.612 440.721L186.562 432.643L202.549 407.986L204.245 388.26Z" fill="#F06795"/>
<path d="M138.71 406.553L148.657 441.536L144.291 442.983L133.474 407.763L138.71 406.553Z" fill="#B54E71"/>
<path d="M254.891 391.001C248.714 399.912 238.045 405.601 227.195 405.566C216.29 405.515 205.603 399.705 199.517 390.673L204.244 388.26C208.718 395.896 217.703 400.929 226.887 400.964C236.071 400.998 245.091 396.017 249.638 388.415L254.891 391.001Z" fill="#B54E71"/>
<path d="M183.479 432.46C189.169 428.933 193.933 424.062 197.221 418.408" stroke="#B54E71" stroke-miterlimit="10"/>
<path d="M264.396 695.629L292.716 688.922L293.069 693.011L265.907 701.904L264.396 695.629Z" fill="#893119"/>
<path d="M173.756 677.539L199.795 693.076L196.487 696.963C196.487 696.963 169.135 684.92 169.168 684.869C169.199 684.815 173.756 677.539 173.756 677.539Z" fill="#893119"/>
<path d="M306.743 454.771L282.296 473.749L284.361 476.092L309.181 458.225L306.743 454.771Z" fill="#893119"/>
<path d="M134.52 411.165L143.446 440.226L141.001 440.71L129.044 412.844L134.52 411.165Z" fill="#893119"/>
<path d="M249.509 345.863C250.686 345.863 251.639 344.691 251.639 343.245C251.639 341.799 250.686 340.626 249.509 340.626C248.333 340.626 247.379 341.799 247.379 343.245C247.379 344.691 248.333 345.863 249.509 345.863Z" fill="#1B141C"/>
<path d="M230.345 345.863C231.522 345.863 232.475 344.691 232.475 343.245C232.475 341.799 231.522 340.626 230.345 340.626C229.169 340.626 228.215 341.799 228.215 343.245C228.215 344.691 229.169 345.863 230.345 345.863Z" fill="#1B141C"/>
<path d="M253.245 339.11C253.649 339.052 254.062 338.965 254.395 338.745C254.729 338.526 254.971 338.147 254.902 337.769C254.799 337.199 254.102 336.925 253.499 336.785C251.224 336.257 248.834 336.194 246.521 336.535C245.911 336.625 244.894 336.935 245.058 337.712C245.192 338.343 246.128 338.488 246.679 338.614C248.794 339.1 251.079 339.426 253.245 339.11Z" fill="#1B141C"/>
<path d="M226.553 339.11C226.149 339.052 225.736 338.965 225.403 338.745C225.068 338.526 224.827 338.147 224.896 337.769C224.999 337.199 225.696 336.925 226.298 336.785C228.573 336.257 230.962 336.194 233.275 336.535C233.886 336.625 234.902 336.935 234.739 337.712C234.606 338.343 233.668 338.488 233.118 338.614C231.004 339.1 228.719 339.426 226.553 339.11Z" fill="#1B141C"/>
<path d="M238.993 341.759C240.045 344.674 241.098 347.587 242.15 350.502C242.666 351.929 243.181 353.501 242.617 354.911C242.179 356.008 241.127 356.814 239.962 357.2C238.797 357.588 237.529 357.599 236.305 357.466" stroke="#1B141C" stroke-width="0.75" stroke-miterlimit="10" stroke-linecap="round" stroke-linejoin="round"/>
<path d="M230.804 360.209C233.61 363.015 237.877 364.427 241.908 363.882" stroke="#1B141C" stroke-width="0.75" stroke-miterlimit="10" stroke-linecap="round" stroke-linejoin="round"/>
</g>
</svg>
