<svg width="418" height="59" viewBox="0 0 418 59" fill="none" xmlns="http://www.w3.org/2000/svg">
<path d="M144.149 15.943C144.149 11.5588 142.422 7.70602 139.499 4.78321C136.709 1.99327 132.723 0.133301 128.472 0.133301H91.6714V58.4565H102.034V31.6199H112.397C116.117 31.6199 119.438 33.6127 121.165 36.6683L121.431 37.1998L127.011 48.0938L132.325 58.4565H144.016L138.702 48.0938L130.332 31.487C131.926 31.3542 133.388 30.9556 134.849 30.2913C140.429 27.7671 144.149 22.3201 144.149 15.943ZM130.598 20.7258C129.934 21.1243 129.136 21.2572 128.472 21.2572L102.034 21.39V10.6289H128.472C130.332 10.6289 131.528 11.4259 132.192 12.0902C132.723 12.6216 133.786 13.9502 133.786 15.943C133.786 18.0687 132.591 19.9286 130.598 20.7258Z" fill="#003342"/>
<path d="M303.432 0.133301H290.279L274.336 20.9915L258.261 0.133301H245.108L267.694 29.4942L245.241 58.4565H258.394L274.336 37.9969L290.279 58.4565H303.299H303.432L280.979 29.4942L303.564 0.133301H303.432Z" fill="#003342"/>
<path d="M336.646 0.133301H326.283V58.4565H336.646V0.133301Z" fill="#003342"/>
<path d="M416.904 16.2082V15.8097C416.904 7.17414 409.863 0 401.094 0H377.446C368.811 0 361.77 7.04129 361.77 15.8097V16.2082C361.77 19.5296 362.832 22.5853 364.559 25.1095C365.091 26.0395 365.755 26.8366 366.552 27.6338C369.342 30.4237 373.195 32.0179 377.446 32.0179H398.437C402.822 32.0179 406.542 35.605 406.542 39.9892C406.542 44.3734 402.822 47.9605 398.437 47.9605H380.236C375.852 47.9605 372.265 44.3734 372.265 39.9892H361.902C361.902 50.219 370.139 58.4561 380.369 58.4561H398.57C408.8 58.4561 417.037 50.219 417.037 39.9892C417.037 35.605 415.443 31.4865 412.919 28.298C412.653 28.0323 412.52 27.7666 412.254 27.5009C408.933 23.781 404.15 21.5224 398.703 21.5224H377.712C374.789 21.5224 372.398 19.1311 372.398 16.2082V15.8097C372.398 12.8869 374.789 10.4955 377.712 10.4955H401.36C404.283 10.4955 406.674 12.8869 406.674 15.8097V16.2082H416.904Z" fill="#003342"/>
<path d="M10.4955 29.228C10.4955 39.5907 18.8654 47.9605 29.228 47.9605H47.9605V36.8007H29.228V26.4381H58.4561V58.4561H29.228C13.1526 58.4561 0 45.4363 0 29.228C0 13.0198 13.0198 0 29.228 0H58.4561V10.3626H29.228C18.8654 10.4955 10.4955 18.8654 10.4955 29.228Z" fill="#003342"/>
<path d="M192.249 9.43362L209.52 0.133789L175.908 58.457H163.951L192.249 9.43362Z" fill="#C0D32C"/>
<path d="M203.66 22.8516L197.283 33.8785L209.639 58.4566H221.861L203.66 22.8516Z" fill="#003342"/>
</svg>
