<svg width="300" height="300" viewBox="0 0 300 300" fill="none" xmlns="http://www.w3.org/2000/svg">
<path opacity="0.18" d="M101.374 196.008C119.176 203.832 139.312 203.712 158.758 203.454C168.958 203.322 179.512 203.118 188.8 198.894C201.712 193.014 210.1 180.396 221.428 171.852C234.436 162.03 251.086 157.794 263.698 147.474C287.026 128.394 290.47 94.014 271.396 70.686C269.482 68.346 267.376 66.168 265.102 64.176C258.43 58.338 250.468 54.216 242.572 50.16L202.93 29.76C193.642 24.984 184.114 20.13 173.746 18.828C164.998 17.736 156.148 19.248 147.604 21.204C123.244 26.712 99.0704 36.21 81.1964 53.586C65.8244 68.562 55.7864 88.6799 38.9624 102.018C34.6604 105.42 29.8904 108.42 26.7584 112.914C15.4784 129.108 26.9024 149.79 41.5544 158.094C61.8464 169.578 80.1045 186.666 101.374 196.008Z" fill="#054B5F"/>
<path d="M154.379 281.493C229.345 281.493 290.117 273.985 290.117 264.723C290.117 255.461 229.345 247.953 154.379 247.953C79.4126 247.953 18.6406 255.461 18.6406 264.723C18.6406 273.985 79.4126 281.493 154.379 281.493Z" fill="#054B5F"/>
<path d="M154.379 281.493C229.345 281.493 290.117 273.985 290.117 264.723C290.117 255.461 229.345 247.953 154.379 247.953C79.4126 247.953 18.6406 255.461 18.6406 264.723C18.6406 273.985 79.4126 281.493 154.379 281.493Z" fill="url(#paint0_linear_6046_15921)"/>
<path d="M80.0173 100.893C74.9292 97.4432 68.6653 96.2013 62.6473 97.4492C61.5553 97.6172 60.5293 98.0612 59.6533 98.7332C57.6133 100.455 57.9313 103.659 57.3913 106.293C56.7313 109.539 54.5533 112.317 53.7673 115.521C53.3113 117.933 53.2873 120.405 53.6893 122.823C54.8353 132.363 57.1212 141.735 60.4992 150.729L51.0312 275.475C51.0312 275.475 60.7153 277.041 80.3593 278.607L82.4413 159.813L80.0233 100.899L80.0173 100.893Z" fill="#EEA886"/>
<path d="M69.25 173.643L81.79 224.367V151.209L76.216 134.631L69.25 173.643Z" fill="url(#paint1_linear_6046_15921)"/>
<path d="M233.266 101.961C238.366 98.5352 244.631 97.3232 250.637 98.5892C251.729 98.7632 252.76 99.2012 253.642 99.8732C255.676 101.595 255.365 104.799 255.899 107.439C256.57 110.685 258.748 113.463 259.528 116.667C259.984 119.073 260.009 121.545 259.595 123.957C258.455 133.497 256.174 142.869 252.796 151.863L262.223 274.869C262.223 274.869 251.674 276.645 232.834 278.427L230.812 160.941L233.266 101.967V101.961Z" fill="#EEA886"/>
<path d="M245.643 170.019L241.197 192.873L231.717 213.495L230.883 168.627L245.643 170.019Z" fill="url(#paint2_linear_6046_15921)"/>
<path d="M239.005 60.0874H71.1669C67.1872 60.0874 63.9609 63.3136 63.9609 67.2934V167.691C63.9609 171.671 67.1872 174.897 71.1669 174.897H239.005C242.985 174.897 246.211 171.671 246.211 167.691V67.2934C246.211 63.3136 242.985 60.0874 239.005 60.0874Z" fill="#054B5F"/>
<path d="M239.005 60.0874H71.1669C67.1872 60.0874 63.9609 63.3136 63.9609 67.2934V167.691C63.9609 171.671 67.1872 174.897 71.1669 174.897H239.005C242.985 174.897 246.211 171.671 246.211 167.691V67.2934C246.211 63.3136 242.985 60.0874 239.005 60.0874Z" fill="url(#paint3_linear_6046_15921)"/>
<path d="M239.005 55.4854H71.1669C67.1872 55.4854 63.9609 58.7116 63.9609 62.6913V163.089C63.9609 167.069 67.1872 170.295 71.1669 170.295H239.005C242.985 170.295 246.211 167.069 246.211 163.089V62.6913C246.211 58.7116 242.985 55.4854 239.005 55.4854Z" fill="#054B5F"/>
<path d="M80.1016 103.347C82.0376 101.199 84.0976 98.8414 86.2816 96.2734L100.256 79.9174C102.452 77.5174 104.468 74.9554 106.28 72.2554H119.474C119.102 75.8014 118.934 79.3714 118.964 82.9414V103.869H120.83C122.966 103.851 125.09 103.677 127.202 103.353V115.077C125.108 114.819 123.002 114.687 120.89 114.687H118.964V117.909C118.904 120.561 119.072 123.207 119.474 125.829H106.22C106.58 123.159 106.748 120.471 106.73 117.783V114.675H88.4776C84.2836 114.675 82.4536 114.735 80.1016 114.927V103.359V103.347ZM106.784 96.5314C106.784 93.6274 106.916 90.0934 107.174 87.2614C105.884 89.0614 104.918 90.3514 103.178 92.5354L93.7516 103.995H106.76L106.784 96.5314Z" fill="white"/>
<path d="M137.846 120.993C135.794 118.971 134.192 116.535 133.148 113.847C131.45 109.119 130.598 104.127 130.634 99.0995C130.634 92.3315 132.242 85.3234 134.696 81.2614C138.62 74.6914 145.316 71.0854 153.428 71.0854C159.68 71.0854 165.152 73.2094 169.076 77.1094C171.134 79.1314 172.736 81.5674 173.774 84.2554C175.478 89.0014 176.33 94.0174 176.288 99.0634C176.288 105.831 174.68 112.911 172.232 116.967C168.368 123.405 161.6 127.011 153.422 127.011C147.11 126.975 141.776 124.911 137.84 120.987L137.846 120.993ZM143.876 98.6134C143.876 110.139 147.158 116.061 153.536 116.061C159.914 116.061 163.064 110.265 163.064 98.8475C163.028 87.7655 159.656 81.9574 153.434 81.9574C147.212 81.9574 143.846 88.0954 143.846 98.5894L143.882 98.6134H143.876Z" fill="white"/>
<path d="M179.641 103.347C181.577 101.199 183.637 98.8414 185.821 96.2734L199.801 79.9174C201.985 77.5174 203.983 74.9554 205.783 72.2554H218.989C218.611 75.8014 218.437 79.3714 218.473 82.9414V103.869H220.339C222.475 103.851 224.599 103.677 226.711 103.353V115.077C224.617 114.819 222.511 114.687 220.399 114.687H218.473V117.909C218.413 120.561 218.587 123.207 218.989 125.829H205.723C206.083 123.159 206.257 120.471 206.239 117.783V114.675H188.017C183.835 114.675 181.993 114.735 179.641 114.927V103.359V103.347ZM206.323 96.5314C206.323 93.6274 206.455 90.0934 206.713 87.2614C205.423 89.0614 204.457 90.3514 202.717 92.5354L193.291 103.995H206.299L206.323 96.5314Z" fill="white"/>
<path d="M80.7169 144.688C81.8029 144.508 82.9009 144.424 83.9989 144.43C85.3309 144.328 86.6569 144.718 87.7189 145.534C88.4929 146.242 88.9189 147.256 88.8829 148.306C88.9369 149.35 88.5649 150.37 87.8569 151.138C86.7589 152.158 85.2949 152.68 83.8009 152.59C83.3389 152.608 82.8829 152.566 82.4329 152.47V157.78H80.7109V144.688H80.7169ZM82.4389 151.072C82.9009 151.18 83.3749 151.228 83.8489 151.21C85.9129 151.21 87.1729 150.214 87.1729 148.378C87.1729 146.542 85.9309 145.798 84.0469 145.798C83.5069 145.786 82.9669 145.828 82.4389 145.936V151.078V151.072Z" fill="white"/>
<path d="M91.6489 153.609L90.2689 157.773H88.5469L93.0409 144.525H95.0869L99.6049 157.773H97.7809L96.3709 153.609H91.6429H91.6489ZM95.9569 152.277L94.6549 148.461C94.3609 147.603 94.1629 146.811 93.9649 146.043C93.7729 146.829 93.5509 147.633 93.3049 148.437L92.0029 152.277H95.9569Z" fill="white"/>
<path d="M111.348 157.185C110.04 157.659 108.666 157.905 107.274 157.917C103.854 158.247 100.812 155.739 100.482 152.319C100.446 151.959 100.446 151.593 100.47 151.227C100.47 147.273 103.2 144.393 107.64 144.393C108.774 144.363 109.896 144.573 110.946 145.005L110.532 146.397C109.608 145.995 108.612 145.797 107.604 145.827C104.376 145.827 102.276 147.831 102.276 151.149C102.276 154.467 104.298 156.501 107.388 156.501C108.168 156.543 108.942 156.417 109.668 156.141V152.199H106.974V150.819H111.336V157.179L111.348 157.185Z" fill="white"/>
<path d="M120.814 151.563H115.648V156.339H121.39V157.779H113.938V144.531H121.102V145.971H115.671V150.153H120.838L120.82 151.563H120.814Z" fill="white"/>
<path d="M127.803 157.779V144.531H129.669L133.911 151.227C134.793 152.613 135.591 154.047 136.293 155.529C136.137 153.807 136.095 152.157 136.095 150.087V144.543H137.715V157.791H135.993L131.781 151.065C130.869 149.643 130.041 148.161 129.303 146.643H129.243C129.345 148.323 129.381 149.913 129.381 152.109V157.773H127.797L127.803 157.779Z" fill="white"/>
<path d="M152.059 151.011C152.059 155.571 149.287 157.995 145.903 157.995C142.519 157.995 139.945 155.283 139.945 151.269C139.945 147.057 142.525 144.315 146.101 144.315C149.677 144.315 152.059 147.087 152.059 151.011ZM141.781 151.227C141.781 154.059 143.311 156.597 146.005 156.597C148.699 156.597 150.247 154.101 150.247 151.089C150.247 148.461 148.867 145.707 146.023 145.707C143.179 145.707 141.781 148.323 141.781 151.227Z" fill="white"/>
<path d="M156.299 145.983H152.273V144.531H162.089V145.983H158.033V157.779H156.311V145.983H156.299Z" fill="white"/>
<path d="M167.723 144.531H174.857V145.971H169.433V150.369H174.443V151.779H169.433V157.803H167.711V144.531H167.723Z" fill="white"/>
<path d="M188.618 151.011C188.618 155.571 185.846 157.995 182.474 157.995C179.102 157.995 176.516 155.283 176.516 151.269C176.516 147.057 179.096 144.315 182.66 144.315C186.224 144.315 188.618 147.087 188.618 151.011ZM178.34 151.227C178.34 154.059 179.87 156.597 182.564 156.597C185.258 156.597 186.806 154.101 186.806 151.089C186.806 148.461 185.426 145.707 182.582 145.707C179.738 145.707 178.34 148.323 178.34 151.227Z" fill="white"/>
<path d="M192.554 144.531V152.373C192.554 155.343 193.874 156.597 195.644 156.597C197.606 156.597 198.866 155.295 198.866 152.373V144.531H200.588V152.277C200.588 156.351 198.446 158.019 195.578 158.019C192.866 158.019 190.82 156.471 190.82 152.355V144.555L192.56 144.531H192.554Z" fill="white"/>
<path d="M203.561 157.779V144.531H205.427L209.669 151.227C210.551 152.607 211.349 154.047 212.045 155.529H212.087C211.931 153.807 211.889 152.157 211.889 150.087V144.543H213.497V157.791H211.775L207.575 151.065C206.657 149.643 205.829 148.167 205.097 146.643H205.037C205.133 148.323 205.175 149.913 205.175 152.109V157.773H203.555L203.561 157.779Z" fill="white"/>
<path d="M216.477 144.705C217.683 144.525 218.901 144.429 220.119 144.429C222.573 144.429 224.331 145.005 225.483 146.079C226.773 147.315 227.457 149.055 227.349 150.837C227.445 152.745 226.761 154.611 225.447 156.003C224.205 157.245 222.159 157.917 219.585 157.917C218.547 157.911 217.509 157.839 216.477 157.713V144.705ZM218.199 156.417C218.769 156.501 219.345 156.537 219.921 156.519C223.581 156.519 225.561 154.473 225.561 150.897C225.561 147.771 223.839 145.785 220.197 145.785C219.525 145.773 218.853 145.833 218.193 145.965V156.417H218.199Z" fill="white"/>
<path d="M71.6793 99.3875C72.4173 99.7535 73.0473 100.311 73.5033 100.995C73.8813 101.805 74.0673 102.687 74.0433 103.575L74.3013 109.125C74.4153 110.037 74.3073 110.967 73.9833 111.831C73.6233 112.707 72.6873 113.199 71.7633 113.001C72.4293 115.185 72.1713 117.549 71.0493 119.535C70.7733 119.949 70.5513 120.399 70.4013 120.879C70.3293 121.455 70.3593 122.037 70.4853 122.601C70.8813 125.421 70.0413 128.271 68.1873 130.425C67.9053 130.773 67.5633 131.067 67.1733 131.283C66.6633 131.499 66.1113 131.619 65.5533 131.625L63.0213 131.841C62.5713 131.991 62.0853 131.745 61.9353 131.289C61.9113 131.217 61.8993 131.145 61.8933 131.073C59.9733 124.977 59.0973 118.599 59.3133 112.209C59.4153 108.993 59.7993 105.789 60.4653 102.639C60.8673 100.797 61.6593 97.9895 63.6333 97.2395C66.1833 96.3455 69.4713 98.1095 71.6733 99.3755L71.6793 99.3875Z" fill="#EEA886"/>
<path d="M237.924 99.3875C237.186 99.7535 236.556 100.312 236.1 100.996C235.722 101.806 235.536 102.688 235.56 103.576L235.302 109.126C235.188 110.038 235.296 110.968 235.62 111.832C235.98 112.708 236.916 113.2 237.84 113.002C237.174 115.186 237.432 117.544 238.548 119.536C238.83 119.95 239.052 120.4 239.202 120.88C239.274 121.456 239.244 122.038 239.106 122.602C238.722 125.422 239.562 128.272 241.416 130.426C241.698 130.774 242.04 131.068 242.43 131.284C242.94 131.5 243.492 131.62 244.05 131.626L246.606 131.878C247.056 132.028 247.542 131.782 247.692 131.326C247.716 131.254 247.728 131.182 247.734 131.11C249.654 125.014 250.53 118.636 250.314 112.246C250.218 109.024 249.828 105.82 249.15 102.676C248.754 100.834 248.292 98.5235 246.336 97.7795C243.762 96.8435 240.132 98.1155 237.924 99.3815V99.3875Z" fill="#EEA886"/>
<defs>
<linearGradient id="paint0_linear_6046_15921" x1="153.557" y1="241.383" x2="156.065" y2="312.435" gradientUnits="userSpaceOnUse">
<stop stop-opacity="0"/>
<stop offset="0.95"/>
</linearGradient>
<linearGradient id="paint1_linear_6046_15921" x1="76.924" y1="217.821" x2="74.416" y2="118.755" gradientUnits="userSpaceOnUse">
<stop stop-opacity="0"/>
<stop offset="0.99"/>
</linearGradient>
<linearGradient id="paint2_linear_6046_15921" x1="239.013" y1="204.165" x2="237.345" y2="142.023" gradientUnits="userSpaceOnUse">
<stop stop-opacity="0"/>
<stop offset="0.95"/>
</linearGradient>
<linearGradient id="paint3_linear_6046_15921" x1="152.011" y1="223.689" x2="155.911" y2="88.8154" gradientUnits="userSpaceOnUse">
<stop stop-opacity="0"/>
<stop offset="0.99"/>
</linearGradient>
</defs>
</svg>
