<svg width="25" height="24" viewBox="0 0 25 24" fill="none" xmlns="http://www.w3.org/2000/svg">
<path d="M21.5092 17.1449C21.1765 17.9135 20.7827 18.6211 20.3264 19.2715C19.7044 20.1583 19.1952 20.7721 18.8027 21.113C18.1944 21.6724 17.5425 21.959 16.8445 21.9753C16.3434 21.9753 15.7391 21.8327 15.0357 21.5434C14.33 21.2555 13.6814 21.113 13.0884 21.113C12.4664 21.113 11.7994 21.2555 11.0859 21.5434C10.3713 21.8327 9.79567 21.9834 9.35554 21.9984C8.6862 22.0269 8.01902 21.7322 7.35307 21.113C6.92802 20.7422 6.39637 20.1067 5.75948 19.2063C5.07614 18.2449 4.51434 17.13 4.07422 15.8589C3.60287 14.486 3.36658 13.1565 3.36658 11.8694C3.36658 10.3951 3.68516 9.12345 4.32327 8.05784C4.82478 7.20191 5.49195 6.52672 6.32698 6.03105C7.162 5.53539 8.06424 5.2828 9.03588 5.26664C9.56753 5.26664 10.2647 5.43109 11.1311 5.75429C11.9951 6.07858 12.5498 6.24303 12.793 6.24303C12.9748 6.24303 13.5911 6.05074 14.6358 5.66738C15.6237 5.31186 16.4575 5.16466 17.1406 5.22264C18.9915 5.37202 20.3821 6.10167 21.3069 7.41619C19.6515 8.4192 18.8326 9.82403 18.8489 11.6262C18.8639 13.03 19.3731 14.1981 20.3739 15.1256C20.8275 15.5561 21.334 15.8888 21.8976 16.1251C21.7754 16.4795 21.6464 16.819 21.5092 17.1449ZM17.2642 0.440369C17.2642 1.54062 16.8622 2.56792 16.061 3.51878C15.0941 4.64917 13.9246 5.30236 12.6564 5.19929C12.6402 5.06729 12.6309 4.92837 12.6309 4.78239C12.6309 3.72615 13.0907 2.59576 13.9072 1.67152C14.3149 1.20356 14.8334 0.814453 15.4621 0.504058C16.0895 0.198295 16.6829 0.0292007 17.2411 0.000244141C17.2574 0.147331 17.2642 0.294426 17.2642 0.440355V0.440369Z" fill="black"/>
</svg>
