<svg width="20" height="20" viewBox="0 0 20 20" fill="none" xmlns="http://www.w3.org/2000/svg">
<path d="M10 0.250061C8.07164 0.250061 6.18657 0.821889 4.58319 1.89323C2.97982 2.96458 1.73013 4.48732 0.992179 6.2689C0.254225 8.05048 0.061142 10.0109 0.437348 11.9022C0.813554 13.7935 1.74215 15.5308 3.10571 16.8944C4.46928 18.2579 6.20656 19.1865 8.09787 19.5627C9.98919 19.9389 11.9496 19.7458 13.7312 19.0079C15.5127 18.2699 17.0355 17.0203 18.1068 15.4169C19.1782 13.8135 19.75 11.9284 19.75 10.0001C19.7473 7.41504 18.7192 4.93667 16.8913 3.10878C15.0634 1.2809 12.585 0.252791 10 0.250061ZM13.5306 12.4694C13.6003 12.5391 13.6556 12.6218 13.6933 12.7129C13.731 12.8039 13.7504 12.9015 13.7504 13.0001C13.7504 13.0986 13.731 13.1962 13.6933 13.2872C13.6556 13.3783 13.6003 13.461 13.5306 13.5307C13.4609 13.6004 13.3782 13.6556 13.2872 13.6934C13.1961 13.7311 13.0986 13.7505 13 13.7505C12.9015 13.7505 12.8039 13.7311 12.7128 13.6934C12.6218 13.6556 12.5391 13.6004 12.4694 13.5307L10 11.0604L7.53063 13.5307C7.46095 13.6004 7.37822 13.6556 7.28718 13.6934C7.19613 13.7311 7.09855 13.7505 7 13.7505C6.90146 13.7505 6.80388 13.7311 6.71283 13.6934C6.62179 13.6556 6.53906 13.6004 6.46938 13.5307C6.3997 13.461 6.34442 13.3783 6.30671 13.2872C6.269 13.1962 6.24959 13.0986 6.24959 13.0001C6.24959 12.9015 6.269 12.8039 6.30671 12.7129C6.34442 12.6218 6.3997 12.5391 6.46938 12.4694L8.93969 10.0001L6.46938 7.53069C6.32865 7.38996 6.24959 7.19908 6.24959 7.00006C6.24959 6.80104 6.32865 6.61017 6.46938 6.46944C6.61011 6.32871 6.80098 6.24964 7 6.24964C7.19903 6.24964 7.3899 6.32871 7.53063 6.46944L10 8.93975L12.4694 6.46944C12.5391 6.39975 12.6218 6.34448 12.7128 6.30677C12.8039 6.26905 12.9015 6.24964 13 6.24964C13.0986 6.24964 13.1961 6.26905 13.2872 6.30677C13.3782 6.34448 13.4609 6.39975 13.5306 6.46944C13.6003 6.53912 13.6556 6.62184 13.6933 6.71289C13.731 6.80393 13.7504 6.90152 13.7504 7.00006C13.7504 7.09861 13.731 7.19619 13.6933 7.28723C13.6556 7.37828 13.6003 7.461 13.5306 7.53069L11.0603 10.0001L13.5306 12.4694Z" fill="#EA2A2A"/>
</svg>
