<svg width="300" height="300" viewBox="0 0 300 300" fill="none" xmlns="http://www.w3.org/2000/svg">
<path d="M300 229.44H0V229.59H300V229.44Z" fill="#EBEBEB"/>
<path d="M269.942 239.094H250.07V239.244H269.942V239.094Z" fill="#EBEBEB"/>
<path d="M163.929 237.216H156.195V237.366H163.929V237.216Z" fill="#EBEBEB"/>
<path d="M209.8 237.852H193.516V238.002H209.8V237.852Z" fill="#EBEBEB"/>
<path d="M249.471 233.526H215.805V233.676H249.471V233.526Z" fill="#EBEBEB"/>
<path d="M47.3946 240.468H31.4766V240.618H47.3946V240.468Z" fill="#EBEBEB"/>
<path d="M66.5344 240.468H52.7344V240.618H66.5344V240.468Z" fill="#EBEBEB"/>
<path d="M115.088 237.144H78.6016V237.294H115.088V237.144Z" fill="#EBEBEB"/>
<path d="M142.204 202.68H26.3497C25.4421 202.678 24.5722 202.317 23.931 201.674C23.2898 201.032 22.9297 200.162 22.9297 199.254V36.396C22.9376 35.4936 23.3012 34.6308 23.9416 33.9949C24.5819 33.3591 25.4473 33.0015 26.3497 33H142.204C143.112 33 143.984 33.361 144.626 34.0035C145.269 34.646 145.63 35.5174 145.63 36.426V199.254C145.63 200.163 145.269 201.034 144.626 201.677C143.984 202.319 143.112 202.68 142.204 202.68ZM26.3497 33.12C25.4819 33.1216 24.6502 33.4674 24.0371 34.0816C23.424 34.6958 23.0797 35.5282 23.0797 36.396V199.254C23.0797 200.122 23.424 200.954 24.0371 201.568C24.6502 202.183 25.4819 202.528 26.3497 202.53H142.204C143.072 202.528 143.904 202.183 144.518 201.569C145.132 200.955 145.478 200.122 145.48 199.254V36.396C145.478 35.5276 145.132 34.6953 144.518 34.0813C143.904 33.4672 143.072 33.1216 142.204 33.12H26.3497Z" fill="#EBEBEB"/>
<path d="M271.989 202.68H156.129C155.221 202.678 154.35 202.317 153.708 201.675C153.066 201.033 152.705 200.162 152.703 199.254V36.396C152.713 35.4931 153.078 34.6302 153.719 33.9946C154.36 33.3589 155.226 33.0015 156.129 33H271.989C272.891 33.0031 273.754 33.3613 274.393 33.997C275.032 34.6327 275.395 35.4947 275.403 36.396V199.254C275.403 200.161 275.044 201.03 274.404 201.672C273.764 202.314 272.896 202.677 271.989 202.68ZM156.129 33.12C155.261 33.1216 154.428 33.4672 153.814 34.0813C153.2 34.6953 152.855 35.5276 152.853 36.396V199.254C152.855 200.122 153.2 200.955 153.814 201.569C154.428 202.183 155.261 202.528 156.129 202.53H271.989C272.857 202.528 273.69 202.183 274.304 201.569C274.918 200.955 275.264 200.122 275.265 199.254V36.396C275.264 35.5276 274.918 34.6953 274.304 34.0813C273.69 33.4672 272.857 33.1216 271.989 33.12H156.129Z" fill="#EBEBEB"/>
<path d="M280.237 116.502C282.117 110.002 281.907 103.076 279.637 96.7021C282.048 93.2505 283.647 89.2978 284.313 85.1405C284.979 80.9831 284.695 76.7289 283.483 72.6968C282.27 68.6647 280.161 64.9593 277.313 61.8585C274.465 58.7576 270.952 56.3418 267.037 54.7921C265.892 46.5396 262.625 38.7255 257.556 32.1138C252.487 25.502 245.788 20.319 238.116 17.0714C230.444 13.8238 222.06 12.6228 213.784 13.586C205.508 14.5491 197.624 17.6433 190.903 22.5661C187.524 19.0183 183.164 16.56 178.379 15.5062C173.595 14.4525 168.605 14.8513 164.048 16.6515C159.492 18.4517 155.577 21.5714 152.805 25.6108C150.033 29.6501 148.53 34.4252 148.489 39.3241C142.158 40.594 136.267 43.4922 131.398 47.7329C126.529 51.9736 122.849 57.4103 120.722 63.5068C118.595 69.6032 118.094 76.1489 119.268 82.4983C120.442 88.8476 123.25 94.7813 127.417 99.7141C125.379 103.389 124.196 107.476 123.955 111.671C123.714 115.866 124.423 120.062 126.027 123.946C127.632 127.829 130.091 131.301 133.223 134.103C136.354 136.905 140.077 138.965 144.115 140.13C148.828 141.496 153.819 141.591 158.581 140.406C165.035 149.3 174.638 155.398 185.432 157.456C196.226 159.514 207.399 157.377 216.673 151.482C221.191 161.976 224.899 177.72 216.913 193.158C245.923 190.314 266.869 162.492 262.597 136.998C266.84 135.054 270.613 132.216 273.657 128.678C276.702 125.141 278.946 120.987 280.237 116.502Z" fill="#EBEBEB"/>
<path d="M224.591 187.398C224.512 187.399 224.434 187.383 224.361 187.354C224.288 187.324 224.221 187.28 224.165 187.224C224.088 187.147 224.033 187.051 224.007 186.945C223.981 186.839 223.983 186.728 224.015 186.624C228.101 172.392 224.375 158.748 220.535 149.808L218.585 145.278L214.421 147.924C206.054 153.245 195.973 155.174 186.232 153.319C176.491 151.464 167.825 145.964 161.999 137.94L160.331 135.642L157.583 136.326C153.094 137.444 148.375 137.224 144.008 135.696C139.641 134.167 135.816 131.395 133.004 127.721C130.191 124.048 128.514 119.632 128.177 115.017C127.841 110.403 128.861 105.791 131.111 101.748L132.509 99.2161L130.643 97.0081C126.946 92.6342 124.454 87.3723 123.41 81.7412C122.367 76.1101 122.81 70.3043 124.695 64.8965C126.58 59.4887 129.842 54.6657 134.16 50.9031C138.477 47.1404 143.701 44.5682 149.315 43.4401L152.651 42.7681L152.687 39.3721C152.718 35.3075 153.962 31.3447 156.261 27.9921C158.559 24.6395 161.806 22.0499 165.586 20.5554C169.366 19.061 173.507 18.7298 177.476 19.6044C181.446 20.479 185.063 22.5194 187.865 25.4641L190.409 28.1281L193.409 25.9561C199.543 21.4568 206.74 18.6271 214.296 17.7439C221.851 16.8607 229.507 17.9543 236.513 20.9176C243.519 23.881 249.636 28.6125 254.265 34.6492C258.893 40.6859 261.876 47.821 262.919 55.3561L263.261 57.7561L265.535 58.6561C268.861 59.9724 271.844 62.0247 274.263 64.6591C276.682 67.2935 278.473 70.4414 279.501 73.8667C280.529 77.292 280.768 80.9057 280.2 84.4367C279.632 87.9676 278.272 91.324 276.221 94.2541L274.985 96.0241L275.711 98.0641C278.075 104.719 277.859 112.018 275.107 118.522C272.355 125.026 267.266 130.263 260.843 133.2L257.921 134.544L258.455 137.712C260.255 148.59 256.997 160.47 249.455 170.31C243.228 178.468 234.579 184.448 224.747 187.392C224.696 187.402 224.643 187.404 224.591 187.398ZM218.861 143.808C218.919 143.8 218.978 143.8 219.035 143.808C219.118 143.834 219.194 143.877 219.258 143.935C219.322 143.993 219.373 144.065 219.407 144.144L221.633 149.316C225.461 158.214 229.163 171.69 225.455 185.874C234.622 182.893 242.665 177.192 248.513 169.53C255.845 159.93 259.037 148.41 257.273 137.862L256.673 134.262C256.65 134.132 256.671 133.998 256.731 133.881C256.792 133.764 256.89 133.67 257.009 133.614L260.345 132.084C266.483 129.271 271.345 124.262 273.976 118.044C276.606 111.826 276.815 104.848 274.559 98.4841L273.731 96.1561C273.7 96.0654 273.69 95.9686 273.704 95.8736C273.717 95.7786 273.754 95.6882 273.809 95.6101L275.219 93.5821C277.167 90.8012 278.459 87.6152 278.999 84.2634C279.539 80.9116 279.312 77.4811 278.337 74.2293C277.361 70.9775 275.661 67.9891 273.365 65.4883C271.069 62.9875 268.236 61.0393 265.079 59.7901L262.475 58.7581C262.377 58.7189 262.291 58.6544 262.226 58.5712C262.16 58.4879 262.118 58.3889 262.103 58.2841L261.713 55.5181C260.702 48.1856 257.803 41.2417 253.301 35.3667C248.798 29.4916 242.847 24.887 236.03 22.0041C229.212 19.1211 221.763 18.0586 214.411 18.9207C207.06 19.7828 200.059 22.54 194.093 26.9221L190.691 29.4001C190.574 29.4859 190.43 29.5265 190.286 29.5144C190.141 29.5022 190.006 29.4382 189.905 29.3341L186.995 26.2921C185.198 24.4176 183.041 22.9253 180.653 21.9046C178.265 20.8839 175.696 20.3559 173.099 20.3521C168.037 20.3519 163.18 22.3508 159.584 25.914C155.988 29.4771 153.945 34.3161 153.899 39.3781L153.857 43.2661C153.86 43.4064 153.814 43.5434 153.726 43.653C153.638 43.7626 153.515 43.838 153.377 43.8661L149.567 44.6341C144.159 45.7216 139.128 48.1995 134.97 51.8234C130.811 55.4474 127.669 60.0924 125.852 65.3007C124.035 70.509 123.606 76.1008 124.609 81.5251C125.611 86.9494 128.009 92.0189 131.567 96.2341L133.697 98.7601C133.776 98.8531 133.824 98.9677 133.836 99.0888C133.848 99.2099 133.822 99.3317 133.763 99.4381L132.167 102.33C131.343 103.814 130.687 105.386 130.211 107.016C129.114 110.82 129.037 114.846 129.988 118.689C130.939 122.532 132.886 126.057 135.631 128.909C138.377 131.762 141.825 133.841 145.629 134.939C149.432 136.037 153.458 136.114 157.301 135.162L160.445 134.382C160.561 134.353 160.683 134.359 160.795 134.4C160.907 134.441 161.005 134.514 161.075 134.61L162.977 137.232C168.617 145.022 177.02 150.363 186.467 152.165C195.914 153.966 205.693 152.09 213.803 146.922L218.561 143.922C218.649 143.858 218.753 143.818 218.861 143.808Z" fill="white"/>
<path d="M182.512 87.7141L166.432 85.2001L166.678 83.5921C166.959 81.3222 167.624 79.1168 168.646 77.0701C169.541 75.45 170.729 74.0097 172.15 72.8221C173.594 71.6221 176.738 69.5701 181.582 66.6661C184.156 65.1541 185.566 63.6301 185.782 62.0761C185.924 61.416 185.925 60.7333 185.786 60.0727C185.646 59.412 185.369 58.7882 184.972 58.2421C184.192 57.2401 182.866 56.5921 181.006 56.3041C180.089 56.1301 179.147 56.1469 178.238 56.3534C177.328 56.5599 176.471 56.9516 175.72 57.5041C174.2 58.6281 173 60.8121 172.12 64.0561L156.016 59.4661C157.52 53.5181 160.472 49.0001 164.872 45.9121C169.272 42.8241 175.42 41.8961 183.316 43.1281C189.468 44.0841 194.234 46.1401 197.614 49.2961C202.206 53.5681 204.052 58.5961 203.152 64.3801C202.749 66.8179 201.689 69.0997 200.086 70.9801C198.414 73.0041 195.28 75.3041 190.684 77.8801C187.484 79.7001 185.404 81.2341 184.444 82.4821C183.37 84.036 182.706 85.8355 182.512 87.7141ZM165.214 89.4001L182.44 92.0821L180.076 107.274L162.85 104.592L165.214 89.4001Z" fill="white"/>
<path d="M223.551 111.252L214.623 104.052L215.349 103.158C216.325 101.874 217.512 100.765 218.859 99.8762C219.98 99.2078 221.214 98.7502 222.501 98.5262C225.137 98.219 227.79 98.0807 230.445 98.1122C232.549 98.1122 233.949 97.6782 234.645 96.8102C234.968 96.4595 235.213 96.0434 235.362 95.59C235.511 95.1367 235.561 94.6566 235.509 94.1822C235.285 93.1277 234.664 92.1997 233.775 91.5902C233.276 91.16 232.695 90.8376 232.066 90.6435C231.437 90.4494 230.774 90.3876 230.121 90.4622C228.793 90.6062 227.287 91.5122 225.603 93.1802L217.401 84.6662C220.425 81.5702 223.825 79.8602 227.601 79.5362C231.377 79.2122 235.461 80.8262 239.853 84.3782C243.269 87.1422 245.447 90.0882 246.387 93.2162C247.675 97.4522 247.021 101.174 244.425 104.382C243.32 105.734 241.868 106.758 240.225 107.346C238.485 107.982 235.757 108.274 232.041 108.222C229.443 108.222 227.631 108.39 226.599 108.822C225.399 109.37 224.352 110.204 223.551 111.252ZM212.397 106.146L221.961 113.892L215.127 122.328L205.562 114.6L212.397 106.146Z" fill="white"/>
<path d="M226.05 59.2803L222.186 54.0003L222.714 53.6103C223.437 53.0488 224.248 52.6109 225.114 52.3143C225.829 52.1084 226.575 52.0372 227.316 52.1043C228.811 52.3141 230.29 52.6227 231.744 53.0283C232.908 53.3283 233.742 53.2923 234.252 52.9203C234.48 52.7731 234.674 52.5794 234.822 52.352C234.97 52.1245 235.068 51.8683 235.11 51.6003C235.133 50.984 234.918 50.3824 234.51 49.9203C234.297 49.6122 234.023 49.3511 233.705 49.153C233.388 48.9548 233.032 48.8239 232.662 48.7683C231.912 48.6603 230.952 48.9363 229.782 49.6083L226.5 43.7343C228.383 42.5157 230.651 42.0369 232.866 42.3903C234.994 42.7623 237.008 44.2423 238.908 46.8303C240.384 48.8543 241.156 50.7923 241.224 52.6443C241.32 53.773 241.121 54.9072 240.646 55.9358C240.172 56.9645 239.439 57.8523 238.518 58.5123C237.721 59.0916 236.782 59.4441 235.8 59.5323C234.227 59.5633 232.661 59.3259 231.168 58.8303C230.176 58.4923 229.132 58.3338 228.084 58.3623C227.341 58.4951 226.642 58.8106 226.05 59.2803ZM220.65 54.8523L224.79 60.5043L219.804 64.1523L215.664 58.5063L220.65 54.8523Z" fill="white"/>
<path d="M77.0038 134.142C71.9321 134.133 66.9569 132.755 62.6038 130.152C56.5138 126.552 52.2119 120.9 50.7479 114.678C46.502 114.382 42.5109 112.544 39.5269 109.509C36.5428 106.474 34.7719 102.452 34.5479 98.202C33.2697 97.3151 32.1397 96.2317 31.1999 94.992C28.9169 92.0829 27.789 88.4331 28.0326 84.7433C28.2762 81.0534 29.8743 77.5836 32.5199 75C31.5159 70.7337 31.6217 66.2814 32.827 62.0676C34.0323 57.8538 36.297 54.019 39.4051 50.9289C42.5132 47.8388 46.3611 45.5965 50.5819 44.4158C54.8026 43.235 59.2555 43.1552 63.5158 44.184C64.4453 42.061 65.9113 40.2164 67.7696 38.8315C69.6278 37.4466 71.8145 36.569 74.1146 36.2852C76.4147 36.0013 78.7491 36.3208 80.8884 37.2123C83.0276 38.1038 84.8981 39.5367 86.3158 41.37C86.9738 42.221 87.5278 43.1475 87.9658 44.13C91.3205 43.5787 94.7605 43.8962 97.9575 45.0522C101.155 46.2083 104.002 48.1642 106.228 50.7335C108.455 53.3028 109.986 56.3997 110.675 59.7287C111.364 63.0578 111.189 66.5079 110.166 69.75C112.362 71.6211 113.977 74.0825 114.817 76.8428C115.658 79.603 115.69 82.5464 114.91 85.3243C114.13 88.1022 112.57 90.5983 110.414 92.5169C108.259 94.4356 105.599 95.6964 102.75 96.15C101.464 101.014 98.6084 105.316 94.6259 108.39C92.1192 110.336 89.2382 111.744 86.1628 112.527C83.0875 113.309 79.8838 113.449 76.7518 112.938C76.6918 118.764 78.0418 126.666 84.5518 132.318C84.6147 132.374 84.6616 132.446 84.6879 132.526C84.7143 132.606 84.7191 132.691 84.7018 132.774C84.684 132.857 84.6437 132.933 84.5855 132.994C84.5273 133.056 84.4534 133.1 84.3718 133.122C81.9761 133.807 79.4956 134.151 77.0038 134.142ZM57.4379 44.4C53.6935 44.4114 50.0005 45.2729 46.6376 46.9195C43.2746 48.5661 40.3295 50.9547 38.0242 53.9054C35.7189 56.856 34.1137 60.2916 33.3296 63.953C32.5455 67.6144 32.6031 71.406 33.4979 75.042C33.5184 75.1234 33.5165 75.2088 33.4922 75.2891C33.4678 75.3695 33.4221 75.4417 33.3599 75.498C30.7977 77.9024 29.2284 81.1787 28.9608 84.6822C28.6932 88.1856 29.7467 91.6623 31.9139 94.428C32.8669 95.6524 34.0141 96.7124 35.3099 97.566C35.3726 97.6066 35.4249 97.6614 35.4625 97.7261C35.5 97.7907 35.5217 97.8633 35.5259 97.938C35.6885 102.054 37.385 105.959 40.2819 108.887C43.1787 111.815 47.0662 113.553 51.1799 113.76C51.2828 113.766 51.3809 113.805 51.459 113.873C51.5371 113.94 51.5909 114.031 51.6118 114.132C52.9378 120.234 57.1318 125.778 63.1078 129.342C69.1629 132.994 76.4165 134.102 83.2858 132.426C76.8478 126.426 75.6478 118.23 75.8038 112.35C75.8063 112.282 75.8233 112.215 75.8537 112.154C75.884 112.093 75.927 112.039 75.9798 111.996C76.0326 111.953 76.094 111.921 76.1598 111.904C76.2257 111.886 76.2946 111.883 76.3618 111.894C81.893 112.94 87.615 111.836 92.3603 108.808C97.1056 105.78 100.517 101.055 101.898 95.598C101.919 95.5063 101.968 95.4232 102.037 95.36C102.107 95.2967 102.195 95.2562 102.288 95.244C105.017 94.8667 107.577 93.7011 109.653 91.8901C111.729 90.0792 113.232 87.7016 113.977 85.049C114.722 82.3964 114.676 79.5841 113.845 76.9571C113.015 74.3301 111.436 72.0026 109.302 70.26C109.228 70.2002 109.174 70.1194 109.147 70.0283C109.121 69.9373 109.122 69.8402 109.152 69.75C110.196 66.6232 110.406 63.2783 109.762 60.0455C109.118 56.8126 107.642 53.8036 105.48 51.3154C103.318 48.8273 100.544 46.946 97.4326 45.8574C94.3212 44.7688 90.9796 44.5105 87.7378 45.108C87.6317 45.1285 87.5216 45.1117 87.4264 45.0603C87.3313 45.0089 87.2569 44.9261 87.2158 44.826C86.276 42.5461 84.6784 40.5978 82.6268 39.2294C80.5753 37.8611 78.1627 37.1349 75.6966 37.1432C73.2306 37.1516 70.823 37.8942 68.7808 39.2764C66.7385 40.6586 65.1542 42.6178 64.2299 44.904C64.186 45.0086 64.1065 45.0944 64.0055 45.146C63.9044 45.1977 63.7883 45.2118 63.6778 45.186C61.6392 44.6627 59.5426 44.3987 57.4379 44.4Z" fill="#E6E6E6"/>
<path d="M60.3552 83.9998L52.0692 85.9498L51.8772 85.1218C51.5636 83.9657 51.4519 82.764 51.5472 81.5698C51.661 80.6106 51.9519 79.6808 52.4052 78.8279C53.4198 77.1432 54.5421 75.5258 55.7652 73.9858C56.7192 72.7438 57.1032 71.7298 56.9112 70.9318C56.8523 70.5835 56.7196 70.2517 56.5219 69.9589C56.3243 69.666 56.0663 69.4188 55.7652 69.2338C55.047 68.8841 54.2213 68.826 53.4612 69.0719C52.9832 69.1686 52.5302 69.363 52.1307 69.6427C51.7312 69.9225 51.3936 70.2817 51.1392 70.6979C50.6232 71.5439 50.4732 72.8339 50.6832 74.5798L42.0012 75.5038C41.4939 72.6338 42.0621 69.6774 43.5972 67.1998C45.1212 64.8359 47.9212 63.1758 51.9972 62.2198C55.1652 61.4718 57.8792 61.5298 60.1392 62.3938C63.2032 63.5578 65.0872 65.6319 65.7912 68.6158C66.0839 69.8801 66.0216 71.2007 65.6112 72.4318C65.2112 73.7398 64.1452 75.4719 62.4132 77.6279C61.2132 79.1399 60.5072 80.2918 60.2952 81.0838C60.0708 82.0455 60.0914 83.0482 60.3552 83.9998ZM52.3032 88.1998L61.1832 86.1118L63.0012 93.9358L54.1512 95.9998L52.3032 88.1998Z" fill="#EBEBEB"/>
<path d="M81.4538 66.4743L75.7058 64.7223L75.8798 64.1223C76.1 63.3061 76.4571 62.5331 76.9358 61.8363C77.3459 61.2905 77.8547 60.8265 78.4358 60.4683C79.6526 59.8086 80.9113 59.2294 82.2038 58.7343C83.2238 58.3343 83.8238 57.8483 84.0038 57.2763C84.0919 57.0424 84.1289 56.7923 84.1123 56.5429C84.0958 56.2935 84.026 56.0505 83.9078 55.8303C83.5916 55.3631 83.1086 55.0346 82.5578 54.9123C82.2315 54.8035 81.8864 54.7628 81.5438 54.7927C81.2011 54.8226 80.8683 54.9226 80.5658 55.0863C79.7866 55.6208 79.2047 56.3966 78.9098 57.2943L73.2578 54.7803C73.9719 52.8488 75.3733 51.2487 77.1938 50.2863C78.9618 49.3783 81.2578 49.3563 84.0818 50.2203C85.9844 50.699 87.6962 51.7454 88.9898 53.2203C89.6851 53.9937 90.1661 54.9355 90.3851 55.9522C90.604 56.9689 90.5532 58.0252 90.2378 59.0163C89.9665 59.892 89.4601 60.6765 88.7738 61.2843C87.6311 62.1723 86.3472 62.8619 84.9758 63.3243C84.0634 63.6264 83.2106 64.0853 82.4558 64.6803C81.9784 65.1861 81.6341 65.8026 81.4538 66.4743ZM75.0458 66.1923L81.2018 68.0643L79.5518 73.5003L73.3898 71.6283L75.0458 66.1923Z" fill="#EBEBEB"/>
<path d="M149.998 256.536C214.248 256.536 266.332 253.495 266.332 249.744C266.332 245.993 214.248 242.952 149.998 242.952C85.7486 242.952 33.6641 245.993 33.6641 249.744C33.6641 253.495 85.7486 256.536 149.998 256.536Z" fill="#F5F5F5"/>
<path d="M94.5701 148.464L94.0181 148.23C94.452 147.277 94.745 146.267 94.8881 145.23L95.4881 145.296C95.3378 146.391 95.0286 147.458 94.5701 148.464ZM94.3361 141.6C93.778 140.353 92.9098 139.27 91.8143 138.454C90.7188 137.638 89.4325 137.116 88.0781 136.938L88.1741 136.338C89.6269 136.531 91.006 137.093 92.1802 137.97C93.3544 138.847 94.2845 140.01 94.8821 141.348L94.3361 141.6Z" fill="#003342"/>
<path d="M91.207 154.5L85.291 157.2L85.027 156.6C84.6224 155.785 84.3606 154.906 84.253 154.002C84.196 153.266 84.2753 152.525 84.487 151.818C84.9992 150.409 85.6004 149.035 86.287 147.702C86.815 146.634 86.949 145.816 86.689 145.248C86.5926 144.997 86.4437 144.769 86.2523 144.58C86.0609 144.39 85.8314 144.244 85.579 144.15C84.9899 144 84.3659 144.08 83.833 144.372C83.4906 144.518 83.1815 144.732 82.9246 145.001C82.6677 145.27 82.4685 145.589 82.339 145.938C82.079 146.638 82.159 147.626 82.579 148.902L76.207 150.894C75.4102 148.818 75.4102 146.52 76.207 144.444C77.007 142.444 78.851 140.79 81.739 139.482C83.995 138.45 86.035 138.096 87.853 138.402C88.967 138.537 90.0268 138.959 90.9283 139.627C91.8298 140.295 92.542 141.186 92.995 142.212C93.4001 143.114 93.5495 144.111 93.427 145.092C93.1372 146.625 92.5894 148.098 91.807 149.448C91.2809 150.343 90.9192 151.324 90.739 152.346C90.7138 153.092 90.8746 153.832 91.207 154.5ZM85.807 158.844L92.131 156L94.669 161.574L88.345 164.4L85.807 158.844Z" fill="#003342"/>
<path d="M76.5876 167.838L73.5876 171.918L73.2036 171.6C72.6184 171.194 72.1054 170.693 71.6856 170.118C71.3668 169.638 71.1409 169.103 71.0196 168.54C70.8257 167.387 70.7115 166.222 70.6776 165.054C70.6296 164.124 70.4076 163.518 70.0176 163.254C69.8536 163.115 69.6613 163.013 69.454 162.956C69.2468 162.899 69.0295 162.888 68.8176 162.924C68.3584 163.044 67.9631 163.336 67.7136 163.74C67.5349 163.968 67.4049 164.231 67.3316 164.512C67.2583 164.792 67.2434 165.085 67.2876 165.372C67.4959 166.139 67.9488 166.817 68.5776 167.304L64.9776 171.09C63.6445 169.978 62.7669 168.415 62.5116 166.698C62.2916 165.042 62.9196 163.212 64.3956 161.208C65.3109 159.834 66.6202 158.77 68.1516 158.154C68.9615 157.819 69.8448 157.702 70.714 157.813C71.5833 157.925 72.4083 158.261 73.1076 158.79C73.7283 159.25 74.21 159.873 74.4996 160.59C74.8847 161.75 75.0713 162.967 75.0516 164.19C75.0309 165.006 75.1569 165.818 75.4236 166.59C75.7011 167.096 76.1013 167.526 76.5876 167.838ZM74.5656 172.854L77.7816 168.486L81.6336 171.324L78.4176 175.692L74.5656 172.854Z" fill="#003342"/>
<path d="M140.46 247.584C139.965 247.584 139.479 247.449 139.056 247.192C138.632 246.934 138.288 246.566 138.06 246.126C135.66 241.47 132.618 236.004 127.17 230.088C126.856 229.748 126.636 229.333 126.531 228.883C126.426 228.433 126.439 227.963 126.57 227.52C128.592 220.494 131.772 210.888 131.802 210.792C131.904 210.445 132.074 210.122 132.303 209.842C132.533 209.562 132.816 209.331 133.136 209.163C133.456 208.995 133.807 208.894 134.168 208.864C134.528 208.834 134.891 208.878 135.234 208.991C135.577 209.105 135.894 209.287 136.166 209.525C136.438 209.764 136.659 210.055 136.815 210.381C136.972 210.707 137.062 211.061 137.079 211.422C137.096 211.784 137.04 212.145 136.914 212.484C136.884 212.574 134.142 220.848 132.156 227.574C136.39 232.457 139.983 237.861 142.848 243.654C143.059 244.065 143.16 244.524 143.143 244.986C143.125 245.447 142.99 245.897 142.749 246.291C142.508 246.686 142.17 247.011 141.767 247.238C141.364 247.464 140.91 247.583 140.448 247.584H140.46Z" fill="#003342"/>
<path d="M144.936 249.744H124.062L135.127 243.468L144.397 243.828L144.936 249.744Z" fill="#66773E"/>
<path d="M142.947 224.455C152.447 221.485 158.154 212.693 155.692 204.818C153.23 196.943 143.532 192.966 134.031 195.937C124.53 198.907 118.824 207.699 121.286 215.574C123.748 223.449 133.446 227.426 142.947 224.455Z" fill="#66773E"/>
<path d="M90.9958 200.4C90.3745 200.397 89.7732 200.18 89.2937 199.785C88.8142 199.39 88.4859 198.842 88.3645 198.232C88.243 197.623 88.3359 196.991 88.6274 196.442C88.9188 195.893 89.3909 195.462 89.9638 195.222C90.43 195.027 90.8395 194.717 91.1542 194.322C91.4689 193.927 91.6786 193.458 91.7638 192.96C91.8176 192.374 92.0621 191.822 92.4599 191.388C92.8576 190.955 93.3867 190.664 93.9658 190.56C94.634 190.424 95.2948 190.253 95.9458 190.05C99.5938 188.988 104.112 187.65 118.332 191.646C132.36 183.804 132.522 169.092 132.522 168.456C132.522 167.743 132.804 167.059 133.306 166.553C133.809 166.047 134.491 165.761 135.204 165.756C135.914 165.756 136.596 166.036 137.1 166.536C137.605 167.036 137.891 167.716 137.898 168.426C137.898 169.212 137.814 187.68 119.898 196.926C119.287 197.243 118.578 197.311 117.918 197.118C104.358 193.206 100.518 194.322 97.4758 195.216L96.6478 195.456C96.2475 196.516 95.6342 197.483 94.8459 198.297C94.0575 199.112 93.1106 199.756 92.0638 200.19C91.7257 200.331 91.3623 200.403 90.9958 200.4Z" fill="#66773E"/>
<path d="M122.454 181.134C117.348 160.842 103.747 108.498 147.336 105.3C186.444 102.426 197.172 154.5 199.782 172.5C201.089 181.608 201.799 190.791 201.906 199.992C201.956 204.646 200.379 209.171 197.448 212.786C194.516 216.401 190.414 218.879 185.85 219.792C164.544 224.124 144.384 224.736 130.801 219.378C129.016 218.658 127.513 217.38 126.515 215.735C125.517 214.091 125.077 212.167 125.262 210.252C125.784 204.444 125.796 194.4 122.454 181.134Z" fill="#003342"/>
<path opacity="0.1" d="M199.805 172.512C197.345 155.52 187.673 108.312 153.809 105.312C151.877 105.116 149.931 105.496 148.215 106.405C146.499 107.314 145.091 108.71 144.167 110.418C142.655 113.346 142.703 116.892 144.965 120.402C152.405 132 170.207 172.002 167.519 193.8C166.319 203.718 160.073 211.638 165.485 222.786C172.326 222.187 179.126 221.185 185.849 219.786C190.413 218.873 194.515 216.395 197.446 212.78C200.378 209.165 201.955 204.64 201.905 199.986C201.804 190.792 201.103 181.614 199.805 172.512Z" fill="black"/>
<path d="M193.949 200.274C193.878 200.274 193.81 200.246 193.76 200.197C193.71 200.148 193.68 200.081 193.679 200.01C193.577 190.821 192.869 181.65 191.561 172.554C185.081 127.758 167.639 105.108 141.101 107.064C141.065 107.066 141.03 107.062 140.996 107.051C140.962 107.039 140.931 107.021 140.904 106.998C140.878 106.974 140.856 106.946 140.84 106.914C140.824 106.882 140.815 106.848 140.813 106.812C140.809 106.741 140.834 106.671 140.881 106.617C140.928 106.564 140.994 106.53 141.065 106.524C167.915 104.544 185.567 127.356 192.065 172.476C193.372 181.596 194.082 190.792 194.189 200.004C194.189 200.076 194.16 200.144 194.11 200.195C194.059 200.246 193.99 200.274 193.919 200.274H193.949Z" fill="#66773E"/>
<path d="M193.54 225.885C203.041 222.915 208.748 214.123 206.286 206.247C203.824 198.372 194.126 194.396 184.625 197.366C175.124 200.336 169.418 209.128 171.88 217.003C174.342 224.878 184.039 228.855 193.54 225.885Z" fill="#66773E"/>
<path d="M195.181 247.584C194.686 247.585 194.2 247.449 193.776 247.192C193.353 246.935 193.009 246.566 192.781 246.126C190.381 241.47 187.339 236.004 181.885 230.088C181.574 229.747 181.356 229.332 181.25 228.882C181.145 228.432 181.157 227.963 181.285 227.52C183.313 220.494 186.487 210.888 186.523 210.792C186.634 210.457 186.811 210.146 187.041 209.879C187.272 209.612 187.554 209.393 187.869 209.234C188.185 209.076 188.529 208.981 188.881 208.955C189.233 208.93 189.587 208.974 189.922 209.085C190.258 209.196 190.568 209.372 190.835 209.603C191.102 209.834 191.321 210.115 191.48 210.431C191.638 210.746 191.733 211.09 191.759 211.442C191.784 211.795 191.74 212.149 191.629 212.484C191.599 212.574 188.863 220.848 186.877 227.574C191.112 232.455 194.703 237.859 197.563 243.654C197.774 244.065 197.875 244.524 197.858 244.985C197.841 245.447 197.705 245.897 197.464 246.291C197.223 246.685 196.885 247.011 196.482 247.238C196.08 247.464 195.625 247.583 195.163 247.584H195.181Z" fill="#003342"/>
<path d="M189.534 165.546C188.932 165.546 188.347 165.345 187.873 164.975C187.399 164.604 187.063 164.085 186.918 163.501C186.773 162.917 186.827 162.301 187.073 161.752C187.319 161.202 187.742 160.751 188.274 160.47C188.79 160.194 200.508 153.792 203.796 138.408C195.996 135.144 181.944 127.77 178.872 124.062C178.569 123.704 178.363 123.274 178.272 122.814C177.917 120.598 178.123 118.329 178.872 116.214L177.456 113.478C177.128 112.842 177.066 112.101 177.285 111.419C177.503 110.737 177.983 110.17 178.62 109.842C179.256 109.514 179.997 109.453 180.679 109.671C181.361 109.889 181.928 110.37 182.256 111.006L184.29 114.942C184.509 115.354 184.616 115.816 184.601 116.282C184.587 116.748 184.45 117.203 184.206 117.6C183.657 118.697 183.424 119.925 183.534 121.146C186.996 124.272 200.934 131.67 207.792 134.208C208.373 134.423 208.862 134.833 209.176 135.368C209.49 135.903 209.609 136.529 209.514 137.142C206.472 156.804 191.43 164.904 190.794 165.24C190.405 165.443 189.973 165.548 189.534 165.546Z" fill="#66773E"/>
<path d="M180.945 123.69C180.703 123.689 180.466 123.623 180.258 123.498C180.05 123.374 179.88 123.196 179.765 122.983C179.649 122.77 179.593 122.53 179.603 122.288C179.612 122.046 179.686 121.811 179.817 121.608C179.913 121.464 182.133 118.11 185.517 117.204C185.688 117.158 185.866 117.147 186.041 117.17C186.216 117.193 186.385 117.25 186.538 117.338C186.691 117.427 186.825 117.544 186.932 117.684C187.04 117.825 187.119 117.984 187.164 118.155C187.21 118.326 187.222 118.504 187.199 118.679C187.175 118.854 187.118 119.023 187.03 119.175C186.942 119.328 186.824 119.462 186.684 119.57C186.544 119.677 186.384 119.756 186.213 119.802C183.855 120.438 182.085 123.054 182.073 123.078C181.951 123.266 181.784 123.42 181.587 123.527C181.39 123.634 181.169 123.69 180.945 123.69Z" fill="#66773E"/>
<path d="M199.663 249.744H178.789L189.853 243.468L199.123 243.828L199.663 249.744Z" fill="#66773E"/>
<path d="M155.95 169.352C163.845 168.653 169.736 162.325 169.106 155.218C168.477 148.112 161.567 142.917 153.671 143.616C145.776 144.316 139.885 150.643 140.514 157.75C141.144 164.857 148.054 170.051 155.95 169.352Z" fill="white"/>
<path d="M153.27 164.668C155.364 164.071 156.181 160.498 155.095 156.686C154.009 152.875 151.432 150.268 149.338 150.865C147.244 151.461 146.427 155.035 147.513 158.846C148.599 162.658 151.176 165.264 153.27 164.668Z" fill="#66773E"/>
<path d="M138.481 158.916C147.541 157.752 165.481 152.634 168.439 150.57C166.111 143.754 155.239 137.922 145.567 141.21C136.801 144.168 138.481 158.916 138.481 158.916Z" fill="#66773E"/>
<path d="M140.242 163.296C151.492 161.16 166.114 157.572 170.296 155.274C170.038 162.606 167.896 170.04 156.424 172.554C147.04 174.6 140.242 163.296 140.242 163.296Z" fill="#66773E"/>
<path d="M130.975 170.344C135.043 167.652 135.579 161.297 132.173 156.148C128.766 151 122.707 149.008 118.639 151.699C114.571 154.391 114.035 160.746 117.441 165.895C120.848 171.044 126.907 173.035 130.975 170.344Z" fill="white"/>
<path d="M125.007 161.208C125.685 164.424 125.097 167.106 123.687 167.208C122.277 167.31 120.585 164.772 119.901 161.556C119.217 158.34 119.811 155.664 121.215 155.556C122.619 155.448 124.323 157.992 125.007 161.208Z" fill="#66773E"/>
<path d="M113.852 159.978C119.93 160.692 132.002 159.894 134.006 158.778C132.524 153 125.336 146.4 118.802 147.24C112.91 147.996 113.852 159.978 113.852 159.978Z" fill="#66773E"/>
<path d="M114.984 163.764C122.538 164.106 132.384 163.914 135.192 162.852C134.934 168.618 133.422 174.114 125.706 174.024C119.406 173.952 114.984 163.764 114.984 163.764Z" fill="#66773E"/>
<path d="M158.454 137.58C151.588 137.618 144.873 135.567 139.2 131.7C138.631 131.27 138.256 130.631 138.158 129.924C138.06 129.218 138.247 128.501 138.678 127.932C139.108 127.363 139.747 126.989 140.454 126.891C141.16 126.793 141.877 126.98 142.446 127.41C148.796 131.551 156.5 133.08 163.95 131.676C164.297 131.61 164.653 131.613 164.999 131.686C165.345 131.758 165.673 131.897 165.965 132.096C166.257 132.295 166.507 132.549 166.701 132.845C166.894 133.14 167.028 133.471 167.094 133.818C167.159 134.165 167.156 134.522 167.084 134.868C167.012 135.213 166.873 135.542 166.674 135.834C166.475 136.126 166.22 136.376 165.925 136.569C165.629 136.763 165.299 136.896 164.952 136.962C162.81 137.37 160.634 137.577 158.454 137.58Z" fill="#66773E"/>
<path d="M110.327 132.942C109.896 132.94 109.472 132.834 109.09 132.635C108.709 132.436 108.38 132.148 108.132 131.795C107.884 131.443 107.724 131.036 107.666 130.609C107.607 130.183 107.651 129.748 107.795 129.342C109.217 125.37 111.587 122.796 114.827 121.68C120.695 119.658 127.019 123.588 127.289 123.756C127.878 124.143 128.292 124.746 128.442 125.435C128.592 126.124 128.466 126.845 128.09 127.442C127.715 128.039 127.12 128.464 126.434 128.628C125.748 128.791 125.025 128.679 124.421 128.316C123.221 127.554 119.399 125.79 116.561 126.774C114.929 127.344 113.717 128.778 112.859 131.166C112.67 131.686 112.326 132.136 111.873 132.453C111.42 132.771 110.88 132.942 110.327 132.942Z" fill="#66773E"/>
<path d="M131.538 178.35C131.463 178.35 131.388 178.338 131.316 178.314C131.112 178.257 130.94 178.121 130.836 177.936C130.733 177.752 130.707 177.534 130.764 177.33C131.003 176.681 131.367 176.086 131.837 175.578C132.306 175.07 132.872 174.66 133.5 174.372C136.584 172.782 141.3 173.112 147.486 175.35C147.586 175.386 147.678 175.442 147.756 175.514C147.835 175.586 147.898 175.672 147.943 175.769C147.988 175.866 148.013 175.97 148.017 176.076C148.021 176.183 148.003 176.289 147.966 176.388C147.931 176.488 147.876 176.58 147.804 176.658C147.733 176.736 147.647 176.8 147.551 176.845C147.455 176.889 147.351 176.914 147.245 176.918C147.139 176.922 147.033 176.905 146.934 176.868C139.836 174.3 136.134 174.852 134.334 175.776C133.435 176.157 132.721 176.874 132.342 177.774C132.291 177.946 132.184 178.095 132.038 178.199C131.893 178.303 131.717 178.356 131.538 178.35Z" fill="#66773E"/>
<path d="M106.134 175.392C96.7453 176.226 87.6144 178.908 79.2656 183.282C83.8976 182.406 100.476 202.92 104.736 218.736C112.602 215.826 121.77 213.84 131.544 212.286C125.622 195.984 114.792 177.51 106.134 175.392Z" fill="#003342"/>
<path opacity="0.6" d="M106.134 175.392C96.7453 176.226 87.6144 178.908 79.2656 183.282C83.8976 182.406 100.476 202.92 104.736 218.736C112.602 215.826 121.77 213.84 131.544 212.286C125.622 195.984 114.792 177.51 106.134 175.392Z" fill="white"/>
<path d="M106.131 175.392C95.8827 174.234 79.2447 182.814 79.2447 182.814C76.2987 184.692 77.0967 188.214 78.7047 189.708C80.2467 187.494 97.4427 181.734 103.905 180.96C100.695 177.984 103.683 175.8 106.131 175.392Z" fill="#003342"/>
<path opacity="0.2" d="M106.131 175.392C95.8827 174.234 79.2447 182.814 79.2447 182.814C76.2987 184.692 77.0967 188.214 78.7047 189.708C80.2467 187.494 97.4427 181.734 103.905 180.96C100.695 177.984 103.683 175.8 106.131 175.392Z" fill="white"/>
<path d="M90.9965 200.4C90.5498 200.402 90.1095 200.293 89.7149 200.084C89.3203 199.875 88.9835 199.571 88.7345 199.2C86.7845 196.2 88.0025 191.646 88.2665 190.758C88.4913 190.1 88.9624 189.553 89.5809 189.234C90.1995 188.915 90.9175 188.848 91.5846 189.047C92.2517 189.245 92.816 189.694 93.1593 190.3C93.5027 190.905 93.5984 191.62 93.4265 192.294C92.9885 193.8 92.8985 195.726 93.2465 196.254C93.636 196.853 93.772 197.581 93.6246 198.28C93.4772 198.979 93.0585 199.59 92.4605 199.98C92.0246 200.262 91.5152 200.408 90.9965 200.4Z" fill="#66773E"/>
</svg>
