<svg width="25" height="24" viewBox="0 0 25 24" fill="none" xmlns="http://www.w3.org/2000/svg">
<path d="M23.338 12.1567C23.338 11.4022 23.2768 10.6436 23.1463 9.90137H12.6771V14.1755H18.6723C18.4235 15.554 17.6241 16.7734 16.4536 17.5483V20.3216H20.0304C22.1308 18.3885 23.338 15.5336 23.338 12.1567Z" fill="#4285F4"/>
<path d="M12.6738 23.0017C15.6673 23.0017 18.1918 22.0188 20.0312 20.3222L16.4545 17.5489C15.4593 18.2259 14.1746 18.6093 12.6779 18.6093C9.78223 18.6093 7.32705 16.6558 6.44612 14.0293H2.75519V16.8882C4.6394 20.6363 8.47715 23.0017 12.6738 23.0017Z" fill="#34A853"/>
<path d="M6.44304 14.0285C5.97811 12.65 5.97811 11.1574 6.44304 9.77886V6.91992H2.75619C1.18194 10.0562 1.18194 13.7512 2.75619 16.8875L6.44304 14.0285Z" fill="#FBBC04"/>
<path d="M12.6738 5.19492C14.2562 5.17045 15.7856 5.76589 16.9316 6.85889L20.1005 3.69C18.094 1.80579 15.4308 0.769879 12.6738 0.802506C8.47715 0.802506 4.6394 3.16796 2.75519 6.92007L6.44204 9.77901C7.31889 7.14846 9.77815 5.19492 12.6738 5.19492Z" fill="#EA4335"/>
</svg>
