<svg width="11" height="26" viewBox="0 0 11 26" fill="none" xmlns="http://www.w3.org/2000/svg">
<path d="M1.521 10.158L6.426 11.364C6.69 11.16 6.9 10.929 7.056 10.671C7.212 10.413 7.29 10.107 7.29 9.753C7.29 9.531 7.245 9.321 7.155 9.123C7.071 8.925 6.939 8.754 6.759 8.61C6.585 8.46 6.369 8.343 6.111 8.259C5.853 8.175 5.553 8.133 5.211 8.133C4.821 8.133 4.485 8.184 4.203 8.286C3.921 8.382 3.678 8.49 3.474 8.61C3.27 8.724 3.096 8.829 2.952 8.925C2.808 9.021 2.679 9.069 2.565 9.069C2.457 9.069 2.367 9.045 2.295 8.997C2.223 8.943 2.154 8.862 2.088 8.754L1.575 7.746C2.025 7.314 2.562 6.981 3.186 6.747C3.81 6.513 4.494 6.396 5.238 6.396C5.898 6.396 6.483 6.489 6.993 6.675C7.509 6.861 7.941 7.11 8.289 7.422C8.643 7.734 8.91 8.097 9.09 8.511C9.276 8.925 9.369 9.357 9.369 9.807C9.369 10.269 9.306 10.671 9.18 11.013C9.054 11.355 8.886 11.658 8.676 11.922L10.125 12.273L9.864 13.272L7.722 12.75C7.524 12.876 7.317 12.993 7.101 13.101C6.885 13.209 6.666 13.314 6.444 13.416L9.648 14.199L9.396 15.207L4.914 14.109C4.68 14.229 4.461 14.361 4.257 14.505C4.059 14.643 3.885 14.799 3.735 14.973C3.585 15.147 3.468 15.342 3.384 15.558C3.3 15.774 3.258 16.02 3.258 16.296C3.258 16.578 3.309 16.821 3.411 17.025C3.519 17.223 3.672 17.388 3.87 17.52C4.068 17.646 4.305 17.742 4.581 17.808C4.863 17.868 5.178 17.898 5.526 17.898C6 17.898 6.402 17.835 6.732 17.709C7.068 17.577 7.356 17.436 7.596 17.286C7.836 17.13 8.04 16.989 8.208 16.863C8.376 16.731 8.529 16.665 8.667 16.665C8.769 16.665 8.859 16.689 8.937 16.737C9.021 16.785 9.09 16.851 9.144 16.935L9.756 17.943C9.51 18.201 9.231 18.435 8.919 18.645C8.613 18.855 8.28 19.035 7.92 19.185C7.566 19.329 7.191 19.44 6.795 19.518C6.405 19.602 6.003 19.644 5.589 19.644C4.887 19.644 4.26 19.56 3.708 19.392C3.162 19.224 2.7 18.987 2.322 18.681C1.95 18.369 1.665 17.994 1.467 17.556C1.269 17.112 1.17 16.617 1.17 16.071C1.17 15.771 1.203 15.498 1.269 15.252C1.335 15 1.425 14.772 1.539 14.568C1.659 14.358 1.8 14.166 1.962 13.992C2.124 13.818 2.301 13.659 2.493 13.515L0.783 13.092L1.053 12.093L3.753 12.759C3.981 12.645 4.212 12.537 4.446 12.435C4.68 12.327 4.911 12.219 5.139 12.111L1.26 11.157L1.521 10.158Z" fill="#4F4F4F"/>
</svg>
