<svg width="120" height="16" viewBox="0 0 120 16" fill="none" xmlns="http://www.w3.org/2000/svg">
<g clip-path="url(#clip0_891_3667)">
<path d="M41.4801 4.3653C41.4801 3.16532 40.9832 2.11078 40.1421 1.31079C39.3394 0.547168 38.1925 0.0380859 36.9692 0.0380859H26.3799V16.0015H29.3617V8.65613H32.3435C33.4139 8.65613 34.3696 9.20157 34.8666 10.0379L34.9431 10.1834L36.5487 13.1651L38.0778 16.0015H41.4419L39.9128 13.1651L37.5044 8.61976C37.9631 8.5834 38.3836 8.47431 38.8042 8.2925C40.4097 7.6016 41.4801 6.11072 41.4801 4.3653ZM37.5808 5.67436C37.3897 5.78345 37.1603 5.81982 36.9692 5.81982L29.3617 5.85617V2.91077H36.9692C37.5044 2.91077 37.8484 3.12894 38.0396 3.31076C38.1925 3.45621 38.4983 3.81985 38.4983 4.3653C38.4983 4.9471 38.1543 5.45618 37.5808 5.67436Z" fill="white"/>
<path d="M87.3126 0.0380859H83.528L78.9405 5.74709L74.3149 0.0380859H70.5303L77.0291 8.07432L70.5685 16.0015H74.3531L78.9405 10.4016L83.528 16.0015H87.2744H87.3126L80.852 8.07432L87.3508 0.0380859H87.3126Z" fill="white"/>
<path d="M96.8685 0.0380859H93.8867V16.0015H96.8685V0.0380859Z" fill="white"/>
<path d="M119.963 4.43628V4.3272C119.963 1.9636 117.937 0 115.414 0H108.61C106.125 0 104.099 1.92724 104.099 4.3272V4.43628C104.099 5.34536 104.404 6.18171 104.901 6.87261C105.054 7.12715 105.245 7.34533 105.475 7.56351C106.278 8.32713 107.386 8.76348 108.61 8.76348H114.65C115.911 8.76348 116.982 9.74529 116.982 10.9453C116.982 12.1452 115.911 13.127 114.65 13.127H109.412C108.151 13.127 107.119 12.1452 107.119 10.9453H104.137C104.137 13.7452 106.507 15.9997 109.451 15.9997H114.688C117.632 15.9997 120.002 13.7452 120.002 10.9453C120.002 9.74529 119.543 8.61804 118.817 7.74532C118.74 7.6726 118.702 7.59987 118.625 7.52714C117.67 6.50898 116.294 5.89081 114.726 5.89081H108.686C107.845 5.89081 107.157 5.23627 107.157 4.43628V4.3272C107.157 3.52721 107.845 2.87268 108.686 2.87268H115.491C116.332 2.87268 117.02 3.52721 117.02 4.3272V4.43628H119.963Z" fill="white"/>
<path d="M3.02006 7.99987C3.02006 10.8362 5.42845 13.127 8.41028 13.127H13.8005V10.0726H8.41028V7.23624H16.8206V15.9997H8.41028C3.78462 15.9997 0 12.4362 0 7.99987C0 3.56358 3.7464 0 8.41028 0H16.8206V2.83631H8.41028C5.42845 2.87268 3.02006 5.16355 3.02006 7.99987Z" fill="white"/>
<path d="M55.3224 2.5835L60.2921 0.0380859L50.6203 16.0015H47.1797L55.3224 2.5835Z" fill="#C0D32C"/>
<path d="M58.6035 6.25684L56.7686 9.27497L60.3238 16.0021H63.8408L58.6035 6.25684Z" fill="white"/>
</g>
<defs>
<clipPath id="clip0_891_3667">
<rect width="120" height="16" fill="white"/>
</clipPath>
</defs>
</svg>
