<svg width="321" height="260" viewBox="0 0 321 260" fill="none" xmlns="http://www.w3.org/2000/svg">
<path d="M68.8611 182.127C52.3428 192.977 31.0458 170.501 15.2848 182.127C7.97189 187.522 3.6602 191.972 2.44118 200.11C0.891726 210.453 7.17022 216.626 15.2004 224.521L15.2848 224.604C36.4871 245.449 66.0542 224.604 98.5849 224.604C148.599 224.604 176.876 228.701 226.654 224.604C253.483 222.395 285.403 237.234 294.909 215.922C298.75 207.311 300.728 200.137 294.909 192.359C289.932 185.706 282.641 185.73 274.359 182.127C256.703 174.446 233.437 183.015 226.654 167.245C223.62 160.189 223.169 154.927 226.654 148.022C229.756 141.877 234.209 139.554 240.599 135.62C257.866 124.988 285.44 146.221 294.909 130.039C299.926 121.464 300.284 113.964 294.909 105.545C288.489 95.4888 275.656 98.1265 264.084 92.213C254.561 87.346 244.74 87.2997 240.599 78.5709C236.645 70.2374 239.195 63.2444 245.369 55.9373C250.473 49.897 256.142 48.5652 264.084 45.3957C275.273 40.9307 285.98 46.4329 294.909 39.1947C303.183 32.4882 307.885 24.7702 304.083 15.6311C299.769 5.26066 287.05 5.34105 274.359 2.9191C250.864 -1.56483 237.41 9.23391 214.545 15.6311C197.442 20.416 189.514 28.1948 171.61 29.8933C146.392 32.2857 133.55 20.585 108.86 15.6311C79.8474 9.8099 61.5943 -6.62988 33.9998 2.9191C19.2104 8.03693 2.14048 11.4318 2.44118 24.9325C2.57437 30.9124 4.26542 34.7841 9.04647 39.1947C15.9069 45.5238 23.9547 44.1218 33.9998 45.3957C44.9122 46.7796 52.9031 40.4481 62.2558 45.3957C75.435 52.3676 76.4621 67.1098 68.8611 78.5709C63.1283 87.215 54.7306 89.2468 43.5408 92.213C30.6877 95.6201 19.2076 84.7407 9.04647 92.213C-0.239828 99.042 -0.380823 108.132 2.44118 118.257C3.82242 123.213 4.89175 126.351 9.04647 130.039C15.997 136.208 24.0307 134.357 33.9998 135.62C47.4636 137.325 57.16 129.74 68.8611 135.62C79.2147 140.822 84.8069 147.466 85.3743 157.633C85.9881 168.629 79.1474 175.37 68.8611 182.127Z" fill="#F5F5F5"/>
<path d="M289.398 189.317C283.677 185.22 277.353 182.225 271.138 179.015C265.722 176.218 260.84 172.834 255.23 170.146C242.458 164.027 229.615 157.375 217.221 150.899C216.389 150.464 215.529 150.139 214.657 149.91C216.383 150.363 217.649 123.91 217.503 121.538C216.926 112.168 214.859 102.901 211.414 94.1921C207.881 85.2618 202.902 76.9328 196.717 69.6471C193.629 66.0094 190.135 63.0583 186.684 59.8699C182.943 56.4137 180.007 52.4323 175.165 50.4148C158.615 43.5196 142.642 38.2561 124.466 39.8021C107.012 41.2869 90.0921 48.1488 76.5959 59.5416C64.3345 69.8918 57.358 82.2462 51.2273 96.8981C50.6599 98.254 50.0924 99.6104 49.525 100.966C42.8604 116.894 44.5882 138.05 49.8222 154.267C55.3669 171.448 66.1522 186.683 80.4668 197.409C88.2022 203.205 96.7659 210.033 106.669 211.14C116.102 212.195 124.797 214.822 134.47 214.483C153.12 213.83 171.375 206.897 185.867 194.929C190.442 191.152 194.629 186.893 198.344 182.241C199.035 182.828 199.796 183.35 200.628 183.784C203.259 183.784 208.906 187.898 211.32 189.198C215.402 191.396 219.256 194.117 223.279 196.441C233.277 202.217 243.904 206.394 254.004 211.671C258.639 214.092 263.273 216.513 267.907 218.934C269.217 219.619 270.586 220.243 271.86 220.997C276.653 223.836 281.794 224.256 287.382 224.329C289.207 224.352 291.097 224.284 292.744 223.484C294.261 222.748 295.437 221.456 296.555 220.178C299.172 217.183 301.778 213.889 302.432 209.937C303.141 205.651 301.375 201.247 298.663 197.889C295.97 194.554 292.816 191.766 289.398 189.317ZM192.946 158.994C175.11 194.344 132.487 208.288 97.7476 190.138C63.0077 171.988 49.3046 128.616 67.1412 93.2655C84.9778 57.9146 127.6 43.9709 162.34 62.1211C197.08 80.2716 210.783 123.643 192.946 158.994Z" fill="#074A5E"/>
<path opacity="0.18" d="M180.038 177.007C207.652 148.908 207.652 103.351 180.038 75.2521C152.425 47.1533 107.655 47.1533 80.0414 75.2521C52.428 103.351 52.428 148.908 80.0414 177.007C107.655 205.105 152.425 205.105 180.038 177.007Z" fill="#B4FFFF"/>
<g opacity="0.9">
<path d="M157.538 178.063C156.915 178.815 156.258 179.538 155.55 180.217C155.211 180.543 154.856 180.85 154.506 181.164C154.268 181.337 154.038 181.522 153.798 181.695C153.007 182.266 152.185 182.798 151.338 183.289C150.912 183.535 150.481 183.772 150.045 183.998C149.826 184.112 149.605 184.223 149.384 184.332C149.342 184.352 149.296 184.378 149.25 184.406C149.254 184.403 149.257 184.401 149.261 184.398C149.256 184.402 149.251 184.405 149.246 184.408C149.168 184.455 149.089 184.508 149.017 184.558C148.293 184.986 147.225 185.227 146.474 185.487C145.406 185.857 144.321 186.181 143.224 186.465C142.736 186.591 142.244 186.709 141.751 186.819C141.476 186.881 140.482 186.927 140.276 187.119C140.093 187.148 139.91 187.179 139.726 187.206C139.165 187.292 138.602 187.368 138.038 187.435C136.004 187.678 133.955 187.805 131.906 187.83C130.975 187.842 130.044 187.832 129.114 187.801C128.649 187.785 128.185 187.764 127.721 187.738C127.621 187.732 127.421 187.742 127.299 187.75C127.353 187.746 127.428 187.74 127.535 187.732C128.372 187.665 127.214 187.704 127.003 187.685C123.131 187.335 119.294 186.625 115.554 185.587C114.66 185.339 113.772 185.073 112.889 184.788C112.736 184.739 112.583 184.688 112.429 184.637C111.94 184.446 111.435 184.284 110.944 184.098C109.1 183.398 107.288 182.617 105.514 181.763C103.79 180.933 102.102 180.032 100.455 179.065C99.6061 178.566 98.7682 178.051 97.9418 177.518C97.8386 177.451 97.7359 177.384 97.6332 177.316C97.642 177.327 97.6503 177.336 97.6595 177.347C97.6494 177.335 97.6358 177.323 97.6249 177.311C97.5367 177.253 97.4489 177.196 97.3602 177.138C97.2048 177.037 97.1307 176.954 97.121 176.915C96.8625 176.751 96.5825 176.599 96.3797 176.454C93.2324 174.206 90.2777 171.701 87.567 168.966C86.9205 168.314 86.2876 167.65 85.6692 166.972C85.3773 166.652 85.0916 166.328 84.8055 166.004C84.6387 165.801 84.4684 165.601 84.302 165.399C83.07 163.897 81.9074 162.341 80.8207 160.737C79.6071 158.944 78.4906 157.09 77.4785 155.183C77.2388 154.731 77.0053 154.276 76.7775 153.818C76.6897 153.642 76.4172 152.95 76.6915 153.648C76.9891 154.405 76.6178 153.479 76.544 153.318C76.0709 152.284 75.6285 151.236 75.2185 150.176C74.4053 148.076 73.6943 145.923 73.1895 143.731C73.1829 143.702 73.1711 143.652 73.1575 143.594C73.1276 143.427 73.0412 142.992 73.028 142.903C72.9314 142.259 72.859 141.611 72.8208 140.961C72.8129 140.828 72.7449 140.135 72.7348 139.614C72.7418 139.572 72.7607 139.449 72.7998 139.19C72.8581 138.804 72.9135 138.42 72.9859 138.035C73.4849 135.391 71.753 132.401 68.8874 131.947C66.1153 131.508 63.1677 133.101 62.6326 135.936C61.6455 141.17 62.7318 146.427 64.4488 151.403C65.8651 155.508 67.755 159.496 69.982 163.243C74.2969 170.502 80.147 177.026 86.8635 182.271C100.604 193 118.278 199.227 135.991 197.963C146.821 197.189 158.293 193.515 165.324 185.029C167.055 182.94 167.293 179.622 165.01 177.757C162.932 176.06 159.395 175.822 157.538 178.063ZM72.8046 139.02C72.8143 139.016 72.7489 139.485 72.7339 139.604C72.7278 139.294 72.7431 139.047 72.8046 139.02Z" fill="white"/>
</g>
<path d="M105.662 168.896C105.37 168.534 105.197 168.462 105.212 168.527C105.384 168.641 105.543 168.762 105.655 168.891C105.657 168.893 105.66 168.894 105.662 168.896Z" fill="#456184"/>
<g opacity="0.9">
<path d="M181.399 156.1C179.107 155.031 176.33 155.788 175.14 158.148C174.029 160.349 174.867 163.452 177.152 164.517C179.444 165.586 182.221 164.829 183.411 162.47C184.522 160.268 183.684 157.165 181.399 156.1Z" fill="white"/>
</g>
<path d="M202.532 56.7685C199.058 55.4844 197.1 60.9868 200.588 62.2759C216.727 68.241 228.03 84.9441 227.545 102.452C227.441 106.199 233.17 106.726 233.274 102.948C233.832 82.8182 221.172 63.6578 202.532 56.7685Z" fill="#456184"/>
<path d="M67.832 107.319C72.2006 91.8895 84.2711 74.1309 99.7796 67.3071" stroke="#A3E7FB" stroke-width="2.48136" stroke-linecap="round"/>
<path d="M141.965 58.0018C160.617 62.6895 184.815 80.7449 194.145 100.804" stroke="#A3E7FB" stroke-width="2.48136" stroke-linecap="round"/>
<path d="M212.764 42.3877C209.448 40.7403 207.52 46.2556 210.82 47.8951C230.725 57.7851 244.032 79.7195 243.914 102.237C243.894 105.975 249.623 106.51 249.643 102.732C249.777 77.3579 235.152 53.5114 212.764 42.3877Z" fill="#456184"/>
<path d="M19.4632 131.758C17.0634 144.972 22.6826 158.798 33.3127 166.68C36.3039 168.899 39.6163 164.117 36.6243 161.898C27.5086 155.138 23.1528 143.487 25.1933 132.253C25.8642 128.555 20.1314 128.077 19.4632 131.758Z" fill="#456184"/>
<path d="M4.5517 141.083C4.10084 151.793 8.408 161.81 16.2769 168.887C19.045 171.377 22.3351 166.575 19.5886 164.105C13.3177 158.465 9.92465 150.055 10.2813 141.579C10.4388 137.83 4.71035 137.307 4.5517 141.083Z" fill="#456184"/>
<path d="M242.685 163.575C242.482 163.57 242.292 163.584 242.118 163.623C237.774 164.594 236.32 174.432 234.613 177.815C231.592 183.8 228.495 189.746 225.362 195.672C223.85 198.532 225.393 198.716 227.603 199.811C229.288 200.646 230.972 201.483 232.656 202.32C237.554 204.75 242.451 207.181 247.348 209.612C258.535 215.165 269.722 220.718 280.909 226.271C286.558 229.075 292.41 232.915 298.365 234.936C302.804 236.442 308.264 234.853 312.293 232.286C320.042 227.346 323.887 213.812 317.925 206.06C315.845 203.355 312.894 201.512 309.997 199.75C294.872 190.546 279.404 181.927 263.638 173.916C259.802 171.967 255.95 170.055 252.08 168.178C250.052 167.194 245.288 163.653 242.685 163.575Z" fill="#003342"/>
<circle cx="108.151" cy="112.281" r="7.44408" fill="#003342"/>
<circle cx="148.475" cy="112.281" r="7.44408" fill="#003342"/>
<circle cx="104.432" cy="109.18" r="1.24068" fill="white"/>
<circle cx="145.377" cy="108.56" r="1.24068" fill="white"/>
<path d="M163.337 162.079C165.314 161.518 166.48 159.452 165.725 157.54C163.195 151.136 158.927 145.533 153.369 141.385C146.814 136.493 138.829 133.896 130.65 133.997C122.47 134.097 114.552 136.889 108.119 141.942C102.664 146.225 98.5354 151.93 96.1638 158.395C95.456 160.325 96.6724 162.362 98.6627 162.873C100.653 163.385 102.66 162.174 103.416 160.263C105.348 155.377 108.548 151.067 112.715 147.794C117.862 143.752 124.197 141.519 130.741 141.438C137.285 141.358 143.673 143.435 148.918 147.35C153.164 150.519 156.47 154.749 158.521 159.586C159.324 161.478 161.36 162.639 163.337 162.079Z" fill="#003342"/>
<path d="M66.5938 138.336C68.7649 148.261 74.0378 160.978 85.204 173.075C91.7495 180.166 102.263 186.412 111.568 189.824" stroke="#A3E7FB" stroke-width="2.48136" stroke-linecap="round"/>
<path d="M237.496 196.958C254.555 205.953 286.503 223.322 303.873 228.595" stroke="white" stroke-width="1.24068" stroke-linecap="round"/>
<path d="M308.523 228.595C314.975 226.114 317.829 218.463 318.449 214.948" stroke="white" stroke-width="1.24068" stroke-linecap="round"/>
<circle cx="22.8519" cy="71.6493" r="7.75425" fill="#EAEAEA"/>
<circle cx="88.9194" cy="243.173" r="14.8882" fill="#EAEAEA"/>
<circle cx="175.765" cy="226.424" r="9.92545" fill="#EAEAEA"/>
<circle cx="47.9801" cy="189.824" r="9.92545" fill="#EAEAEA"/>
</svg>
