<svg width="20" height="22" viewBox="0 0 20 22" fill="none" xmlns="http://www.w3.org/2000/svg">
<path d="M19.1231 16.4375C18.9603 16.7239 18.7241 16.9617 18.4389 17.1265C18.1537 17.2913 17.8297 17.377 17.5003 17.375L19.1231 16.4375ZM19.1231 16.4375C19.2878 16.1513 19.3744 15.8267 19.3741 15.4965M19.1231 16.4375L19.3741 15.4965M19.3741 15.4965C19.3738 15.1662 19.2865 14.8418 19.1212 14.5559L19.3741 15.4965ZM0.935234 14.5874L0.93524 14.5873C1.75658 13.1746 2.18777 11.1542 2.18777 8.75C2.18777 6.678 3.01087 4.69086 4.476 3.22573C5.94113 1.7606 7.92827 0.9375 10.0003 0.9375C12.0723 0.9375 14.0594 1.7606 15.5245 3.22573C16.9897 4.69086 17.8128 6.678 17.8128 8.75C17.8128 11.1533 18.2458 13.1746 19.0671 14.5873C19.227 14.8637 19.3113 15.1773 19.3116 15.4965C19.3119 15.8158 19.2282 16.1296 19.0689 16.4063L19.0687 16.4066C18.9115 16.6833 18.6833 16.9131 18.4076 17.0724C18.132 17.2316 17.819 17.3145 17.5007 17.3125H17.5003H14.1084H14.0513L14.0462 17.3694C13.9545 18.3791 13.4887 19.3181 12.74 20.0019C11.9914 20.6856 11.0142 21.0648 10.0003 21.0648C8.98638 21.0648 8.00913 20.6856 7.26051 20.0019C6.51189 19.3181 6.04601 18.3791 5.95439 17.3694L5.94923 17.3125H5.89215L2.50027 17.3125L2.49979 17.3125C2.18103 17.315 1.8674 17.2323 1.59126 17.0731C1.31513 16.9138 1.0865 16.6837 0.928981 16.4066L0.928889 16.4065C0.770283 16.1293 0.687374 15.8154 0.688488 15.4961C0.689601 15.1768 0.774698 14.8634 0.935234 14.5874ZM8.16277 17.3125H8.08622L8.10153 17.3875C8.19086 17.8251 8.42865 18.2185 8.77466 18.5009C9.12066 18.7834 9.55363 18.9376 10.0003 18.9375C10.4469 18.9376 10.8799 18.7834 11.2259 18.5009C11.5719 18.2185 11.8097 17.8251 11.899 17.3875L11.9143 17.3125H11.8378H8.16277ZM3.06856 15.0974L3.02427 15.1875H3.12465H16.875H16.9753L16.931 15.0974C16.1068 13.421 15.6878 11.2871 15.6878 8.75C15.6878 7.24158 15.0886 5.79494 14.0219 4.72833C12.9553 3.66172 11.5087 3.0625 10.0003 3.0625C8.49185 3.0625 7.04521 3.66172 5.9786 4.72833C4.91199 5.79494 4.31277 7.24158 4.31277 8.75C4.31277 11.288 3.89281 13.421 3.06856 15.0974Z" fill="#003342" stroke="#003342" stroke-width="0.125"/>
</svg>
