<svg width="66" height="62" viewBox="0 0 66 62" fill="none" xmlns="http://www.w3.org/2000/svg">
<path fill-rule="evenodd" clip-rule="evenodd" d="M23.9372 0.779688C21.7332 0.839688 19.8522 0.979687 19.7572 1.05969C19.6812 1.15969 19.5862 3.55969 19.5482 6.39969L19.4912 11.5597L21.4482 11.6797C22.5312 11.7397 24.5262 11.8197 25.8752 11.8397L28.3452 11.8997L28.4592 8.89969C28.5352 7.23969 28.6112 4.71969 28.6492 3.29969C28.6872 0.859687 28.6682 0.699688 28.3262 0.679688C28.1362 0.679688 26.1602 0.719688 23.9372 0.779688ZM28.3072 4.63969C28.2692 6.65969 28.1932 9.03969 28.1362 9.95969L28.0222 11.6197L24.5832 11.4997C22.6832 11.4397 20.8402 11.3397 20.5172 11.2797L19.8902 11.1797V6.19969V1.21969L21.9422 1.13969C23.0632 1.11969 24.9632 1.05969 26.1792 1.03969L28.3832 0.999687L28.3072 4.63969Z" fill="#FCFFE8"/>
<path fill-rule="evenodd" clip-rule="evenodd" d="M23.6524 2.33922C21.9234 2.39922 21.6004 2.45922 21.5244 2.75922C21.4864 2.93922 21.4104 4.67922 21.3724 6.59922L21.3154 10.0992L24.1274 10.1592L26.9204 10.2192V6.19922V2.19922L26.3124 2.23922C25.9704 2.25922 24.7734 2.31922 23.6524 2.33922ZM26.5404 4.31922C26.5404 5.61922 26.4834 5.99922 26.3124 5.91922C24.9634 5.33922 23.9184 5.15922 22.8924 5.33922L21.7904 5.51922V4.15922V2.81922L23.3674 2.73922C24.2224 2.71922 25.2864 2.65922 25.7424 2.63922L26.5404 2.59922V4.31922ZM25.7994 5.93922C26.4264 6.19922 26.5404 6.33922 26.5404 6.81922C26.5404 7.13922 26.5214 7.39922 26.5024 7.39922C26.4644 7.39922 26.0274 7.17922 25.5144 6.89922C24.4504 6.31922 23.5954 6.25922 22.6074 6.69922C21.7524 7.07922 21.7904 7.09922 21.7904 6.39922C21.7904 5.91922 21.8854 5.77922 22.3224 5.67922C22.6074 5.61922 22.9304 5.53922 23.0254 5.47922C23.3674 5.33922 25.0394 5.61922 25.7994 5.93922ZM25.6854 7.25922C26.2934 7.61922 26.4644 7.83922 26.5024 8.35922C26.5784 9.09922 26.5404 9.11922 25.7234 8.67922C25.0774 8.31922 23.1774 8.19922 22.3224 8.45922C21.8284 8.59922 21.7904 8.55922 21.7904 8.03922C21.7904 7.59922 21.9234 7.39922 22.4174 7.13922C23.3294 6.65922 24.7734 6.71922 25.6854 7.25922ZM25.9324 9.07922C26.2554 9.25922 26.5404 9.53922 26.5404 9.71922C26.5404 9.95922 26.1794 9.99922 24.1274 9.95922C21.9804 9.89922 21.6954 9.85922 21.6384 9.53922C21.4674 8.63922 24.5264 8.31922 25.9324 9.07922Z" fill="#FCFFE8"/>
<path fill-rule="evenodd" clip-rule="evenodd" d="M24.9058 3.87961C24.7158 4.39961 24.9818 4.83961 25.4378 4.75961C25.7608 4.71961 25.8748 4.55961 25.8748 4.19961C25.8748 3.83961 25.7608 3.67961 25.4378 3.63961C25.1908 3.59961 24.9628 3.69961 24.9058 3.87961Z" fill="#FCFFE8"/>
<path fill-rule="evenodd" clip-rule="evenodd" d="M8.86952 13.1984C8.86952 16.8984 8.81252 17.9984 8.64152 18.0184C8.50852 18.0384 8.69852 18.1184 9.05952 18.1984C9.42052 18.2984 9.91452 18.4184 10.1615 18.4984C10.5605 18.6384 10.5795 18.5984 10.5795 17.3784C10.5795 16.6784 10.6365 14.8184 10.7125 13.2384L10.8265 10.3984H13.3535H15.8615L15.9755 12.0384C16.0325 12.9584 16.1085 14.9784 16.1465 16.5384L16.2225 19.3984H13.6005C11.0925 19.3984 10.9595 19.3784 10.9595 18.9984C10.9595 18.5184 10.9595 18.5184 10.2755 18.8984C9.62952 19.2584 7.93852 19.2984 7.25452 18.9584C6.62752 18.6584 6.64652 18.4384 7.31152 18.2784C8.12852 18.0984 8.24252 18.0384 7.78652 18.0184C7.55852 17.9984 7.15952 18.0984 6.91252 18.2184C6.34252 18.4984 6.20952 19.1384 6.20952 21.8984V23.9184L4.57552 24.7584C3.66352 25.2384 2.97952 25.6584 3.03652 25.7184C3.09352 25.7784 3.81552 25.4584 4.67052 25.0184L6.19052 24.1984L6.89352 24.6984C8.43252 25.7984 10.2565 25.4984 10.7885 24.0584C10.8645 23.8184 11.1685 23.5584 11.4345 23.4784C11.7765 23.3984 12.0235 23.0784 12.3465 22.3584L12.7645 21.3584L15.2915 21.4584L17.8375 21.5784L17.7235 16.6384C17.6475 13.9184 17.5525 10.9584 17.4955 10.0384L17.3815 8.39844H13.1255H8.86952V13.1984ZM8.67952 19.2984C9.36352 19.2984 10.1235 19.2184 10.3705 19.1184L10.8265 18.9584L10.6935 21.3184C10.5225 24.2784 10.4465 24.5784 9.87652 24.8184C8.77452 25.2584 6.98852 24.8584 6.70352 24.0984C6.64652 23.9184 6.58952 22.6784 6.58952 21.3784V18.9784L7.02652 19.1384C7.25452 19.2184 7.99552 19.2984 8.67952 19.2984ZM12.2895 21.0384C12.2895 21.9784 11.7765 23.0384 11.1685 23.3984C10.5985 23.6984 10.6745 23.4184 11.3395 22.6984C11.7005 22.3184 11.9665 21.7584 12.0425 21.2984L12.1565 20.5384L11.5295 20.6584C10.9975 20.7784 10.9405 20.7584 11.1495 20.4984C11.2825 20.3384 11.5865 20.1984 11.8335 20.1984C12.2515 20.1984 12.2895 20.2784 12.2895 21.0384ZM11.6245 21.9784C11.1115 23.0384 10.6365 23.0584 10.8645 22.0184C10.9595 21.5384 11.0925 21.3984 11.4535 21.3984C11.9095 21.3984 11.9095 21.4184 11.6245 21.9784Z" fill="#FCFFE8"/>
<path fill-rule="evenodd" clip-rule="evenodd" d="M11.7765 12.7403C11.7195 12.9403 11.6055 13.1803 11.5675 13.3003C11.5105 13.4003 11.5865 13.3803 11.7575 13.2403C11.9665 13.0803 12.0995 13.0603 12.1755 13.1803C12.2515 13.3003 12.4795 13.3203 12.7265 13.2403C12.9545 13.1403 13.5055 13.1003 13.9615 13.1203C14.7785 13.1603 14.9305 13.0403 14.2465 12.9003C14.0565 12.8603 13.8665 12.8203 13.8095 12.8003C13.7525 12.7803 13.3915 12.7603 13.0115 12.7603C12.6125 12.7603 12.2895 12.6803 12.2895 12.5803C12.2895 12.2603 11.9095 12.4003 11.7765 12.7403Z" fill="#FCFFE8"/>
<path fill-rule="evenodd" clip-rule="evenodd" d="M23.8418 13.7396L19.6998 13.7996L19.8138 24.0596C19.8708 29.6796 19.9468 34.4196 20.0038 34.5396C20.0418 34.7196 20.4788 34.7996 21.3148 34.7996C21.9988 34.7996 22.5498 34.8196 22.5498 34.8596C22.5498 34.8796 21.9988 35.5196 21.3148 36.2396C18.7308 39.0396 17.3438 42.0796 17.3438 44.9796C17.3628 46.5796 17.7808 48.2996 18.3888 49.2196C18.7308 49.7396 18.7308 49.7796 18.3698 50.6196C17.1348 53.5196 19.1867 55.8796 24.2977 57.3796C26.0458 57.8796 26.2548 57.9996 26.3118 58.4196C26.4828 60.0196 26.7867 60.1796 27.6228 59.0996L28.1738 58.3996L30.0738 58.6996C31.0998 58.8796 33.3038 59.0596 34.9378 59.1396L37.9207 59.2596L38.4528 60.3396C38.7378 60.9196 39.0798 61.3996 39.2128 61.3996C39.5738 61.3996 40.3908 60.2396 40.5998 59.4196C40.8468 58.4196 40.5998 57.6996 39.8398 57.2396C39.5358 57.0596 39.2698 56.8396 39.2698 56.7396C39.2698 56.6596 39.1558 56.5996 39.0228 56.5996C38.8898 56.5996 37.9207 55.7196 36.8757 54.6396C35.8498 53.5596 34.5198 52.2596 33.9688 51.7596L32.9238 50.8396L34.0068 50.1196C34.5958 49.7196 35.3178 49.3996 35.6028 49.3996C35.8878 49.3996 37.5408 48.8796 39.2698 48.2396L42.4048 47.0996L42.4618 46.2396C42.5188 45.3396 42.7467 45.1596 43.0507 45.7796C43.2977 46.2596 45.7868 48.2396 46.8698 48.7996C48.9598 49.9196 50.8408 50.2796 51.9048 49.7596C52.1707 49.6396 52.4368 49.5996 52.5128 49.6796C52.5888 49.7396 52.6267 50.3796 52.6267 51.0996C52.6077 52.6796 51.9998 53.8996 50.8028 54.7796C48.9218 56.1396 46.9838 56.6196 42.7847 56.8196L39.5548 56.9596L43.0697 56.8996C45.9958 56.8596 46.8127 56.7796 47.9717 56.4196C49.9478 55.8196 51.0688 55.1596 51.9428 54.1196L52.7028 53.2196L53.3488 53.9396C54.2798 54.9596 54.9827 55.1996 57.4907 55.3396C59.4478 55.4396 59.8088 55.3996 60.5688 55.0596C61.6518 54.5596 61.9557 53.9196 62.3358 51.3996C62.6968 48.9996 63.1148 43.5196 62.9628 43.1196C62.8868 42.9396 62.5448 42.5996 62.1648 42.3796L61.4998 41.9596L62.4878 41.0396C63.6848 39.8796 64.4068 38.7396 64.9388 37.0596C65.3188 35.8396 65.3188 35.1996 64.9388 35.1996C64.8438 35.1996 64.4068 35.5196 63.9698 35.8996C63.5328 36.2796 63.1528 36.5996 63.1148 36.5996C63.0768 36.5996 63.3428 35.8996 63.7228 35.0596C64.8818 32.4196 65.4138 30.3996 64.9578 30.3996C64.4068 30.3996 61.7467 33.2196 59.9608 35.6996C59.5238 36.2996 59.1438 36.7796 59.1248 36.7596C59.0868 36.7196 59.2768 35.7796 59.5048 34.6596C60.0368 32.2196 60.2648 30.2196 60.0748 29.6196C59.6567 28.2396 58.1178 30.2196 56.4458 34.2996C56.3317 34.5596 56.2558 33.6196 56.2178 31.7396C56.1798 29.4996 56.1038 28.7996 55.9328 28.8396C55.5528 28.9796 55.0778 30.2796 54.6788 32.2396C54.3558 33.9396 54.2988 34.0596 54.1088 33.5596C53.8618 32.8596 53.5198 30.0396 53.5198 28.5396C53.5198 27.4396 53.5007 27.3796 53.1017 27.4396C51.9997 27.5996 51.4868 30.9996 52.0947 33.9196C52.2658 34.7796 52.6268 36.0396 52.8738 36.6796C53.1208 37.3396 53.2918 37.8996 53.2538 37.9396C53.1588 38.0396 50.9737 35.5196 50.0617 34.2396C49.4917 33.4796 49.1687 33.1996 48.8267 33.1996C48.3517 33.1996 48.3517 33.2396 48.4657 34.1796L48.5798 35.1596L47.8767 34.4596C46.2997 32.9196 44.5138 31.8796 42.3097 31.1996C41.5308 30.9596 40.7708 30.7396 40.6568 30.6996C40.4858 30.6396 40.5998 30.2996 40.9798 29.6596C41.7018 28.4196 41.9298 27.1996 41.6638 25.7996C41.3788 24.3196 40.5808 22.9596 39.4978 22.0396C38.6048 21.2996 38.6048 21.2996 38.6618 20.1996C38.7378 18.3596 37.7118 17.2596 35.6218 16.8996L34.8998 16.7796V15.1996V13.5996L31.4418 13.6396C29.5228 13.6796 26.1028 13.7196 23.8418 13.7396ZM34.5198 15.3796C34.5198 16.8596 34.5198 16.8796 33.7218 17.0796C33.2088 17.1996 33.1898 17.1796 33.1898 16.3996V15.5996H29.3328C27.2048 15.5996 24.6778 15.6596 23.7088 15.7396L21.9798 15.8596L22.0177 24.3796L22.0748 32.8996L23.5568 33.0796L25.0198 33.2396L24.0128 33.9196C23.0438 34.5596 22.9488 34.5796 21.6568 34.4596L20.3077 34.3396L20.1938 26.2196C20.1368 21.7596 20.0227 17.2196 19.9657 16.1596L19.8518 14.2196L21.8278 14.1396C22.9107 14.1196 26.1978 14.0596 29.1618 14.0396L34.5198 13.9996V15.3796ZM32.8098 16.7796C32.8098 17.2196 32.6958 17.6596 32.5248 17.7996C32.0498 18.2196 31.8408 19.3796 32.0878 20.3396C32.3918 21.6396 32.1827 21.7596 30.4157 21.2796L28.9528 20.8996L28.4207 21.5996C28.1167 21.9796 27.6417 22.8796 27.3757 23.6196C27.0907 24.3796 26.7298 25.0396 26.5778 25.0996C26.4068 25.1596 26.0647 24.9996 25.7607 24.6796C25.3617 24.2796 25.1717 24.1996 24.9057 24.3596C24.5067 24.5796 23.4048 25.7796 22.7968 26.6396L22.4168 27.1796L22.2838 25.3596C22.2268 24.3596 22.1698 21.8396 22.1698 19.7596V15.9996H27.4898H32.8098V16.7796ZM29.9028 22.0796L30.3398 22.4596L29.5038 23.3996C28.6298 24.3796 28.0598 25.8596 28.0598 27.0796C28.0788 27.9596 28.6678 29.1796 29.4657 29.9796C29.8457 30.3596 30.1498 30.7796 30.1498 30.8996C30.1498 31.0396 29.6368 31.2796 28.9908 31.4796C28.3637 31.6596 27.3188 32.0596 26.6728 32.3596C25.9698 32.6796 25.2478 32.8796 24.8868 32.8396L24.2788 32.7796L24.7348 31.4996C25.4378 29.5396 25.5708 29.3196 25.9128 29.6196C26.1788 29.8596 26.1788 29.6596 26.0648 27.7996L25.9318 25.6996L26.5208 25.4596C26.8438 25.3396 27.1858 25.0196 27.2807 24.7596C27.3757 24.5196 27.7557 23.5996 28.1357 22.7196C28.8767 21.0196 28.8008 21.0396 29.9028 22.0796ZM25.5138 24.8396C25.5898 24.9796 25.6658 25.9396 25.6848 26.9796C25.7228 28.5396 25.6657 28.9196 25.3807 29.2196C25.1907 29.4196 24.8678 30.2396 24.6398 31.0396C24.4118 31.8396 24.1648 32.5596 24.1077 32.6396C24.0318 32.7196 23.6138 32.7196 23.1768 32.6596L22.3598 32.5396V30.1396V27.7196L23.4238 26.2796C23.9938 25.4796 24.5828 24.7796 24.6968 24.7196C25.0958 24.5596 25.3808 24.5996 25.5138 24.8396ZM35.5838 26.6196C35.8878 26.9596 36.7238 27.5396 37.4268 27.9196L38.7188 28.6196L38.5858 29.3196C38.4718 29.9196 38.5098 30.0396 38.8708 30.1396C39.4408 30.2996 39.3838 31.0596 38.7568 31.6396C38.4528 31.8996 38.0538 32.4796 37.8448 32.9196C37.5788 33.4396 37.1988 33.8596 36.6098 34.1796C36.1348 34.4396 35.9448 34.5996 36.1918 34.5396C36.7618 34.3996 36.7238 34.7196 36.0588 35.4196C35.4318 36.0796 34.9568 36.1396 34.1398 35.6996C33.3608 35.2796 32.8478 34.2996 33.5318 34.5196C33.7028 34.5996 33.5888 34.4596 33.2468 34.2196C32.9048 33.9996 32.4488 33.5196 32.2207 33.1396C31.9738 32.7796 31.5557 32.3196 31.2708 32.1396C30.5297 31.6996 30.3398 30.8396 30.8718 30.3796C31.1568 30.1596 31.2898 29.7996 31.2898 29.3596C31.3088 28.7596 31.4038 28.6396 32.4298 28.0196C33.0378 27.6596 33.8168 27.0396 34.1588 26.6796C34.5008 26.2996 34.8428 25.9996 34.8998 25.9996C34.9568 25.9996 35.2608 26.2796 35.5838 26.6196ZM53.3867 30.0396C53.5387 32.6996 53.8237 33.9196 54.7167 35.7596C55.0967 36.4996 55.5338 37.6996 55.7048 38.3996C56.0658 39.8996 56.5408 42.3996 56.4648 42.3996C56.2747 42.3996 54.2228 39.0996 53.6338 37.8596C52.3418 35.1196 51.7528 31.8996 52.1898 29.6996C52.4178 28.4396 52.8548 27.5196 53.1208 27.6796C53.1968 27.7396 53.3298 28.7996 53.3867 30.0396ZM55.9138 36.2396C55.8188 36.6596 55.7048 36.9996 55.6288 36.9996C55.5718 36.9996 55.2868 36.4196 55.0017 35.7396C54.4888 34.5196 54.4888 34.4796 54.7548 33.0796C55.0398 31.4596 55.5148 29.7196 55.7428 29.3396C55.9518 28.9996 56.1228 35.3396 55.9138 36.2396ZM59.7328 31.2396C59.6758 32.2596 59.4858 33.8196 59.3148 34.6996C58.9728 36.3596 56.9398 41.6996 56.7498 41.4396C56.6738 41.3596 56.4458 40.4396 56.2178 39.3996L55.7998 37.4996L56.3507 35.6796C56.6738 34.6596 57.1868 33.2596 57.5098 32.5396C58.1368 31.1196 59.3148 29.3996 59.6378 29.3996C59.7898 29.3996 59.8088 29.9596 59.7328 31.2396ZM64.8438 31.3996C64.3118 34.2396 61.6518 38.8396 59.4478 40.7596C58.1178 41.9196 56.7498 42.8396 56.7498 42.5996C56.7498 42.1196 58.6308 38.1996 59.5428 36.7796C60.0748 35.9596 61.2337 34.4396 62.1268 33.3796C64.3117 30.7996 65.0718 30.2596 64.8438 31.3996ZM46.1288 33.3596C47.1928 34.0796 49.6058 36.7996 50.8408 38.6996C52.5127 41.2396 53.7098 44.1996 53.7098 45.7996C53.7098 46.7996 53.2918 47.8596 52.5888 48.6596C51.9808 49.3396 51.7337 49.4596 50.9167 49.5396C49.1497 49.7196 46.1098 48.2396 43.8488 46.0996C43.1268 45.3996 43.0697 45.2796 43.0697 44.3196C43.0697 43.7596 43.1458 43.1996 43.2218 43.0596C43.2978 42.9196 43.9248 42.6596 44.5898 42.4796C45.9578 42.1196 46.9648 42.1996 48.8078 42.7996C49.4538 43.0196 50.0238 43.1396 50.0807 43.0996C50.2327 42.9196 48.7698 42.3996 47.4778 42.1596L46.1667 41.9196L45.7488 40.4396C45.2738 38.7396 45.0648 38.5596 45.4638 40.1996C45.8818 41.8796 45.8818 41.8596 44.3807 42.2396C42.4047 42.7396 42.1007 42.5396 41.8348 40.5996C41.6637 39.2996 41.5498 38.9996 41.2838 38.9996C41.1318 38.9996 40.9038 38.7996 40.7518 38.5796C40.4858 38.1596 40.4478 38.1796 38.1488 39.7796C36.8758 40.6596 35.7168 41.3996 35.6028 41.3996C35.4698 41.3996 34.1398 40.6796 32.6388 39.7996C30.1688 38.3596 29.8648 38.2196 29.5798 38.4996C29.4088 38.6596 29.1048 38.7996 28.9148 38.7996C28.5918 38.7996 28.5918 38.9596 28.7057 40.9196L28.8388 43.0396L28.2118 42.9196C27.8698 42.8396 26.9198 42.7396 26.1218 42.6596L24.6398 42.5396V41.7996C24.6398 41.3796 24.5828 40.7396 24.5068 40.3796C24.3738 39.7996 24.3358 39.9196 24.2598 41.1796L24.1648 42.6596L23.0248 42.9196C21.8468 43.1596 20.4598 43.6996 20.4598 43.8996C20.4598 43.9596 20.7638 43.8796 21.1438 43.6996C22.9298 42.9196 25.8178 42.5996 27.3948 43.0196C28.1358 43.2196 28.2688 43.3396 28.4398 43.9796C28.7818 45.2596 28.6868 45.4596 27.1668 47.0196C23.2718 50.9796 20.3268 51.6996 18.7498 49.0596C17.9708 47.7796 17.7427 46.7996 17.7427 44.8996C17.7617 43.0196 18.2558 41.2996 19.2818 39.5196C19.9848 38.2596 21.9418 35.9796 23.1388 34.9796L23.8418 34.3996L25.1907 35.2196C26.7867 36.1796 28.9908 37.1796 30.7198 37.7196C32.6768 38.2996 35.8878 38.2396 37.8448 37.5396C39.7448 36.8796 41.8158 35.5996 43.5448 34.0396C44.2858 33.3796 44.9698 32.8196 45.0838 32.8196C45.1788 32.7996 45.6538 33.0596 46.1288 33.3596ZM50.0238 34.6396C50.5178 35.3396 51.5817 36.5996 52.3417 37.4396C53.6908 38.8996 56.4078 42.6196 56.2747 42.7796C56.1228 42.9196 54.3368 42.1396 53.5957 41.6196C53.1968 41.3196 52.6077 40.7196 52.2848 40.2596C51.9808 39.7996 51.2018 38.6796 50.5748 37.7796C49.9478 36.8996 49.3207 35.9996 49.2067 35.8196C48.9407 35.4396 48.5797 33.6796 48.7317 33.4996C48.9407 33.2796 49.1308 33.4396 50.0238 34.6396ZM64.8628 36.2996C64.5778 38.1796 62.8868 40.6796 61.2148 41.6996C60.3218 42.2396 57.8517 43.0596 57.3958 42.9596C57.1867 42.9196 57.3578 42.6996 58.0038 42.1996C59.2198 41.2996 61.1768 39.3596 62.1078 38.0996C62.9058 37.0396 64.4448 35.5996 64.7678 35.5996C64.9008 35.5996 64.9198 35.8796 64.8628 36.2996ZM32.6958 40.0996C34.1017 40.9196 35.3938 41.5996 35.6028 41.5996C35.7928 41.5996 36.9138 40.9196 38.0918 40.0796C40.1058 38.6796 40.7898 38.3996 40.7898 39.0396C40.7898 39.1796 39.8208 39.8596 38.6238 40.5396C37.0658 41.4396 36.2678 41.7996 35.7738 41.7996C35.2988 41.7996 34.1588 41.3596 32.3728 40.4996C30.9098 39.7796 29.6748 39.1596 29.6178 39.1196C29.5038 38.9796 29.7698 38.5996 29.9788 38.5996C30.0738 38.5996 31.2898 39.2796 32.6958 40.0996ZM34.2918 41.8196C35.6978 42.4596 36.2298 42.3396 38.8328 40.7796C40.1248 39.9996 41.2268 39.3996 41.2838 39.4596C41.3978 39.5596 41.7397 41.7396 41.7397 42.3396C41.7397 42.6196 41.6258 42.7996 41.4358 42.7996C41.2648 42.7996 41.1698 42.9196 41.2078 43.0396C41.2648 43.1796 41.1128 43.4396 40.9038 43.6396C40.5808 43.9196 40.5618 44.0196 40.7708 44.1796C40.9038 44.2796 40.9798 44.4396 40.9038 44.5596C40.8468 44.6796 40.9608 44.8196 41.1698 44.8996C41.3788 44.9596 41.5498 45.1196 41.5498 45.2196C41.5498 45.3196 41.6637 45.3996 41.8158 45.3996C42.1197 45.3996 42.4237 46.5596 42.1957 46.7996C41.8727 47.0996 36.0588 48.9996 35.4318 48.9996C35.0898 48.9996 33.5508 48.6396 32.0118 48.1796L29.1998 47.3596V46.5796C29.1998 46.0396 29.2758 45.7996 29.4657 45.7996C29.7697 45.7996 30.3968 44.8596 30.2638 44.6196C30.2068 44.5196 30.2828 44.3396 30.4348 44.1996C30.6818 43.9796 30.6628 43.8996 30.2828 43.4796C30.0548 43.2196 29.7317 42.9996 29.5608 42.9996C29.1997 42.9996 29.0098 42.0996 29.0098 40.3596V39.2196L31.2518 40.3196C32.4678 40.9396 33.8358 41.6196 34.2918 41.8196ZM54.9448 42.6196C56.0848 43.1996 56.3317 43.2396 57.4717 43.1396C58.1747 43.0796 59.2578 42.8396 59.8848 42.5996C60.9678 42.1996 61.0627 42.1996 61.8418 42.4996C62.2788 42.6796 62.6398 42.8996 62.6398 42.9996C62.6398 43.0996 62.1457 43.3596 61.5568 43.5996C60.1507 44.1596 57.5668 44.3396 55.3628 43.9996C53.7478 43.7596 53.7288 43.7596 53.5198 43.0796C53.3298 42.4996 53.3677 41.9996 53.5957 41.9996C53.6338 41.9996 54.2418 42.2796 54.9448 42.6196ZM42.6518 42.6596C42.7848 42.8196 42.8228 43.3596 42.7468 44.0596C42.6518 44.9996 42.5757 45.1996 42.2907 45.1996C42.0817 45.1996 41.9298 45.0596 41.9298 44.8796C41.9298 44.6396 41.8158 44.5796 41.5118 44.6596C41.1128 44.7796 41.0938 44.7596 41.4168 44.5196C41.7398 44.2596 41.7208 44.2196 41.2268 44.0396L40.6948 43.8396L41.2268 43.6996C41.5688 43.5996 41.7208 43.4596 41.6638 43.2796C41.6068 43.1196 41.6828 42.9996 41.8348 42.9996C41.9867 42.9996 42.1198 42.8596 42.1198 42.6996C42.1198 42.3396 42.3858 42.3196 42.6518 42.6596ZM29.6938 43.4996C29.6178 43.7196 29.7128 43.7996 30.0168 43.7996C30.4348 43.8196 30.4348 43.8196 30.0548 44.1196C29.7508 44.3596 29.7317 44.4396 29.9408 44.5796C30.1497 44.7196 30.1307 44.8196 29.8457 45.1196C29.4847 45.4996 28.7058 45.5396 28.9148 45.1796C28.9718 45.0796 28.9338 44.6796 28.8388 44.2796C28.6108 43.3796 28.6868 43.1996 29.3328 43.1996C29.6748 43.1996 29.7888 43.2796 29.6938 43.4996ZM62.6398 44.3396C62.6398 45.5596 62.0887 51.3996 61.8608 52.5996C61.4238 54.8596 60.6068 55.2796 57.1298 55.0196C54.9067 54.8396 53.8047 54.3996 53.1968 53.4596C52.7027 52.6596 52.7218 49.3396 53.2348 48.5196C53.7478 47.6796 54.0897 46.0796 53.9567 45.0596L53.8428 44.1796L55.0588 44.3396C57.1868 44.6196 59.9418 44.4796 61.2148 44.0396C61.8418 43.8196 62.4118 43.6396 62.5067 43.6196C62.5827 43.5996 62.6398 43.9396 62.6398 44.3396ZM29.0288 47.4596C29.0668 47.4996 30.2258 47.8796 31.5748 48.2996C32.9428 48.6996 34.1588 49.1196 34.2918 49.1996C34.4818 49.2996 34.2728 49.5396 33.6458 50.0396L32.7338 50.7596L31.9548 50.0996C31.5368 49.7596 30.5108 48.9796 29.6748 48.3996C28.8388 47.8196 28.0788 47.2796 27.9838 47.1996C27.9078 47.0996 28.0408 46.7596 28.2688 46.3996L28.7248 45.7596L28.8388 46.5796C28.8958 47.0196 28.9718 47.4196 29.0288 47.4596ZM29.3898 48.4596C32.6008 50.7196 37.5028 55.2596 38.2248 56.6796C38.5668 57.3396 38.5668 57.3596 38.1868 58.0196L37.8258 58.6996L35.0708 58.6796C31.5367 58.6796 28.2118 58.1596 24.7348 57.1196C20.3268 55.7796 18.3698 54.2596 18.3698 52.2196C18.3698 51.3796 18.8448 50.0996 19.0918 50.2396C19.1678 50.2796 19.5668 50.4796 19.9848 50.6796C21.5428 51.4396 23.7658 50.6196 26.2548 48.3996C26.9768 47.7596 27.6608 47.2796 27.7748 47.3396C27.8698 47.4196 28.6108 47.9196 29.3898 48.4596Z" fill="#FCFFE8"/>
<path fill-rule="evenodd" clip-rule="evenodd" d="M24.4495 17.9996C23.9935 18.4796 23.9745 18.7596 24.3735 19.3596C24.7535 19.9396 25.4945 19.9396 25.8745 19.3196C26.3305 18.5796 25.8365 17.5996 25.0005 17.5996C24.9055 17.5996 24.6585 17.7796 24.4495 17.9996Z" fill="#FCFFE8"/>
<path fill-rule="evenodd" clip-rule="evenodd" d="M32.5247 28.3999C32.3917 28.6199 32.6957 28.6199 33.3797 28.3999C33.8357 28.2399 33.8357 28.2399 33.2467 28.2199C32.9237 28.1999 32.5817 28.2799 32.5247 28.3999Z" fill="#FCFFE8"/>
<path fill-rule="evenodd" clip-rule="evenodd" d="M36.2295 28.3392C36.2295 28.4392 36.4955 28.5192 36.7995 28.5392C37.1225 28.5592 37.3695 28.4992 37.3695 28.3992C37.3695 28.2792 37.1225 28.1992 36.7995 28.1992C36.4955 28.1992 36.2295 28.2592 36.2295 28.3392Z" fill="#FCFFE8"/>
<path fill-rule="evenodd" clip-rule="evenodd" d="M33.3799 29.8996C33.3799 30.0596 33.4749 30.1996 33.5699 30.1996C33.6839 30.1996 33.7599 30.0596 33.7599 29.8996C33.7599 29.7396 33.6839 29.5996 33.5699 29.5996C33.4749 29.5996 33.3799 29.7396 33.3799 29.8996Z" fill="#FCFFE8"/>
<path fill-rule="evenodd" clip-rule="evenodd" d="M36.2295 29.8996C36.2295 30.0596 36.3245 30.1996 36.4195 30.1996C36.5335 30.1996 36.6095 30.0596 36.6095 29.8996C36.6095 29.7396 36.5335 29.5996 36.4195 29.5996C36.3245 29.5996 36.2295 29.7396 36.2295 29.8996Z" fill="#FCFFE8"/>
<path fill-rule="evenodd" clip-rule="evenodd" d="M35.1086 31.5995C35.1086 31.8995 34.9946 32.2195 34.8616 32.3595C34.6906 32.5395 34.6906 32.5995 34.8616 32.5995C35.1656 32.5995 35.3366 32.1395 35.2226 31.5595C35.1466 31.1195 35.1466 31.1195 35.1086 31.5995Z" fill="#FCFFE8"/>
<path fill-rule="evenodd" clip-rule="evenodd" d="M34.5773 33.7387C34.7483 33.7787 35.0143 33.7787 35.1473 33.7387C35.2613 33.6787 35.1283 33.6387 34.8053 33.6387C34.5013 33.6387 34.3873 33.6787 34.5773 33.7387Z" fill="#FCFFE8"/>
<path fill-rule="evenodd" clip-rule="evenodd" d="M34.3872 34.7402C34.6722 34.7802 35.0902 34.7802 35.3372 34.7402C35.5652 34.7002 35.3372 34.6602 34.8052 34.6602C34.2922 34.6602 34.0832 34.7002 34.3872 34.7402Z" fill="#FCFFE8"/>
<path fill-rule="evenodd" clip-rule="evenodd" d="M34.7295 44.3999C34.7485 46.0199 34.9765 48.5199 35.0905 48.0999C35.2045 47.5999 35.0335 43.2599 34.8815 42.9999C34.7865 42.8199 34.7295 43.3399 34.7295 44.3999Z" fill="#FCFFE8"/>
<path fill-rule="evenodd" clip-rule="evenodd" d="M36.2295 45.5388C36.2295 47.0388 36.2675 48.2188 36.3055 48.1788C36.3435 48.1388 36.4385 46.8988 36.5145 45.4388C36.6095 43.5788 36.5905 42.7988 36.4385 42.7988C36.3055 42.7988 36.2295 43.6988 36.2295 45.5388Z" fill="#FCFFE8"/>
<path fill-rule="evenodd" clip-rule="evenodd" d="M11.7962 14.8198C11.6632 15.0398 12.3852 15.2398 13.2022 15.1798C13.5822 15.1598 14.0382 15.1998 14.1902 15.2598C14.5702 15.4198 15.5202 15.3398 15.5202 15.1398C15.5202 14.8598 14.9312 14.7398 14.7032 14.9798C14.5512 15.1398 14.4182 15.1198 14.1712 14.8798C14.0002 14.7198 13.7912 14.6598 13.7342 14.7598C13.6772 14.8598 13.2402 14.8798 12.7652 14.7998C12.2902 14.7198 11.8532 14.7398 11.7962 14.8198Z" fill="#FCFFE8"/>
<path fill-rule="evenodd" clip-rule="evenodd" d="M13.1453 16.8004C13.0883 16.9004 12.8223 17.0004 12.5753 17.0004C12.3283 17.0004 12.0813 17.0804 12.0243 17.1604C11.9673 17.2604 12.2333 17.3004 12.6133 17.2604C12.9933 17.2404 13.4113 17.3004 13.5253 17.4004C13.7913 17.6404 15.5203 17.4204 15.5203 17.1804C15.5203 16.9004 14.4943 16.9604 14.2093 17.2404C14.0193 17.4604 13.9053 17.4204 13.6203 17.0404C13.4113 16.7804 13.2213 16.6804 13.1453 16.8004Z" fill="#FCFFE8"/>
<path fill-rule="evenodd" clip-rule="evenodd" d="M14.3423 23.3392L15.5203 23.4192V24.6992V25.9992L14.7793 26.3992L14.0193 26.7992L13.9433 26.3392C13.8673 25.9592 13.8673 25.9592 13.8293 26.4392C13.8103 26.8192 13.6203 27.0792 13.1263 27.3792C12.7653 27.6192 12.4043 27.7992 12.3093 27.7992C12.0813 27.7992 12.3663 25.9392 12.6133 25.8592C12.7463 25.7992 12.8603 26.0392 12.9173 26.4392C12.9743 27.0392 12.9933 27.0192 13.0123 26.2592C13.0503 25.6392 13.1453 25.3992 13.4113 25.2992C13.6203 25.2392 13.8863 25.0392 14.0383 24.8592C14.2473 24.5792 14.2473 24.5592 13.9053 24.7392C13.6963 24.8592 13.3923 24.8992 13.2403 24.8592C13.0123 24.7792 12.9933 24.7992 13.2213 24.9592C13.4303 25.1192 13.3923 25.1792 13.0313 25.2992C12.7843 25.3792 12.4803 25.5792 12.3283 25.7392C12.1003 25.9592 11.1693 26.0192 7.36928 25.9992C4.80428 25.9792 2.60028 25.9792 2.46728 25.9992C2.18228 25.9992 1.97328 27.0592 2.12528 27.7992L2.25828 28.3992H3.85428H5.45028V28.9792C5.45028 29.4792 5.29828 29.6592 4.38628 30.1992C3.81628 30.5592 3.37928 30.8792 3.41728 30.9392C3.47428 30.9792 3.94928 30.7392 4.50028 30.3992C5.20328 29.9592 5.54528 29.8392 5.64028 29.9992C5.75428 30.1792 6.70428 30.1992 9.40228 30.0992L13.0123 29.9592L14.5513 28.3392C15.9383 26.8792 16.4513 25.9992 15.8813 25.9992C15.7483 25.9992 15.7103 25.7592 15.7863 25.2992C15.8623 24.9192 15.8623 24.2792 15.7863 23.8992L15.6723 23.1992L14.3993 23.2392L13.1453 23.2792L14.3423 23.3392ZM11.9103 27.0792C11.9103 27.9592 11.9103 27.9792 11.2073 28.0592C10.7703 28.0992 10.9793 28.1392 11.7773 28.1592L13.0503 28.1992V28.9592V29.7392L9.49728 29.8592C7.54028 29.9392 5.92528 29.9592 5.90628 29.9392C5.88728 29.9192 5.83028 29.5592 5.75428 29.1592L5.62128 28.4192L7.19828 28.3392C8.07228 28.3192 7.35028 28.2592 5.60228 28.2392L2.41028 28.1992V27.1992V26.1992H7.16028H11.9103V27.0792Z" fill="#FCFFE8"/>
<path fill-rule="evenodd" clip-rule="evenodd" d="M12.3851 24.7996C12.3281 24.9196 12.4041 24.9396 12.5561 24.8796C12.8981 24.7396 12.9551 24.5996 12.6891 24.5996C12.5751 24.5996 12.4421 24.6796 12.3851 24.7996Z" fill="#FCFFE8"/>
<path fill-rule="evenodd" clip-rule="evenodd" d="M15.4821 28.3393C15.5961 28.3793 15.6531 28.5393 15.5961 28.6393C15.5201 28.7793 15.5581 28.7993 15.6721 28.7193C15.8431 28.6193 15.9001 28.8793 15.9001 29.5793C15.9001 30.4793 15.8051 30.6993 14.9691 31.7393C14.4751 32.3793 13.8671 33.0793 13.6391 33.2793L13.2401 33.6593V32.6193C13.2401 31.6193 13.3161 31.4793 14.3041 30.2393L15.3681 28.8993L14.2281 30.1393L13.1071 31.3993H8.62307C6.09607 31.3993 3.93007 31.3193 3.64507 31.1993C3.32207 31.0793 3.01807 31.0593 2.80907 31.1993C2.39107 31.4193 2.18207 32.5993 2.35307 33.6593C2.44807 34.3193 2.52407 34.3993 3.01807 34.3993C3.53107 34.3993 3.47407 34.4793 2.14407 35.5993C0.56707 36.9193 0.58607 36.8793 0.81407 38.9393L0.94707 39.9993H2.42907C3.91107 39.9993 3.93007 39.9993 3.93007 40.4993C3.93007 40.7993 3.81607 40.9993 3.66407 40.9993C3.53107 40.9993 3.09407 41.3993 2.71407 41.8993C2.14407 42.6193 2.03007 42.9193 2.08707 43.4393C2.16307 44.0993 2.16307 44.0793 2.18207 43.3393L2.22007 42.5993H7.65407H13.0691L13.0121 43.4393L12.9551 44.2993L7.55907 44.4593C3.26507 44.5793 2.12507 44.5593 1.99207 44.3593C1.89707 44.1593 1.84007 44.1993 1.84007 44.4393C1.84007 44.6393 1.93507 44.7993 2.06807 44.7993C2.18207 44.7993 2.10607 44.9993 1.87807 45.2393C1.30807 45.8993 1.06107 46.7193 1.25107 47.2793C1.46007 47.8193 1.80207 47.9993 2.73307 47.9993C3.26507 47.9993 3.37907 48.0593 3.28407 48.2993C2.75207 49.7593 1.80207 54.0193 1.91607 54.4593C2.03007 54.9593 2.12507 54.9993 2.98007 54.9993C3.85407 54.9993 3.93007 55.0393 3.93007 55.4793C3.93007 55.7393 3.98707 56.2393 4.04407 56.5793C4.15807 57.1793 4.19607 57.1993 5.05107 57.1593L5.92507 57.1393L5.14607 57.0593C4.44307 56.9793 4.34807 56.9193 4.23407 56.3593C4.04407 55.3793 4.10107 55.0393 4.46207 54.9393C4.63307 54.8793 4.21507 54.8393 3.51207 54.8193L2.22007 54.7993V54.1993C2.22007 53.4593 2.08707 53.4993 6.66607 53.1993C8.64207 53.0593 10.3901 52.9193 10.5231 52.8593C10.6941 52.7793 10.7701 52.9793 10.7701 53.5793V54.3993L11.9671 54.3593L13.1451 54.3193L12.0241 54.2593L10.9031 54.1793L11.0361 53.2593C11.0931 52.7593 11.1501 51.8993 11.1501 51.3793V50.3993H11.9671C12.5751 50.3993 12.8981 50.2793 13.1641 49.9793L13.5251 49.5593L13.6581 50.3193L13.7721 51.0993L13.7531 50.2193C13.7341 49.4393 13.8291 49.2393 14.7221 48.1993C15.2731 47.5593 15.7101 46.8593 15.7101 46.6593C15.7101 45.8793 15.4631 45.3993 15.1021 45.3993C14.9121 45.3993 14.7791 45.4793 14.8361 45.5593C14.8741 45.6393 14.3801 46.1993 13.7151 46.7993L12.4991 47.8993V49.0793L12.4801 50.2593L9.87707 50.1393C8.45207 50.0593 6.62807 49.9993 5.79207 49.9993H4.31007V48.9993V47.9993H8.07207H11.8151L13.4301 46.2993C15.0451 44.6193 15.0641 44.6193 14.9691 43.7593L14.8741 42.8993L14.7601 43.8193C14.6651 44.6593 14.5321 44.8793 13.2211 46.1793C11.8721 47.4793 11.7581 47.5593 11.6441 47.1393C11.3971 46.1593 11.5301 45.8193 12.5561 44.8593C14.3041 43.1993 15.9001 41.0993 15.9001 40.4393C15.9001 40.0793 16.0901 39.6993 16.3751 39.3993C17.2111 38.5793 16.7931 36.3993 15.8051 36.3993C15.7101 36.3993 15.7291 36.4793 15.8621 36.5793C16.0331 36.6793 15.7101 37.1193 14.6841 38.0793L13.2591 39.4193L13.2021 40.8593L13.1451 42.2993L8.73707 42.3593L4.31007 42.3993V41.2393V40.0593L6.74207 39.9393C8.07207 39.8593 10.0481 39.7793 11.1501 39.7593C12.2521 39.7393 12.7271 39.6993 12.2141 39.6593L11.2831 39.5793L12.9551 37.7993C13.8861 36.8193 14.7221 36.0793 14.8171 36.1393C14.9311 36.1993 14.9501 36.1793 14.8931 36.0593C14.8361 35.9593 15.1211 35.5193 15.5201 35.0993C16.1851 34.4193 16.2801 34.1993 16.2421 33.4993L16.2231 32.6993L16.1471 33.4393C16.0711 34.0593 15.7291 34.5393 13.6961 36.6993L11.3401 39.2193V38.0393C11.3401 36.7593 11.6821 36.1993 12.4231 36.1993C12.6891 36.1993 13.2971 35.5793 14.3041 34.3193C15.1211 33.2793 15.8431 32.4593 15.9381 32.5193C16.0141 32.5793 16.0901 32.5393 16.0901 32.4393C16.0901 32.2193 15.5201 31.9393 15.3681 32.0993C15.3111 32.1593 15.3681 32.1993 15.5011 32.1993C15.6341 32.1993 15.6721 32.2793 15.6151 32.3993C15.5581 32.4993 15.4251 32.5993 15.3111 32.5993C14.9881 32.5993 15.1401 31.9593 15.6151 31.3593C16.3371 30.4793 16.2801 28.1793 15.5391 28.2193C15.3491 28.2193 15.3301 28.2593 15.4821 28.3393ZM13.0501 32.6793C13.0501 33.2793 12.9931 33.8193 12.9171 33.8593C12.8221 33.9193 10.4851 34.0193 7.69207 34.0993L2.60007 34.2393V32.9193V31.5993H7.82507H13.0501V32.6793ZM12.6701 35.0993V35.9993H8.87007H5.07007V35.1993V34.4193L6.93207 34.3393C7.93907 34.3193 9.64907 34.2593 10.7321 34.2393L12.6701 34.1993V35.0993ZM4.72807 35.3193L4.78507 36.2593L8.20507 36.2193C10.5421 36.1793 11.5681 36.2393 11.4351 36.3793C11.2451 36.5793 1.25107 36.7993 1.28907 36.5993C1.30807 36.3193 3.89207 34.4193 4.25307 34.4193C4.61407 34.3993 4.67107 34.5193 4.72807 35.3193ZM11.1501 38.1793V39.5593L6.32407 39.6993C3.66407 39.7793 1.40307 39.7793 1.28907 39.7193C1.17507 39.6393 1.08007 38.9993 1.08007 38.2993V37.0193L3.60707 36.9393C4.97507 36.9193 7.25507 36.8593 8.64207 36.8393L11.1501 36.7993V38.1793ZM16.5651 37.9193L16.6981 38.7393L15.1211 40.2593L13.5251 41.7993L13.4681 40.7793L13.4111 39.7393L14.7981 38.2593C15.5581 37.4593 16.2421 36.8793 16.3181 36.9593C16.3941 37.0393 16.5081 37.4593 16.5651 37.9193ZM14.5321 42.4793C13.3161 43.9793 13.0881 44.0193 13.3161 42.7193C13.3921 42.2593 13.7531 41.7993 14.5321 41.1193C15.5011 40.2393 15.6151 40.1993 15.6721 40.5593C15.7101 40.8393 15.3301 41.4793 14.5321 42.4793ZM4.12007 41.7993C4.12007 42.3793 4.08207 42.3993 3.32207 42.3993H2.52407L3.07507 41.7993C3.37907 41.4593 3.74007 41.1993 3.87307 41.1993C4.02507 41.1993 4.12007 41.4393 4.12007 41.7993ZM11.8151 45.3193C11.3971 45.8993 11.3211 46.1793 11.3781 46.9193L11.4351 47.7993H6.68507C4.08207 47.7993 1.82107 47.7193 1.68807 47.6193C1.53607 47.5193 1.46007 47.1793 1.49807 46.7793L1.55507 46.0993L6.30507 45.9993L11.0551 45.8793L6.30507 45.8393L1.57407 45.7993L1.99207 45.3393C2.37207 44.9393 2.65707 44.8793 4.74707 44.7793C6.02007 44.7193 8.24307 44.6593 9.70607 44.6393L12.3281 44.5993L11.8151 45.3193ZM15.5201 46.5993C15.5201 46.9593 15.1211 47.5193 14.0951 48.5993L12.6701 50.0793V49.0993C12.6701 48.1193 12.6891 48.0793 13.9431 46.8793C15.2541 45.6193 15.5201 45.5793 15.5201 46.5993Z" fill="#FCFFE8"/>
<path fill-rule="evenodd" clip-rule="evenodd" d="M13.9239 52.799C13.9809 53.619 14.0569 54.819 14.1329 55.439L14.2469 56.599L12.6509 56.619C11.7769 56.639 9.89585 56.719 8.48985 56.779C6.24785 56.919 6.13385 56.939 7.55885 56.959C8.45185 56.979 10.3519 56.939 11.7769 56.859L14.3799 56.739L14.3609 55.919C14.3609 55.459 14.2279 54.239 14.0949 53.199C13.8289 51.319 13.8289 51.299 13.9239 52.799Z" fill="#FCFFE8"/>
<path fill-rule="evenodd" clip-rule="evenodd" d="M8.64198 54.539C8.96498 54.579 9.53498 54.579 9.87698 54.539C10.2 54.499 9.93398 54.459 9.24998 54.459C8.56598 54.459 8.29998 54.499 8.64198 54.539Z" fill="#FCFFE8"/>
<path fill-rule="evenodd" clip-rule="evenodd" d="M5.60195 54.7402C6.03895 54.7802 6.72295 54.7802 7.12195 54.7402C7.50195 54.7002 7.14095 54.6602 6.30495 54.6602C5.46895 54.6602 5.14595 54.7002 5.60195 54.7402Z" fill="#FCFFE8"/>
</svg>
