<svg width="68" height="67" viewBox="0 0 68 67" fill="none" xmlns="http://www.w3.org/2000/svg">
<path fill-rule="evenodd" clip-rule="evenodd" d="M42.9117 0.435318C40.6692 1.11532 39.0117 3.68657 39.3627 5.98157C39.5382 7.25657 40.3182 8.55282 41.2932 9.16907C42.6192 10.0191 42.6582 10.1253 42.5997 12.3566C42.5412 14.5028 42.6777 14.9916 43.5747 15.8628C43.9452 16.2241 44.1792 16.7341 44.3157 17.5203C44.5887 18.9866 45.3102 20.4741 46.1682 21.3666C46.7142 21.9403 46.8312 22.1953 46.7337 22.6628C46.6752 22.9816 46.7337 23.4491 46.8702 23.7041C47.0652 24.1503 46.9482 24.5116 46.1877 25.8078C46.1682 25.8291 45.7587 25.7016 45.2907 25.5103C44.0817 25.0428 41.7222 24.5753 40.7667 24.5966C40.1232 24.6178 40.2207 24.6603 41.2347 24.7878C42.5022 24.9578 45.4077 25.7228 45.8367 26.0203C46.0317 26.1478 46.0122 26.4241 45.7977 27.2103C45.6417 27.7841 45.5052 28.4641 45.5247 28.6978C45.5247 28.9528 45.7002 28.5278 45.8757 27.7628C46.0707 26.9978 46.4217 25.9566 46.6557 25.4678C47.0652 24.5966 47.1237 24.5541 47.4357 24.8728C48.0987 25.5103 48.9372 25.7016 49.6002 25.3403L50.2047 25.0216L50.6142 26.0203C50.8872 26.6791 51.0432 27.6353 51.1212 28.8466C51.2187 31.0141 50.8287 32.0978 49.6587 32.8841C49.0152 33.3303 48.6837 33.3941 46.9677 33.3941C45.8952 33.3941 44.5887 33.3303 44.0427 33.2453C43.2432 33.1178 43.1847 33.1391 43.6527 33.3091C43.9842 33.4366 45.0762 33.5853 46.0707 33.6703C47.9037 33.8191 47.9232 33.8191 48.2937 34.5203L48.6642 35.2216L47.5332 36.8153C45.7392 39.3866 43.7502 40.9591 41.3322 41.7666C39.0897 42.5103 38.4657 42.4041 36.5352 41.0016C34.2147 39.2803 32.2647 37.1128 31.4652 35.3491C30.9387 34.1591 30.7827 33.5428 30.6852 31.9491C30.6072 30.8653 30.5292 30.3341 30.4902 30.7378C30.3927 32.1191 30.5292 33.3941 30.8997 34.5416C31.1922 35.4553 31.2117 35.7528 31.0167 35.8803C30.3342 36.3691 27.8187 37.3678 26.5512 37.6653C24.9912 38.0266 21.7542 38.0903 20.3112 37.7928C19.0047 37.5166 17.4252 36.3691 17.4252 35.6891C17.4252 35.4128 17.3277 34.9666 17.2107 34.7328C16.8792 34.0528 17.2107 33.9253 21.5202 33.1816C24.1527 32.7141 25.3617 32.0128 28.0332 29.3566C29.2617 28.1453 30.5877 26.8916 30.9972 26.5941C31.6602 26.1053 31.7577 26.0841 32.0697 26.4028C32.2647 26.5941 32.6157 26.7003 32.8692 26.6366C33.2592 26.5516 33.2592 26.5516 32.7717 26.5091C32.3427 26.4878 32.1867 26.3391 32.0307 25.8503C31.8747 25.3828 31.6992 25.2128 31.3287 25.2128C31.0752 25.2128 30.7047 25.1278 30.5097 25.0003C30.0612 24.7453 29.3592 22.9603 29.2032 21.7491L29.0862 20.8141L29.9247 20.6653C30.3927 20.5803 31.0557 20.4741 31.3677 20.4103C31.9137 20.3041 31.9917 20.3678 32.2062 21.0478C32.4597 21.8128 32.6937 22.0041 32.9277 21.6003C33.1227 21.2603 33.3567 21.5366 33.4932 22.2591C33.5517 22.6203 33.8832 23.3428 34.1952 23.8741C34.5267 24.4053 34.7802 25.0003 34.7412 25.1703C34.7022 25.3616 34.3902 25.7441 34.0197 25.9991C33.6492 26.2753 33.4737 26.4878 33.6102 26.4878C33.7272 26.4878 34.1562 26.1266 34.5657 25.7016C35.2482 24.9366 35.3067 24.9153 37.5102 24.6816C38.7387 24.5328 39.3627 24.4053 38.8752 24.4053C38.3877 24.3841 37.3347 24.4691 36.5352 24.5753C35.3262 24.7241 35.0337 24.7028 34.8582 24.4478C34.6827 24.1928 34.7022 23.9803 34.9167 23.4916C35.3262 22.5991 35.5017 20.8566 35.3262 19.7091C35.1117 18.4128 34.0782 16.9466 32.9277 16.2878C31.5237 15.5016 29.5737 15.5228 28.3062 16.3516C27.2337 17.0316 26.5122 17.9666 26.1027 19.2416C25.7127 20.4741 25.7322 21.5153 26.2002 23.1303C26.4147 23.8528 26.5902 24.9578 26.5902 25.5316C26.5902 26.6366 26.3952 27.0616 24.9132 29.1866C24.5622 29.6753 24.1332 30.5253 23.9382 31.0991C23.7627 31.6516 23.5092 32.2253 23.3922 32.3528C23.2752 32.5016 22.0467 32.8203 20.6427 33.0753C19.2582 33.3303 17.7567 33.6703 17.3277 33.8403C16.8987 34.0103 15.8652 34.2016 15.0462 34.2866C13.5642 34.4141 13.5252 34.4141 13.3497 33.8616C13.1352 33.2666 12.4722 32.7778 12.1017 32.9478C11.9652 32.9903 12.0042 33.0541 12.1992 33.0541C12.8232 33.0966 13.1352 33.6916 13.1352 34.8816C13.1352 36.4116 12.7452 36.9216 11.4387 37.0491L10.4637 37.1553L10.3467 36.1566C10.2687 35.6041 10.2102 34.6266 10.2102 34.0103V32.8841L11.0487 32.7991L11.8677 32.7141L11.0487 32.6928C10.3467 32.6503 10.2102 32.5866 10.2102 32.2041C10.2102 31.8641 10.1127 31.7791 9.66416 31.8428C9.23516 31.8853 9.11816 32.0128 9.07916 32.5866C9.02066 33.2241 8.96216 33.2666 8.20166 33.3303C7.61666 33.3728 7.36316 33.5003 7.32416 33.7553C7.26566 34.0741 7.40216 34.1378 8.14316 34.1378H9.04016V34.9878V35.8378H8.16266C7.42166 35.8378 7.28516 35.9016 7.28516 36.2416C7.28516 36.5816 7.44116 36.6666 8.10416 36.7303C8.82566 36.7941 8.92316 36.8578 9.13766 37.5378C9.31316 38.1116 9.48866 38.3028 9.87866 38.3453C10.3272 38.4091 10.4052 38.3453 10.4052 37.8778C10.4052 37.3891 10.4832 37.3253 11.0877 37.3253C12.0627 37.3253 13.0767 36.8153 13.2522 36.2203L13.4082 35.7316L13.5252 36.2628C13.6422 36.8366 14.1882 37.1978 15.2802 37.4103C15.9432 37.5378 15.9432 37.5378 15.5337 37.2191C15.0657 36.8578 14.9097 35.7741 15.2802 35.5191C15.3972 35.4553 15.4752 35.6041 15.4752 35.8803C15.4752 36.3266 15.8457 37.2403 15.8652 36.8153C15.8652 36.7091 16.0017 36.7516 16.1577 36.9003C16.4112 37.1341 16.4112 37.2191 16.2162 37.3678C16.0407 37.5166 16.1187 37.5378 16.4502 37.4528C16.8012 37.3678 17.3667 37.6653 18.7902 38.7066C22.4172 41.3628 24.2112 43.5091 28.0527 49.8628C30.6267 54.1341 32.7522 56.5566 35.5212 58.3628C36.6327 59.0853 37.3347 59.7016 37.3932 59.9566C37.4517 60.1903 37.6077 61.2741 37.7442 62.3578L38.0172 64.3553L37.2762 64.7591C36.4572 65.2266 35.1702 66.3741 35.1702 66.6716C35.1702 66.7991 36.4572 66.8416 38.2512 66.8203L41.3127 66.7566L41.3517 65.9066C41.3907 65.4391 41.5077 64.2703 41.6247 63.2928C41.8197 61.7416 41.8782 61.5503 42.2682 61.5291C42.5802 61.5078 42.5997 61.4866 42.3462 61.4016C42.1512 61.3591 41.9952 61.1253 41.9952 60.8916C41.9952 60.6791 42.0147 60.4878 42.0537 60.4878C42.0732 60.4878 42.7557 60.6366 43.5552 60.8278C44.3547 60.9978 45.9537 61.1466 47.0847 61.1466C51.9207 61.1466 56.0742 59.1066 58.9992 55.2603C59.9742 53.9853 61.5732 50.7128 61.7877 49.5441C61.8657 49.1828 61.6122 49.6928 61.2417 50.6703C59.2332 55.9191 55.3917 59.4466 50.3997 60.6153C48.7227 60.9978 45.3882 60.9978 43.6722 60.5941C42.9312 60.4241 42.2877 60.2328 42.2292 60.1691C41.8977 59.8078 43.7892 52.9653 45.2127 49.3316C45.7002 48.0991 46.0902 47.0153 46.0902 46.9303C46.0902 46.8241 45.7392 46.6328 45.3102 46.4841C44.4522 46.2078 44.1012 45.8253 44.7057 45.8253C44.9007 45.8253 46.0122 46.0591 47.1432 46.3566C51.5697 47.5041 53.9292 47.8016 58.1217 47.8228L62.0607 47.8441L61.9827 48.3753C61.9242 48.6728 62.0217 48.5028 62.1777 47.9928C62.8797 45.6553 63.0552 41.2778 62.5482 38.3878C61.7682 33.8191 59.7207 30.4828 56.0742 27.7841C55.4112 27.2953 53.6562 26.2753 52.1937 25.5103C50.7117 24.7453 49.4832 24.0866 49.4442 24.0441C49.3857 23.9803 49.4442 23.8103 49.5612 23.6616C49.7562 23.4278 50.2827 23.6403 52.5447 24.8303C57.6537 27.5291 60.1887 29.9516 61.8852 33.7978C63.1332 36.6453 63.4647 38.3666 63.4647 42.1066C63.4842 47.6953 62.1192 52.3491 59.4282 55.9403C57.6732 58.2566 54.6312 60.4028 51.7452 61.3166C51.0432 61.5503 50.6142 61.7416 50.7897 61.7416C51.3552 61.7841 53.5782 60.8916 55.1187 60.0203C57.0102 58.9366 59.3697 56.5778 60.6957 54.4316C61.6317 52.8803 62.6262 50.4366 63.0552 48.5453C63.2502 47.7378 63.3867 47.5466 63.7962 47.4616C64.2057 47.3766 64.4397 47.5253 65.0637 48.2903C65.7267 49.0978 66.6822 49.8628 67.0527 49.8628C67.4232 49.8628 66.8577 45.7828 66.2532 44.1678C65.9607 43.3391 65.8632 43.2541 65.4147 43.3391C65.1417 43.4028 64.6737 43.4028 64.4007 43.3391C63.8937 43.2328 63.8937 43.2116 63.7767 40.9803C63.3867 33.2028 59.9352 28.1878 52.4277 24.4903C50.9262 23.7466 50.4582 23.4278 50.4192 23.0666C50.3802 22.8116 50.1852 22.5566 49.9707 22.5141C49.7757 22.4503 49.6002 22.3441 49.6002 22.2591C49.6002 22.0253 48.4302 21.5578 48.1572 21.6641C47.7672 21.8341 46.1682 19.9428 45.6222 18.6253C44.9397 17.0316 44.9787 16.6066 45.8757 15.6291C46.4802 14.9491 46.6362 14.6091 46.7337 13.6953C46.9287 11.974 46.8897 11.0815 46.6362 10.784C46.4217 10.5715 46.5972 10.2953 47.4942 9.42405C48.7812 8.14905 49.3857 6.8528 49.4052 5.38655C49.4247 1.94405 46.1487 -0.563432 42.9117 0.435318ZM46.5777 1.07282C48.8982 2.24157 49.8147 5.00407 48.7032 7.42657C48.3327 8.23407 45.9732 10.7628 45.5832 10.7628C45.0177 10.7628 45.4662 7.04407 46.0902 6.57657C46.3437 6.38532 46.4802 6.08782 46.4412 5.81157C46.3632 5.19532 46.0512 5.25907 45.7392 5.96032C45.5442 6.36407 45.3492 6.51282 45.0567 6.47032C44.6862 6.40657 44.6277 6.30032 44.6862 5.59907C44.7447 5.00407 44.6862 4.81282 44.4522 4.81282C44.2572 4.81282 44.1402 5.06782 44.1012 5.59907C44.0427 6.49157 43.4577 6.85282 43.2237 6.15157C43.0287 5.51407 42.5607 5.04657 42.2682 5.17407C41.7612 5.38657 41.9757 6.08782 42.6582 6.53407C43.2042 6.87407 43.3797 7.15032 43.5357 8.02157C43.6527 8.61657 43.7502 9.46657 43.7502 9.91282C43.7502 10.6141 43.6917 10.7628 43.3797 10.7628C43.1652 10.7628 42.9702 10.5928 42.9312 10.4016C42.8922 10.2103 42.3462 9.65782 41.7222 9.1903C39.6357 7.61782 39.0897 5.42905 40.2012 3.09155C40.6107 2.19905 40.9812 1.7953 41.8002 1.2428C42.7167 0.647796 43.0287 0.562796 44.2377 0.562796C45.2517 0.562796 45.8562 0.690318 46.5777 1.07282ZM44.4717 5.70532C44.4132 5.85407 44.3742 5.74782 44.3742 5.45032C44.3742 5.15282 44.4132 5.04657 44.4717 5.17407C44.5107 5.32282 44.5107 5.57782 44.4717 5.70532ZM42.8532 5.91782C43.0287 6.17282 43.1067 6.42782 43.0677 6.49157C42.9507 6.59782 42.1902 5.87532 42.1902 5.62032C42.1902 5.30157 42.5607 5.45032 42.8532 5.91782ZM46.2072 6.00282C46.1292 6.19407 46.0317 6.32157 45.9927 6.25782C45.9342 6.19407 45.9342 5.98157 46.0122 5.79032C46.0902 5.59907 46.1877 5.47157 46.2267 5.53532C46.2852 5.59907 46.2852 5.81157 46.2072 6.00282ZM45.1737 6.72532C45.4467 6.72532 45.5052 6.83157 45.4272 7.08657C45.3492 7.27782 45.2322 8.19157 45.1737 9.10532C45.0567 10.7416 45.0567 10.7628 44.5302 10.7628C44.0232 10.7628 43.9842 10.7203 43.8867 9.31782C43.8087 8.53157 43.7112 7.63907 43.6527 7.34157C43.5552 6.91657 43.6137 6.76782 43.9842 6.57657C44.2377 6.44907 44.5107 6.42782 44.6277 6.53407C44.7252 6.64032 44.9787 6.72532 45.1737 6.72532ZM46.0902 14.5878C46.0902 14.7153 45.5052 14.8003 44.7447 14.8003C43.9842 14.8003 43.3212 14.6941 43.2627 14.5878C43.1847 14.4603 43.6917 14.3753 44.6082 14.3753C45.4662 14.3753 46.0902 14.4603 46.0902 14.5878ZM44.9202 17.0741C44.9202 17.9241 45.7392 19.7091 46.5777 20.7291C47.3382 21.6428 47.3967 22.0253 46.6947 21.6216C46.1682 21.3028 45.1737 19.7091 44.8227 18.6041C44.4912 17.5841 44.4327 16.5003 44.7252 16.5003C44.8422 16.5003 44.9202 16.7553 44.9202 17.0741ZM47.5722 22.3653C47.4747 22.7903 47.5332 23.0453 47.8257 23.3428C48.0597 23.5553 48.2352 23.8953 48.2352 24.1078C48.2352 24.4266 48.2742 24.4266 48.4302 24.1503C48.5667 23.9166 48.6642 23.8953 48.7812 24.0653C48.8592 24.2141 49.1322 24.3628 49.4052 24.3841C50.0487 24.4903 50.0292 25.0216 49.3662 25.2553C48.4692 25.5953 47.5917 25.0216 47.1822 23.8316C46.9092 23.0453 46.8702 22.7266 47.0457 22.3228C47.3382 21.6216 47.7282 21.6641 47.5722 22.3653ZM48.3912 22.4503C47.9622 23.1091 47.6502 23.2791 47.6502 22.8541C47.6502 22.3653 48.0792 21.8128 48.4497 21.8128C48.8202 21.8128 48.8202 21.8341 48.3912 22.4503ZM49.1712 22.5991C49.0152 22.8116 48.8202 23.1516 48.7617 23.3428C48.6057 23.8103 48.2352 23.8528 48.2352 23.4066C48.2352 22.8753 48.7032 22.2378 49.0932 22.2378C49.4247 22.2378 49.4442 22.2803 49.1712 22.5991ZM50.1462 23.0666C50.2047 23.2366 50.1462 23.3003 50.0292 23.2153C49.9122 23.1516 49.6392 23.3428 49.4247 23.6403L49.0152 24.2141V23.5766C49.0152 23.2366 49.0737 22.8753 49.1517 22.7903C49.3662 22.5566 50.0487 22.7478 50.1462 23.0666ZM56.9907 28.8253C60.4032 31.6516 62.2947 35.6678 62.6067 40.8103L62.7237 42.9141L61.9632 42.7653C57.2832 41.8728 49.6977 37.2403 48.6252 34.6053L48.2547 33.7128L49.0152 33.4791C49.8732 33.2028 50.6142 32.5016 51.1017 31.5241C51.6477 30.4403 51.5697 27.7841 50.9262 26.1266L50.4387 24.8091L52.9542 26.2116C54.3582 26.9766 56.1717 28.1666 56.9907 28.8253ZM10.0542 34.5628C10.0737 35.9653 10.0932 37.3253 10.0932 37.5803C10.1127 37.8566 9.97618 38.0903 9.80068 38.1328C9.43018 38.1966 9.23518 36.6878 9.23518 33.7978C9.23518 32.1616 9.27418 32.0128 9.62518 32.0128C9.99568 32.0128 10.0152 32.1616 10.0542 34.5628ZM9.02068 33.8403C9.05968 33.8828 8.72818 33.9253 8.27968 33.9253C7.79218 33.9253 7.49968 33.8403 7.57768 33.7128C7.67518 33.5428 8.80618 33.6491 9.02068 33.8403ZM17.0352 34.7541C17.1327 34.9878 17.2302 35.3703 17.2302 35.6041C17.2302 36.0078 17.2107 36.0078 16.1967 35.5191C14.6172 34.7116 13.9737 34.6266 13.8177 35.1791C13.6617 35.7316 13.3302 35.7528 13.3302 35.2003C13.3302 34.7966 13.5642 34.7116 15.1827 34.4991C16.5477 34.3078 16.8207 34.3503 17.0352 34.7541ZM14.5002 35.0303C14.5002 35.0728 14.3637 35.5191 14.2272 36.0503C14.0127 36.7728 13.9152 36.9216 13.8177 36.6241C13.6617 36.2203 14.0517 34.9878 14.3247 34.9878C14.4222 34.9878 14.5002 35.0091 14.5002 35.0303ZM14.9877 36.1566C14.9877 36.7728 14.9097 37.1128 14.7537 37.1128C14.4807 37.1128 14.3832 35.6041 14.6367 35.3491C14.9097 35.0303 15.0072 35.2428 14.9877 36.1566ZM16.5087 35.9653C16.8597 36.1778 17.6982 36.7091 18.4002 37.1978C19.1022 37.6866 19.9212 38.0691 20.2527 38.0691C20.5647 38.0903 21.5592 38.1753 22.4172 38.2603L23.9967 38.4303L24.7962 39.7691C25.6347 41.1503 27.2532 42.6803 28.3257 43.0841C28.6767 43.2116 28.9887 43.2753 29.0277 43.2328C29.0667 43.1903 29.0277 42.5741 28.9497 41.8728C28.8522 41.1716 28.8132 40.3428 28.8717 40.0453C28.9692 39.4928 28.9692 39.4928 29.8662 40.4703L30.7827 41.4691L30.8802 39.7691C30.9972 38.1116 31.3677 36.4753 31.6212 36.4753C31.6992 36.4753 32.0307 36.8791 32.3427 37.3678C33.0447 38.4303 34.7997 40.0241 36.6522 41.3628L38.0172 42.3403L37.7637 43.3816C37.3347 45.2303 37.0812 49.4166 37.1592 53.7516C37.1982 57.3003 37.1787 57.9166 36.9447 57.8316C36.7887 57.7678 36.0672 57.2791 35.3457 56.7478C33.0057 55.0691 31.2702 52.9228 28.4037 48.2053C26.5512 45.1453 25.2837 43.3391 24.0357 41.9153C22.2807 39.9178 20.2332 38.0266 20.0382 38.2178C19.9797 38.2816 20.3697 38.6641 20.8767 39.0891C21.3837 39.4928 22.6902 40.8316 23.7822 42.0428C25.3032 43.7428 26.2782 45.1453 28.2282 48.3753C31.0752 53.0928 32.9862 55.3666 35.7162 57.3003C36.8082 58.0653 37.3152 58.5541 37.3152 58.8516C37.3152 59.2341 37.2567 59.2128 36.3987 58.6816C33.0642 56.5778 30.9387 54.1766 27.7017 48.8853C24.9327 44.3166 23.6457 42.6166 21.4227 40.6191C19.7067 39.0678 16.7037 36.8153 16.0797 36.5816C15.8457 36.5178 15.6702 36.2628 15.6702 36.0291C15.6702 35.5403 15.7287 35.5403 16.5087 35.9653ZM9.04018 36.2628C9.04018 36.3691 8.68918 36.4753 8.26018 36.4753C7.83118 36.4753 7.48018 36.3691 7.48018 36.2628C7.48018 36.1353 7.83118 36.0503 8.26018 36.0503C8.68918 36.0503 9.04018 36.1353 9.04018 36.2628ZM66.2727 44.9966C66.6822 46.6116 66.9552 49.4378 66.6822 49.4378C66.5847 49.4378 66.0387 48.9278 65.4732 48.3116L64.4397 47.1853L64.7322 46.2503C64.9077 45.7191 65.0052 44.9541 64.9467 44.5078C64.8687 43.8278 64.9077 43.7216 65.2782 43.6578C65.8827 43.5303 65.9022 43.5728 66.2727 44.9966ZM41.0982 64.8653C41.1567 65.0566 41.2152 65.5241 41.2152 65.9278V66.6503H38.2707C36.5157 66.6503 35.3847 66.5653 35.4627 66.4591C35.5212 66.3528 36.1062 65.8641 36.7887 65.3966C37.9392 64.5678 38.0757 64.5253 39.4797 64.5253C40.6692 64.5253 41.0007 64.5891 41.0982 64.8653Z" fill="#FCFFE8"/>
<path fill-rule="evenodd" clip-rule="evenodd" d="M31.0755 21.2816C31.212 21.4729 31.368 21.5579 31.407 21.5154C31.5435 21.3666 31.2705 20.9629 31.0365 20.9629C30.9195 20.9629 30.9195 21.0904 31.0755 21.2816Z" fill="#FCFFE8"/>
<path fill-rule="evenodd" clip-rule="evenodd" d="M29.4177 21.3873C29.3592 21.4936 29.3787 21.5998 29.4957 21.5998C29.5932 21.5998 29.7492 21.4936 29.8077 21.3873C29.8662 21.2598 29.8467 21.1748 29.7297 21.1748C29.6322 21.1748 29.4762 21.2598 29.4177 21.3873Z" fill="#FCFFE8"/>
<path fill-rule="evenodd" clip-rule="evenodd" d="M30.2949 22.5572C30.2949 22.961 30.3729 23.301 30.4509 23.301C30.5289 23.301 30.5679 22.961 30.5289 22.5572C30.4899 22.1535 30.4119 21.8135 30.3729 21.8135C30.3339 21.8135 30.2949 22.1535 30.2949 22.5572Z" fill="#FCFFE8"/>
<path fill-rule="evenodd" clip-rule="evenodd" d="M31.0364 22.1746C31.1729 22.2384 31.3484 22.2171 31.4069 22.1534C31.4849 22.0896 31.3679 22.0259 31.1534 22.0471C30.9389 22.0471 30.8804 22.1109 31.0364 22.1746Z" fill="#FCFFE8"/>
<path fill-rule="evenodd" clip-rule="evenodd" d="M31.6605 23.3852C31.6605 23.5765 31.5825 23.7252 31.4655 23.7252C31.368 23.7252 31.2705 23.8102 31.2705 23.9377C31.2705 24.214 31.797 23.959 31.9335 23.619C31.992 23.449 31.953 23.2577 31.8555 23.194C31.7385 23.109 31.6605 23.2152 31.6605 23.3852Z" fill="#FCFFE8"/>
<path fill-rule="evenodd" clip-rule="evenodd" d="M1.16228 29.1869C0.928278 31.0782 0.811278 35.2432 0.947778 38.3244L1.10378 41.6394L2.39078 41.5119C3.09278 41.4482 4.37978 41.1719 5.23778 40.8957L6.79778 40.4069L6.91478 39.1319C7.09028 37.4957 7.09028 33.1607 6.91478 31.3757L6.79778 29.9944L4.65278 29.3357C1.10378 28.2307 1.29878 28.2307 1.16228 29.1869ZM6.17378 30.0369L6.70028 30.1644L6.66128 35.1794L6.60278 40.1944L5.54978 40.5769C4.24328 41.0444 1.68878 41.4907 1.49378 41.2782C1.29878 41.0657 1.18178 31.6944 1.33778 29.9519L1.45478 28.6557L3.54128 29.2719C4.69178 29.6119 5.86178 29.9519 6.17378 30.0369Z" fill="#FCFFE8"/>
<path fill-rule="evenodd" clip-rule="evenodd" d="M3.98929 31.7156C1.98079 33.5643 2.76079 39.9393 4.88629 39.1106C5.97829 38.6856 6.75829 35.6468 6.32929 33.4581C6.05629 32.1193 5.49079 31.1631 4.94479 31.1631C4.74979 31.1631 4.32079 31.4181 3.98929 31.7156ZM5.27629 31.5456C6.13429 32.1406 6.42679 36.0081 5.74429 37.6868C5.08129 39.2381 4.14529 39.3443 3.44329 37.8993C2.91679 36.8156 2.97529 33.8618 3.52129 32.7143C4.10629 31.5456 4.71079 31.1418 5.27629 31.5456Z" fill="#FCFFE8"/>
<path fill-rule="evenodd" clip-rule="evenodd" d="M4.49614 33.2029C4.20364 33.5216 4.35964 34.1591 4.71064 34.0954C4.88614 34.0529 5.04214 33.8404 5.04214 33.6279C5.04214 33.2029 4.73014 32.9691 4.49614 33.2029Z" fill="#FCFFE8"/>
<path fill-rule="evenodd" clip-rule="evenodd" d="M4.43823 36.1569C4.30173 36.5394 4.47723 37.1132 4.73073 37.1132C4.94523 37.1132 5.10123 36.4757 5.00373 36.0932C4.88673 35.7319 4.57473 35.7744 4.43823 36.1569Z" fill="#FCFFE8"/>
<path fill-rule="evenodd" clip-rule="evenodd" d="M42.5413 33.0115C42.6778 33.0753 42.8533 33.0541 42.9118 32.9903C42.9898 32.9266 42.8728 32.8628 42.6583 32.8841C42.4438 32.8841 42.3853 32.9478 42.5413 33.0115Z" fill="#FCFFE8"/>
<path fill-rule="evenodd" clip-rule="evenodd" d="M43.1654 61.7632C43.6529 61.9332 44.8619 62.0394 44.7059 61.8907C44.6669 61.8482 44.1989 61.7632 43.6529 61.6994C42.9899 61.6144 42.8339 61.6357 43.1654 61.7632Z" fill="#FCFFE8"/>
<path fill-rule="evenodd" clip-rule="evenodd" d="M49.6588 61.9109C49.8343 61.9534 50.1073 61.9534 50.2438 61.9109C50.3608 61.8472 50.2243 61.8047 49.8928 61.8047C49.5808 61.8047 49.4638 61.8472 49.6588 61.9109Z" fill="#FCFFE8"/>
<path fill-rule="evenodd" clip-rule="evenodd" d="M45.954 62.1243C46.5585 62.1668 47.5725 62.1668 48.1965 62.1243C48.801 62.0818 48.294 62.0605 47.0655 62.0605C45.837 62.0605 45.33 62.0818 45.954 62.1243Z" fill="#FCFFE8"/>
</svg>
