<svg width="18" height="18" viewBox="0 0 18 18" fill="none" xmlns="http://www.w3.org/2000/svg">
<path d="M9 1.6875C7.55373 1.6875 6.13993 2.11637 4.9374 2.91988C3.73486 3.72339 2.7976 4.86544 2.24413 6.20163C1.69067 7.53781 1.54586 9.00811 1.82801 10.4266C2.11017 11.8451 2.80661 13.148 3.82928 14.1707C4.85196 15.1934 6.15492 15.8898 7.57341 16.172C8.99189 16.4541 10.4622 16.3093 11.7984 15.7559C13.1346 15.2024 14.2766 14.2651 15.0801 13.0626C15.8836 11.8601 16.3125 10.4463 16.3125 9C16.3105 7.06123 15.5394 5.20246 14.1685 3.83154C12.7975 2.46063 10.9388 1.68955 9 1.6875ZM6.46875 6.75C6.63563 6.75 6.79876 6.79948 6.93752 6.8922C7.07627 6.98491 7.18442 7.11669 7.24828 7.27086C7.31214 7.42504 7.32885 7.59469 7.29629 7.75836C7.26373 7.92203 7.18338 8.07237 7.06537 8.19037C6.94737 8.30837 6.79703 8.38873 6.63336 8.42129C6.46969 8.45384 6.30004 8.43713 6.14586 8.37327C5.99169 8.30941 5.85991 8.20127 5.7672 8.06251C5.67449 7.92376 5.625 7.76063 5.625 7.59375C5.625 7.36997 5.7139 7.15536 5.87213 6.99713C6.03037 6.83889 6.24498 6.75 6.46875 6.75ZM12.2991 10.9688C11.5755 12.2196 10.3732 12.9375 9 12.9375C7.6268 12.9375 6.42446 12.2203 5.70094 10.9688C5.66024 10.9047 5.63291 10.8331 5.6206 10.7583C5.60829 10.6834 5.61125 10.6068 5.62929 10.5332C5.64734 10.4595 5.68011 10.3902 5.72563 10.3295C5.77114 10.2688 5.82846 10.218 5.89414 10.18C5.95982 10.142 6.03251 10.1177 6.10782 10.1086C6.18313 10.0994 6.25951 10.1056 6.33237 10.1268C6.40523 10.1479 6.47306 10.1836 6.53178 10.2316C6.5905 10.2796 6.6389 10.339 6.67407 10.4062C7.1993 11.314 8.02477 11.8125 9 11.8125C9.97524 11.8125 10.8007 11.3133 11.3259 10.4062C11.3611 10.339 11.4095 10.2796 11.4682 10.2316C11.5269 10.1836 11.5948 10.1479 11.6676 10.1268C11.7405 10.1056 11.8169 10.0994 11.8922 10.1086C11.9675 10.1177 12.0402 10.142 12.1059 10.18C12.1715 10.218 12.2289 10.2688 12.2744 10.3295C12.3199 10.3902 12.3527 10.4595 12.3707 10.5332C12.3888 10.6068 12.3917 10.6834 12.3794 10.7583C12.3671 10.8331 12.3398 10.9047 12.2991 10.9688ZM11.5313 8.4375C11.3644 8.4375 11.2012 8.38802 11.0625 8.2953C10.9237 8.20259 10.8156 8.07081 10.7517 7.91664C10.6879 7.76246 10.6712 7.59281 10.7037 7.42914C10.7363 7.26547 10.8166 7.11513 10.9346 6.99713C11.0526 6.87913 11.203 6.79877 11.3666 6.76621C11.5303 6.73366 11.7 6.75037 11.8541 6.81423C12.0083 6.87809 12.1401 6.98623 12.2328 7.12499C12.3255 7.26374 12.375 7.42687 12.375 7.59375C12.375 7.81753 12.2861 8.03214 12.1279 8.19037C11.9696 8.34861 11.755 8.4375 11.5313 8.4375Z" fill="#FFCC00"/>
</svg>
