<svg width="64" height="62" viewBox="0 0 64 62" fill="none" xmlns="http://www.w3.org/2000/svg">
<path fill-rule="evenodd" clip-rule="evenodd" d="M44.5802 1.02001C43.0447 1.18001 42.7672 1.26001 42.4157 1.72002C42.1752 2.00002 41.9902 2.46002 41.9902 2.74002C41.9902 3.22002 41.9532 3.24002 41.3057 3.14002C39.3262 2.80002 32.8697 2.58002 27.2827 2.64002C21.1222 2.70002 20.9742 2.72002 20.0307 3.18002C18.2362 4.04002 17.0707 5.96002 16.5342 8.94002C16.1457 11.1 16.1457 15.46 16.5527 19C16.9042 22.16 16.8487 24.02 16.3677 25.36C16.1272 25.98 15.9607 26.18 15.7387 26.1C14.9987 25.86 11.6687 25.6 8.87516 25.6C6.59966 25.6 5.69316 25.52 5.32316 25.32C4.80516 25.02 4.17616 24.92 3.30666 24.96C2.86266 25 2.45566 25.28 1.38266 26.32C0.753659 26.94 0.51316 28.56 0.58716 31.82C0.64266 34.62 0.642659 34.64 1.16066 35.12C1.66016 35.58 1.77116 35.6 4.82366 35.6C7.67266 35.6 8.48666 35.74 7.65416 36.08C7.35816 36.2 7.35816 36.24 7.65416 36.56C7.83916 36.8 7.95016 37.28 7.95016 37.86C7.95016 38.64 7.89466 38.8 7.59866 38.8C7.39516 38.8 7.19166 39.02 7.06216 39.34C5.95216 42.68 4.80516 45.82 4.15766 47.3C2.86266 50.3 2.82566 50.4 3.23266 50.72C3.43616 50.88 3.67666 50.98 3.78766 50.94C4.00966 50.86 4.50916 49.78 4.80516 48.7C5.36016 46.66 7.82066 40.22 7.98716 40.32C8.11666 40.42 8.17216 42.46 8.11666 46.58L8.04266 52.7H8.59766H9.15266V46.7C9.15266 43.4 9.22666 40.66 9.31916 40.6C9.46716 40.5 12.0202 47.22 12.0202 47.68C12.0202 47.8 12.2422 48.52 12.5197 49.3C13.1117 51.02 13.3892 51.3 13.9257 50.7C14.1847 50.44 14.1477 50.24 13.7407 49.06C13.4817 48.3 13.1672 47.56 13.0377 47.4C12.9082 47.24 12.2607 45.52 11.5577 43.6C9.83716 38.78 9.85566 38.8 9.48566 38.8C9.18966 38.8 9.15266 38.62 9.20816 37.32L9.26366 35.84L9.98516 36.02C10.4662 36.14 11.0027 36.1 11.7242 35.9C12.2977 35.74 13.2782 35.6 13.8702 35.6C14.8137 35.6 15.0542 35.52 15.5537 35.04C16.1087 34.5 16.1457 34.36 16.3122 32.38C16.4232 31.24 16.5157 30.3 16.5342 30.3C16.5342 30.28 17.0337 30.32 17.6072 30.36C18.4582 30.42 18.6802 30.52 18.7727 30.82C18.9207 31.3 19.5682 31.6 20.4192 31.6H21.0482L21.1222 32.9C21.2147 34.68 21.6957 35.2 23.3422 35.4L24.5077 35.54L23.3422 35.58C22.6947 35.58 21.9362 35.74 21.6402 35.9C20.8632 36.34 18.3657 39.5 16.7192 42.12C15.3502 44.3 15.3132 44.36 15.4427 45.26C15.6647 46.84 15.4242 46.76 20.9002 47.04C31.9077 47.58 61.4337 47.22 61.8222 46.54C61.8962 46.4 62.0442 45.88 62.1552 45.36C62.3217 44.46 62.2847 44.3 61.4152 42.06C60.8972 40.76 60.0832 38.94 59.6022 38C58.5107 35.94 58.0297 35.62 56.1427 35.58L54.8477 35.54L56.0317 35.4C57.0492 35.28 57.3082 35.16 57.7337 34.64C58.1777 34.1 58.2517 33.8 58.3812 32.06C58.4552 30.98 58.5292 27.48 58.5477 24.28V18.44L59.5837 18.32C60.3607 18.22 60.7307 18.06 61.0637 17.68L61.5077 17.16V9.68C61.5077 2.26 61.5077 2.2 61.1007 1.78C60.8417 1.49999 60.3237 1.26 59.7132 1.16C58.2517 0.919995 46.6152 0.800015 44.5802 1.02001ZM58.0112 1.40002C60.6567 1.62002 60.8232 1.68002 61.0082 2.38002C61.0822 2.66002 61.1377 6.12002 61.1377 10.04C61.1377 16.48 61.1007 17.22 60.8232 17.54C60.5827 17.78 59.9537 17.92 58.1407 18.06C55.2362 18.28 43.7477 18.1 43.0817 17.84C42.8042 17.72 42.5267 17.46 42.4527 17.26C42.0642 16.2 42.0642 3.20002 42.4527 2.16002C42.6562 1.62002 43.7662 1.40001 47.1332 1.22001C50.4817 1.04001 54.4592 1.12002 58.0112 1.40002ZM38.1052 3.22002C39.5852 3.32002 41.0097 3.46002 41.2872 3.52002L41.7867 3.62002L41.7682 8.66002C41.7497 15.06 41.8977 17.06 42.4342 17.72C42.8042 18.2 42.9892 18.24 45.5977 18.4C47.1332 18.5 49.1312 18.6 50.0747 18.6H51.7767L51.9247 19.34C52.1282 20.48 52.0542 26.7 51.8137 28.3C51.3142 31.54 50.8517 33.2 50.3707 33.54C49.9637 33.84 48.8167 33.88 40.2142 33.96L30.5202 34.06V33.38C30.5202 31.78 30.3352 31.88 34.1647 31.72C36.0332 31.64 37.7907 31.48 38.0312 31.36C38.2717 31.24 38.5492 30.9 38.6047 30.62C38.7897 29.92 38.7897 20.84 38.6232 20.18C38.5492 19.9 38.2902 19.56 38.0312 19.44C37.7907 19.32 36.0702 19.16 34.2202 19.08C32.0372 19 30.8347 18.86 30.7977 18.72C30.7792 18.6 30.6127 17.6 30.4277 16.5C29.7987 12.54 28.1522 8.22002 26.3392 5.74002C25.8767 5.12002 25.0072 4.26002 24.3967 3.82002L23.2867 3.02002L24.9147 2.94002C27.2642 2.82002 34.9787 2.98002 38.1052 3.22002ZM23.5457 3.64002C24.6557 4.24002 26.0062 5.70002 26.9127 7.28002C27.6897 8.64002 28.8552 11.2 28.8552 11.56C28.8552 11.66 27.4307 11.8 25.6917 11.86C21.2147 12.02 21.1592 12.08 20.9742 16.36L20.8447 19.2H20.3082C20.0122 19.2 19.5312 19.34 19.2352 19.5C18.7727 19.76 18.6987 19.94 18.5507 21.14C18.3842 22.7 18.4027 28.74 18.5692 29.5C18.6802 30 18.6617 30 17.6072 30H16.5157L16.3862 28.3C16.2937 26.86 16.3307 26.46 16.6637 25.56C17.2187 24.02 17.2927 22.12 16.9227 19C16.4972 15.6 16.4972 10.88 16.9042 8.80002C17.4777 5.92002 18.6987 4.08002 20.5672 3.38002C21.6772 2.96002 22.4357 3.02002 23.5457 3.64002ZM29.2252 12.84C29.2252 13.12 28.8922 13.18 26.4502 13.24C23.7307 13.3 23.6752 13.3 23.1757 13.84C22.7317 14.34 22.6762 14.56 22.5467 16.6C22.4727 17.82 22.3802 18.86 22.3432 18.9C22.3062 18.94 22.0472 19.04 21.7512 19.12L21.2147 19.26L21.3442 16.4C21.3997 14.84 21.5477 13.4 21.6402 13.18C22.0102 12.44 22.5837 12.3 25.8027 12.2C28.9847 12.1 29.2252 12.14 29.2252 12.84ZM58.1962 19.14C58.3442 19.96 58.1592 30.76 57.9742 32.76C57.7892 34.54 57.4192 34.92 55.6617 35.1C54.9032 35.16 47.1702 35.2 38.4752 35.16C21.3997 35.1 22.1212 35.14 21.6587 34.06C21.5477 33.8 21.4552 33.14 21.4552 32.6C21.4552 31.64 21.4737 31.6 21.9732 31.6C22.4357 31.6 22.5097 31.7 22.7132 32.5C23.0647 33.94 23.3422 34.04 27.4492 34.26C31.2232 34.44 54.3297 34.3 55.1622 34.08C55.4397 34.02 55.8837 33.74 56.1242 33.46C56.7532 32.8 56.8642 31.26 56.8827 24.16V18.4H57.4747C58.0112 18.4 58.0852 18.46 58.1962 19.14ZM36.0332 19.54C36.9767 19.6 37.8832 19.78 38.0682 19.92C38.3457 20.14 38.3827 20.66 38.3827 25.4C38.3642 30.2 38.3457 30.66 38.0312 30.9C37.4947 31.34 34.6642 31.44 27.0607 31.36C21.9177 31.3 19.7717 31.22 19.4757 31.04C18.9392 30.72 18.8097 29.48 18.7912 25.2C18.7912 21.24 18.9392 20.08 19.4387 19.78C20.3082 19.28 30.5387 19.14 36.0332 19.54ZM4.71266 25.4C5.04566 25.54 5.04566 25.58 4.52766 25.8C3.95416 26.04 2.77016 25.92 2.77016 25.6C2.77016 25.22 4.02816 25.08 4.71266 25.4ZM12.5752 27.2C14.4807 28.24 15.2947 30.86 14.4067 33C13.6482 34.8 12.4087 35.68 10.6327 35.68C8.24616 35.68 6.47016 33.78 6.47016 31.2C6.47016 27.78 9.74466 25.64 12.5752 27.2ZM7.52466 27.66C6.45166 28.8 6.02616 30.02 6.15566 31.6C6.24816 32.88 6.93266 34.42 7.59866 34.86C7.78366 34.98 7.95016 35.18 7.95016 35.28C7.95016 35.46 5.21216 35.32 5.02716 35.12C4.80516 34.86 5.30466 29.5 5.61916 28.82C5.84116 28.38 5.87816 28.08 5.76716 27.96C5.45266 27.62 2.15966 27.86 1.60466 28.26C0.97566 28.7 0.864659 28.68 1.10516 28.18C1.53066 27.36 3.21416 27 7.63566 26.82L8.35716 26.8L7.52466 27.66ZM15.1467 27.4C15.4982 27.5 15.8497 27.7 15.9422 27.84C16.1087 28.16 16.1087 30.72 15.9237 32.88C15.7757 34.76 15.4242 35.2 14.1107 35.2H13.2782L13.9997 34.32C15.5352 32.42 15.5352 29.76 13.9812 27.92L13.3522 27.2H13.9442C14.2587 27.2 14.8137 27.28 15.1467 27.4ZM4.37966 28.94C4.82366 29.56 4.91616 29.84 4.84216 30.44C4.80516 30.86 4.71266 31.2 4.63866 31.2C4.32416 31.2 2.58516 28.8 2.58516 28.38C2.58516 28.28 2.86266 28.2 3.19566 28.2C3.69516 28.2 3.93566 28.36 4.37966 28.94ZM5.30466 28.68C5.10116 29.14 5.06416 29.14 4.76816 28.86C4.28716 28.4 4.36116 28.2 4.97166 28.2C5.47116 28.2 5.48966 28.24 5.30466 28.68ZM2.49266 29.04C2.67766 29.4 3.28816 30.22 3.84316 30.84C4.80516 31.94 4.84216 32.02 4.69416 32.72L4.52766 33.44L3.56566 32.52C3.02916 32 2.25216 31.02 1.84516 30.34L1.06816 29.1L1.47516 28.76C2.03016 28.28 2.08566 28.3 2.49266 29.04ZM3.32516 32.68C4.37966 33.76 4.62016 34.1 4.62016 34.6V35.22L4.02816 34.86C3.69516 34.66 2.86266 33.9 2.17816 33.18L0.920159 31.84V30.68V29.54L1.47516 30.44C1.78966 30.96 2.62216 31.96 3.32516 32.68ZM3.36216 34.8L3.97266 35.2H2.84416C1.34566 35.2 1.06816 34.96 0.95716 33.52L0.86466 32.36L1.80816 33.38C2.32616 33.94 3.01066 34.56 3.36216 34.8ZM52.7202 35.94L57.7707 36.06L58.2887 36.58C59.3062 37.6 62.2292 44.4 61.8222 44.84C61.4152 45.28 54.2187 45.48 38.8452 45.48C23.2682 45.48 16.2752 45.28 15.8682 44.84C15.5722 44.52 16.0347 43.64 17.9402 40.9C19.4202 38.78 20.7707 37.1 21.5477 36.4C21.7882 36.18 22.5652 36.08 24.5817 35.98C28.7072 35.82 47.0407 35.78 52.7202 35.94Z" fill="#FCFFE8"/>
<path fill-rule="evenodd" clip-rule="evenodd" d="M46.3374 2.42023C45.3199 2.50023 44.3024 2.64023 44.0619 2.70023C43.2849 2.90023 43.2109 3.54024 43.1924 9.60023C43.1924 15.8602 43.2849 16.4802 44.1914 16.7602C44.8204 16.9402 58.5844 16.9402 59.2134 16.7602C60.0644 16.5002 60.1199 16.0202 60.1199 9.60023C60.1199 2.04024 60.4714 2.70023 56.3459 2.42023C53.0344 2.18023 49.0754 2.18023 46.3374 2.42023ZM56.7899 2.80023C58.7509 2.96023 59.3429 3.08023 59.5279 3.34023C59.6574 3.54023 59.7499 4.34023 59.7499 5.42023V7.14023L58.7879 7.28023C57.4929 7.44023 46.9479 7.44023 44.9869 7.26023L43.4329 7.14023L43.5624 5.32023C43.6364 4.32023 43.8029 3.38023 43.9324 3.24023C44.4134 2.68023 52.0539 2.42023 56.7899 2.80023ZM59.7499 11.0402C59.7499 13.6002 59.6944 14.4002 59.5279 14.4002C58.9914 14.4002 58.4549 14.1402 58.4549 13.8802C58.4549 13.4602 57.6779 13.0002 56.9749 13.0002C56.6234 13.0002 55.7909 13.1802 55.1249 13.4202C53.6264 13.9202 51.1659 14.1602 50.9624 13.8202C50.8884 13.6802 50.9624 13.4202 51.1289 13.2202C51.5544 12.7202 51.4989 12.0802 51.0179 11.7202C50.7034 11.4802 50.0929 11.4002 48.4464 11.4002C47.2439 11.4002 46.1524 11.3402 45.9859 11.2802C45.5789 11.1202 45.6159 10.7402 46.0599 10.4402C46.9479 9.86023 46.0044 9.20023 44.2654 9.20023C43.4699 9.20023 43.4699 9.20023 43.4699 8.44023V7.70023H51.6099H59.7499V11.0402ZM45.7454 9.78023C46.0599 9.90023 46.0599 9.94023 45.7084 10.2802C45.2089 10.7602 45.2274 11.1002 45.7269 11.4802C46.0414 11.7202 46.6519 11.8002 48.2984 11.8002C49.5009 11.8002 50.5924 11.8602 50.7589 11.9202C51.1289 12.0802 51.1474 12.6802 50.7774 13.0002C50.6109 13.1402 50.4999 13.4602 50.5369 13.6802C50.6664 14.6002 52.8309 14.5202 56.2164 13.5002C57.3264 13.1802 57.8074 13.3202 58.0849 14.1002C58.2144 14.4602 58.4179 14.5802 58.9544 14.6402C59.5464 14.7002 59.6574 14.7802 59.7129 15.2002C59.7499 15.4802 59.6574 15.8802 59.5094 16.0802C59.2874 16.4202 58.8804 16.4802 56.2164 16.6402C53.3119 16.8002 46.7629 16.7202 44.8944 16.4802C44.3209 16.4002 43.9509 16.2402 43.8399 16.0002C43.7474 15.8002 43.5994 14.2802 43.5439 12.6202L43.4144 9.60023L44.4134 9.62023C44.9684 9.62023 45.5604 9.70023 45.7454 9.78023Z" fill="#FCFFE8"/>
<path fill-rule="evenodd" clip-rule="evenodd" d="M55.8657 8.81924L55.0332 9.19924L55.7732 9.09924C56.7537 8.93924 57.1422 8.95924 57.8637 9.11924C58.1782 9.17924 58.4557 9.15924 58.4557 9.05924C58.4557 8.95924 58.2337 8.85924 57.9562 8.83924C57.6787 8.81924 57.3642 8.69924 57.2717 8.59924C57.0312 8.33924 56.8647 8.35924 55.8657 8.81924Z" fill="#FCFFE8"/>
<path fill-rule="evenodd" clip-rule="evenodd" d="M50.2229 9.03991L49.2979 9.39991L50.1304 9.29991C51.2034 9.17991 51.2033 9.17991 52.0358 9.31991C52.4983 9.39991 52.7204 9.35991 52.7204 9.19991C52.7204 9.07991 52.5724 9.01991 52.3874 9.07991C52.2024 9.15991 51.8879 9.05991 51.6844 8.89991C51.2774 8.55991 51.3884 8.55991 50.2229 9.03991Z" fill="#FCFFE8"/>
<path fill-rule="evenodd" clip-rule="evenodd" d="M55.4951 10.8009C55.3471 10.9209 54.9031 11.1009 54.5331 11.2009C54.1446 11.3209 53.8301 11.5009 53.8301 11.6009C53.8301 11.7009 54.2186 11.6609 54.7181 11.5009C55.2546 11.3209 55.9206 11.2409 56.4756 11.3209C57.0676 11.4209 57.3451 11.3809 57.3451 11.2209C57.3451 11.1009 57.0676 11.0009 56.7346 11.0009C56.4016 11.0009 56.0501 10.9209 55.9391 10.8009C55.8281 10.6809 55.6616 10.6809 55.4951 10.8009Z" fill="#FCFFE8"/>
<path fill-rule="evenodd" clip-rule="evenodd" d="M45.5974 12.3992C45.5419 12.4992 45.5789 12.5992 45.6714 12.5992C45.7824 12.5992 45.8749 12.4992 45.8749 12.3992C45.8749 12.2792 45.8379 12.1992 45.8009 12.1992C45.7454 12.1992 45.6529 12.2792 45.5974 12.3992Z" fill="#FCFFE8"/>
<path fill-rule="evenodd" clip-rule="evenodd" d="M49.1122 13.3992C49.1862 13.5192 49.3157 13.5592 49.4082 13.4992C49.6672 13.3192 49.6117 13.1992 49.2787 13.1992C49.1307 13.1992 49.0567 13.2992 49.1122 13.3992Z" fill="#FCFFE8"/>
<path fill-rule="evenodd" clip-rule="evenodd" d="M46.2451 14.0997C46.2451 14.2797 46.3376 14.3997 46.4486 14.3597C46.5596 14.3197 46.6521 14.1997 46.6521 14.0997C46.6521 13.9997 46.5596 13.8797 46.4486 13.8397C46.3376 13.7997 46.2451 13.9197 46.2451 14.0997Z" fill="#FCFFE8"/>
<path fill-rule="evenodd" clip-rule="evenodd" d="M44.9502 15.0008C44.9502 15.1008 45.0427 15.2008 45.1352 15.2008C45.2462 15.2008 45.3202 15.1008 45.3202 15.0008C45.3202 14.8808 45.2462 14.8008 45.1352 14.8008C45.0427 14.8008 44.9502 14.8808 44.9502 15.0008Z" fill="#FCFFE8"/>
<path fill-rule="evenodd" clip-rule="evenodd" d="M53.6455 15.0008C53.6455 15.1008 53.738 15.2008 53.8305 15.2008C53.9415 15.2008 54.0155 15.1008 54.0155 15.0008C54.0155 14.8808 53.9415 14.8008 53.8305 14.8008C53.738 14.8008 53.6455 14.8808 53.6455 15.0008Z" fill="#FCFFE8"/>
<path fill-rule="evenodd" clip-rule="evenodd" d="M50.1299 15.2C50.1299 15.3 50.2224 15.4 50.3149 15.4C50.4259 15.4 50.4999 15.3 50.4999 15.2C50.4999 15.08 50.4259 15 50.3149 15C50.2224 15 50.1299 15.08 50.1299 15.2Z" fill="#FCFFE8"/>
<path fill-rule="evenodd" clip-rule="evenodd" d="M47.9102 15.3992C47.9102 15.4992 48.0027 15.5992 48.0952 15.5992C48.2062 15.5992 48.2802 15.4992 48.2802 15.3992C48.2802 15.2792 48.2062 15.1992 48.0952 15.1992C48.0027 15.1992 47.9102 15.2792 47.9102 15.3992Z" fill="#FCFFE8"/>
<path fill-rule="evenodd" clip-rule="evenodd" d="M52.2577 15.7996C52.3132 15.8996 52.4427 15.9996 52.5537 15.9996C52.6462 15.9996 52.7202 15.8996 52.7202 15.7996C52.7202 15.6796 52.5907 15.5996 52.4242 15.5996C52.2762 15.5996 52.2022 15.6796 52.2577 15.7996Z" fill="#FCFFE8"/>
<path fill-rule="evenodd" clip-rule="evenodd" d="M54.5703 15.7996C54.5703 15.8996 54.6628 15.9996 54.7553 15.9996C54.8663 15.9996 54.9403 15.8996 54.9403 15.7996C54.9403 15.6796 54.8663 15.5996 54.7553 15.5996C54.6628 15.5996 54.5703 15.6796 54.5703 15.7996Z" fill="#FCFFE8"/>
<path fill-rule="evenodd" clip-rule="evenodd" d="M32.7033 8.54067C32.0003 8.58067 31.4453 8.70067 31.4453 8.78067C31.4453 8.98067 37.3838 8.82067 38.2903 8.60067C38.9378 8.44067 35.2563 8.40067 32.7033 8.54067Z" fill="#FCFFE8"/>
<path fill-rule="evenodd" clip-rule="evenodd" d="M34.1275 10.5399C33.221 10.5799 32.3885 10.7199 32.2775 10.8399C32.148 10.9799 32.592 11.0199 33.8315 10.9199C34.7935 10.8599 36.144 10.7999 36.847 10.7999C37.5685 10.7999 38.105 10.7199 38.105 10.5999C38.105 10.3999 37.809 10.3999 34.1275 10.5399Z" fill="#FCFFE8"/>
<path fill-rule="evenodd" clip-rule="evenodd" d="M32.8692 13.2193C32.9987 13.3593 34.0532 13.3793 36.3657 13.2393L39.6772 13.0593L36.1807 13.0393C33.6832 12.9993 32.7212 13.0593 32.8692 13.2193Z" fill="#FCFFE8"/>
<path fill-rule="evenodd" clip-rule="evenodd" d="M46.8004 22.2002C46.0419 22.2802 44.4324 22.3602 43.2484 22.3802C41.9349 22.3802 41.0654 22.4802 41.0654 22.6002C41.0654 23.0002 48.5209 22.6202 48.9094 22.2002C49.1129 21.9802 49.0204 21.9802 46.8004 22.2002Z" fill="#FCFFE8"/>
<path fill-rule="evenodd" clip-rule="evenodd" d="M43.9326 24.8402C40.9911 25.0002 40.5101 25.0802 40.7136 25.2802C40.8616 25.4402 49.6676 24.9402 49.8526 24.7802C50.0561 24.5602 48.2986 24.5802 43.9326 24.8402Z" fill="#FCFFE8"/>
<path fill-rule="evenodd" clip-rule="evenodd" d="M40.6026 27.8002C40.4546 28.0402 44.5061 28.0402 45.0426 27.8002C45.2831 27.7002 44.5431 27.6203 43.0631 27.6203C41.6756 27.6003 40.6766 27.6802 40.6026 27.8002Z" fill="#FCFFE8"/>
<path fill-rule="evenodd" clip-rule="evenodd" d="M48.3916 29.5396C48.2991 30.3796 48.3546 30.7996 48.5396 30.5796C48.7246 30.3796 48.8726 28.5996 48.6876 28.5996C48.5951 28.5996 48.4656 29.0196 48.3916 29.5396Z" fill="#FCFFE8"/>
<path fill-rule="evenodd" clip-rule="evenodd" d="M42.6375 30.3996C41.1205 30.4596 40.1955 30.5596 40.399 30.6596C40.8615 30.8596 47.54 30.5996 47.54 30.3596C47.54 30.1996 47.2255 30.1996 42.6375 30.3996Z" fill="#FCFFE8"/>
<path fill-rule="evenodd" clip-rule="evenodd" d="M21.8623 20.1797C19.6053 20.3797 19.6978 20.1397 19.6978 25.3997C19.6978 29.3397 19.7348 29.8197 20.0308 30.1397C20.3083 30.4397 20.9003 30.5197 24.3413 30.6797C26.5243 30.7597 30.2058 30.7797 32.4998 30.6997C38.0313 30.4997 37.5503 30.9997 37.5503 25.3597C37.5503 23.0197 37.4763 20.9997 37.4023 20.8797C36.9953 20.2197 36.3848 20.1397 29.8913 20.0997C26.3208 20.0597 22.7133 20.0997 21.8623 20.1797ZM33.9798 20.7997C34.0908 21.2597 34.4053 21.3397 34.4053 20.8997C34.4053 20.6997 34.5903 20.5997 34.9603 20.5997C35.4783 20.5997 35.5153 20.6397 35.3303 20.9997C35.0528 21.5397 35.4043 21.4997 35.7373 20.9597C35.9778 20.5597 36.0888 20.5397 36.5513 20.6997L37.0878 20.8997L37.1433 25.3397C37.1803 29.7597 37.1803 29.7797 36.7733 30.0197C36.1628 30.3797 23.7863 30.5597 23.5828 30.2197C23.3608 29.8197 24.5078 27.5797 25.5068 26.4397C26.4873 25.3397 27.0978 25.0197 26.5613 25.8797C26.3948 26.1597 26.3393 26.4197 26.4318 26.4997C26.5428 26.5597 26.6908 26.4397 26.8018 26.2597C26.9498 25.9797 26.9868 25.9597 26.9868 26.1997C27.0053 26.3597 26.8388 26.7197 26.6353 26.9997C26.1543 27.6597 26.1543 27.9597 26.6353 27.4997C26.8758 27.2597 27.0053 27.2197 27.0053 27.3797C27.0053 27.5197 26.7463 27.8997 26.4318 28.2197C25.8768 28.7797 25.9138 28.9397 26.5428 28.6797C27.2273 28.3797 27.6343 26.4797 27.1903 25.5797C27.0238 25.2797 27.0608 25.1997 27.2828 25.1997C27.4493 25.1997 27.6713 25.4597 27.7638 25.7997C27.9858 26.4797 28.3188 26.4397 28.1523 25.7397C28.0598 25.2997 28.0598 25.2997 28.4483 25.6797C28.6888 25.8997 28.8553 26.2997 28.8553 26.6397C28.8553 26.9397 28.9478 27.1997 29.0403 27.1997C29.1513 27.1997 29.2253 26.9997 29.2253 26.7397C29.2438 26.3197 29.2438 26.2997 29.5028 26.6797C29.6508 26.8997 29.7803 27.2797 29.7803 27.5197C29.7803 27.7797 29.8728 28.0397 29.9653 28.0997C30.2613 28.2997 30.1873 27.4397 29.8543 26.6797C29.5028 25.8597 28.8738 25.3597 27.7453 24.9597L26.9128 24.6597L27.4123 24.3197C27.8748 23.9997 27.9488 23.9997 28.3373 24.2797C28.8923 24.7197 29.1698 24.6797 28.7998 24.2397C28.4113 23.7797 28.4113 23.5997 28.7443 23.5997C28.8923 23.5997 29.1883 23.8397 29.3918 24.1397C29.6138 24.4197 29.8358 24.5997 29.9098 24.5197C29.9838 24.4597 29.9283 24.2797 29.8173 24.1597C29.5213 23.8397 29.5398 23.5997 29.8543 23.5997C29.9838 23.5997 30.2058 23.8597 30.3353 24.1997C30.6313 24.9597 30.9828 24.9997 30.7978 24.2597C30.6868 23.7197 30.6868 23.7197 31.0568 24.0797C31.2788 24.2997 31.4453 24.6197 31.4453 24.8397C31.4453 25.0397 31.5378 25.1997 31.6303 25.1997C31.8708 25.1997 31.8708 24.6797 31.6118 24.1597C31.1678 23.2797 29.1698 22.8997 28.0968 23.5197C27.7823 23.6797 27.4863 23.7997 27.4493 23.7597C27.4123 23.7197 27.5048 23.2197 27.6343 22.6397C27.9858 21.2597 27.6713 21.0997 27.1163 22.3797L26.6908 23.3997L26.2098 22.7397C25.5808 21.8397 24.7298 21.4397 24.3228 21.8597C23.8973 22.3397 23.9898 22.4597 24.6743 22.3197C25.0443 22.2397 25.3588 22.2797 25.4328 22.3997C25.4883 22.4997 25.3773 22.5997 25.1738 22.5997C24.9518 22.5997 24.7853 22.6997 24.7853 22.8197C24.7853 22.9397 25.0443 22.9997 25.3773 22.9597C25.7103 22.9197 25.9878 22.9997 26.0248 23.1397C26.0803 23.2997 25.9323 23.3997 25.6363 23.3997C25.3773 23.3997 25.1553 23.4997 25.1553 23.5997C25.1553 23.7197 25.4143 23.7797 25.7473 23.7597C26.2098 23.7197 26.3578 23.7797 26.4133 24.0597C26.4688 24.3397 26.3948 24.4197 26.1358 24.3397C25.7473 24.1997 24.9703 24.1397 24.0083 24.1797C23.2868 24.1997 22.7503 24.6197 22.7688 25.1597C22.7688 25.4397 22.8243 25.4197 23.0648 25.0397C23.3793 24.5397 23.9713 24.4197 23.7863 24.8997C23.6383 25.3197 23.9343 25.2797 24.3228 24.7997C24.5078 24.5797 24.7668 24.3997 24.9148 24.3997C25.1183 24.3997 25.1183 24.4797 24.9703 24.7997C24.7298 25.2797 24.9148 25.3197 25.3588 24.8797C25.5623 24.6797 25.8213 24.6197 26.0803 24.6997C26.4503 24.8197 26.3948 24.9197 25.4698 25.9597C24.9333 26.5997 24.3228 27.3597 24.1378 27.6797C23.8048 28.2197 23.7863 28.2197 23.6383 27.8197C23.5643 27.5997 23.2313 27.2197 22.8983 26.9997C22.3988 26.6797 22.3618 26.5997 22.6208 26.4797C22.8243 26.3997 23.1018 26.4997 23.3053 26.6997C23.7308 27.1197 24.0268 26.9597 23.6753 26.4997C23.4903 26.2597 23.4903 26.1997 23.7308 26.1997C23.8973 26.1997 24.1008 26.3597 24.2118 26.5397C24.3043 26.7397 24.4523 26.8397 24.5263 26.7397C24.6003 26.6597 24.5078 26.4197 24.3228 26.1997C23.9528 25.7597 22.9538 25.6597 22.6023 26.0397C22.4358 26.2197 22.2878 26.1397 21.9363 25.7397C21.6033 25.3397 21.2888 25.1997 20.8078 25.1997C20.4008 25.1997 20.1788 25.2797 20.2528 25.3997C20.3268 25.5197 20.4563 25.5597 20.5488 25.4997C20.8633 25.2797 21.1223 25.6197 20.8633 25.9397C20.6598 26.2197 20.6968 26.2397 21.2333 26.1197C21.6958 25.9997 21.8253 26.0397 21.8253 26.2797C21.8253 26.4997 21.6588 26.5997 21.3073 26.5997C21.0298 26.5997 20.6043 26.7397 20.3823 26.9197L19.9753 27.2197V25.0197V22.7997H20.9743C21.5293 22.7997 22.0473 22.6997 22.1028 22.5797C22.1953 22.4397 21.8808 22.3797 21.1593 22.4197L20.0678 22.4797L20.1233 21.7797C20.2528 20.4397 19.9568 20.4997 28.2633 20.4397C33.7393 20.3997 33.8873 20.4197 33.9798 20.7997ZM21.5108 27.9397C21.4368 28.4797 21.3813 29.1997 21.3998 29.5397C21.4183 30.0997 21.3628 30.1997 21.0113 30.1997C20.7708 30.1997 20.4748 30.0797 20.3638 29.9197C20.0493 29.5197 20.0308 27.8997 20.3453 27.4997C20.6043 27.1597 20.6228 27.1797 20.7338 27.6197L20.8448 28.0997L21.0483 27.5397C21.3998 26.6397 21.6773 26.8797 21.5108 27.9397ZM22.5653 27.5797C22.5653 28.1397 22.9353 28.3197 22.9538 27.7597C22.9723 27.3797 23.0093 27.3997 23.2498 27.9997C23.4718 28.5597 23.4903 28.8397 23.3238 29.4397C23.1203 30.1197 23.0463 30.1997 22.4728 30.1997H21.8253V29.0197C21.8253 28.3597 21.8808 27.6997 21.9363 27.5197C22.1028 27.0597 22.5653 27.1197 22.5653 27.5797Z" fill="#FCFFE8"/>
<path fill-rule="evenodd" clip-rule="evenodd" d="M21.6959 21.1405C21.2519 21.1805 20.9004 21.3005 20.9004 21.3805C20.9004 21.5805 24.8039 21.4005 25.1554 21.1805C25.4329 21.0205 23.2869 21.0005 21.6959 21.1405Z" fill="#FCFFE8"/>
<path fill-rule="evenodd" clip-rule="evenodd" d="M32.3701 21.5807C32.3701 21.8007 33.0916 22.1007 33.2396 21.9207C33.3876 21.7607 33.2951 21.6807 32.7956 21.5207C32.5551 21.4407 32.3701 21.4607 32.3701 21.5807Z" fill="#FCFFE8"/>
<path fill-rule="evenodd" clip-rule="evenodd" d="M36.2184 21.8206C35.7004 22.1406 35.8299 22.4206 36.3479 22.1606C36.6069 22.0406 36.8104 21.8606 36.8104 21.7606C36.8104 21.5406 36.6069 21.5606 36.2184 21.8206Z" fill="#FCFFE8"/>
<path fill-rule="evenodd" clip-rule="evenodd" d="M34.1461 22.2408C33.7761 22.8008 34.0721 23.4008 34.6826 23.4008C35.2931 23.4008 35.5891 22.8008 35.2191 22.2408C35.0711 22.0008 34.8306 21.8008 34.6826 21.8008C34.5346 21.8008 34.2941 22.0008 34.1461 22.2408ZM35.0156 22.4808C35.0711 22.6208 35.0156 22.8608 34.9046 22.9808C34.6456 23.2608 34.2016 22.8808 34.3496 22.4808C34.4791 22.1208 34.8861 22.1208 35.0156 22.4808Z" fill="#FCFFE8"/>
<path fill-rule="evenodd" clip-rule="evenodd" d="M32.4255 23.2001C32.185 23.3001 32 23.4401 32 23.5201C32 23.6801 32.9805 23.4201 33.2025 23.1801C33.4245 22.9401 32.9805 22.9601 32.4255 23.2001Z" fill="#FCFFE8"/>
<path fill-rule="evenodd" clip-rule="evenodd" d="M36.1439 23.7004C36.5509 24.0404 36.8099 24.0804 36.8099 23.8204C36.8099 23.6204 36.3659 23.4004 36.0144 23.4004C35.8849 23.4004 35.9589 23.5404 36.1439 23.7004Z" fill="#FCFFE8"/>
<path fill-rule="evenodd" clip-rule="evenodd" d="M33.4802 24.6C33.1657 25.42 33.3692 25.6 33.7392 24.82C34.0722 24.12 34.0907 24 33.8687 24C33.7762 24 33.6097 24.28 33.4802 24.6Z" fill="#FCFFE8"/>
<path fill-rule="evenodd" clip-rule="evenodd" d="M35.1076 24.099C34.9596 24.259 35.1631 25.199 35.3481 25.199C35.4406 25.199 35.5146 25.039 35.5146 24.839C35.5146 24.439 35.2556 23.959 35.1076 24.099Z" fill="#FCFFE8"/>
<path fill-rule="evenodd" clip-rule="evenodd" d="M33.9984 27.3388C33.4989 27.3788 33.1104 27.5188 33.1104 27.6188C33.1104 27.8588 35.8114 27.6588 36.2554 27.3788C36.5329 27.1988 35.7559 27.1988 33.9984 27.3388Z" fill="#FCFFE8"/>
<path fill-rule="evenodd" clip-rule="evenodd" d="M33.6655 28.5197C33.4065 28.5597 32.389 28.6397 31.39 28.7197C30.243 28.7997 29.6325 28.9197 29.725 29.0197C29.836 29.1397 30.798 29.1397 32.278 28.9997C33.573 28.8997 34.8495 28.7997 35.0715 28.7997C35.312 28.7997 35.5155 28.6997 35.5155 28.5997C35.5155 28.4197 34.7385 28.3797 33.6655 28.5197Z" fill="#FCFFE8"/>
<path fill-rule="evenodd" clip-rule="evenodd" d="M9.35569 27.4797C7.63519 28.1797 6.59919 30.2197 7.04319 32.0997C7.33919 33.3797 8.48619 34.6797 9.59619 34.9997C12.0012 35.6997 14.2212 33.8197 14.2397 31.0997C14.2397 28.4797 11.6497 26.5597 9.35569 27.4797ZM11.7792 27.8197C12.4082 28.0797 13.2592 28.9197 13.6107 29.6397C13.9437 30.3397 13.9437 32.0597 13.6107 32.7597C11.9642 36.1397 7.35769 34.9997 7.35769 31.1997C7.35769 28.7197 9.67019 26.9397 11.7792 27.8197Z" fill="#FCFFE8"/>
<path fill-rule="evenodd" clip-rule="evenodd" d="M9.28274 29C8.65374 29.42 8.13574 30.42 8.13574 31.22C8.13574 31.44 8.28374 31.96 8.45024 32.34C9.30124 34.28 11.8727 34.28 12.7607 32.32C13.2232 31.28 13.2232 31.12 12.7607 30.1C12.1132 28.66 10.5592 28.16 9.28274 29ZM11.8912 29.4C13.4452 30.72 12.5942 33.4 10.6332 33.4C8.69074 33.4 7.80274 30.84 9.26424 29.52C9.98574 28.86 11.1882 28.8 11.8912 29.4Z" fill="#FCFFE8"/>
<path fill-rule="evenodd" clip-rule="evenodd" d="M9.48577 29.88C9.07877 30.26 8.96777 30.52 8.96777 31.2C8.96777 33.3 11.5948 33.7 12.2053 31.72C12.7418 29.96 10.7993 28.66 9.48577 29.88ZM11.0213 31.02C11.0768 31.14 11.0213 31.36 10.8918 31.52C10.5588 31.86 10.0778 31.56 10.2258 31.12C10.3553 30.76 10.8363 30.7 11.0213 31.02ZM11.8908 31.56C11.6873 32.2 11.2248 32.6 10.7438 32.58C10.2813 32.56 10.2813 32.56 10.8548 32.28C11.2248 32.12 11.5023 31.8 11.5763 31.5C11.6318 31.22 11.7613 31.06 11.8538 31.1C11.9278 31.16 11.9463 31.36 11.8908 31.56Z" fill="#FCFFE8"/>
<path fill-rule="evenodd" clip-rule="evenodd" d="M15.0362 27.9405C14.6477 28.0805 14.7587 28.6005 15.1657 28.6005C15.3692 28.6005 15.5357 28.4805 15.5357 28.3205C15.5357 27.9605 15.3322 27.8205 15.0362 27.9405Z" fill="#FCFFE8"/>
<path fill-rule="evenodd" clip-rule="evenodd" d="M57.1973 36.9396C57.2713 37.3396 57.5303 37.4596 57.8818 37.2196C58.2148 36.9796 57.9743 36.5996 57.5118 36.5996C57.2528 36.5996 57.1603 36.7196 57.1973 36.9396Z" fill="#FCFFE8"/>
<path fill-rule="evenodd" clip-rule="evenodd" d="M22.4541 36.999C22.2506 37.079 21.5661 37.899 20.9186 38.819C19.9381 40.219 19.8086 40.499 20.0306 40.739C20.5671 41.319 44.7836 41.559 55.0881 41.059C57.0306 40.979 57.7707 40.879 57.8447 40.679C57.9002 40.539 57.6596 39.679 57.3081 38.779C56.8641 37.599 56.5867 37.099 56.2722 36.979C55.7172 36.759 22.9721 36.759 22.4541 36.999ZM56.3831 37.439C57.0861 38.199 57.2526 38.199 39.3076 38.199C29.7986 38.199 22.0101 38.139 22.0101 38.059C22.0101 37.999 22.1396 37.759 22.3246 37.559C22.6021 37.219 23.3791 37.199 39.4001 37.199C52.1836 37.199 56.2166 37.259 56.3831 37.439ZM56.9937 38.939L57.1416 39.399H39.1226C29.2066 39.399 21.0851 39.339 21.0851 39.259C21.0851 39.199 21.2146 38.959 21.3996 38.759C21.6771 38.419 22.4356 38.399 39.2706 38.439L56.8456 38.499L56.9937 38.939ZM57.4931 40.239C57.5486 40.499 57.2896 40.579 55.9206 40.719C53.8116 40.939 24.3226 40.939 21.9731 40.719C20.2711 40.579 20.1786 40.539 20.3636 40.179C20.5486 39.799 20.9926 39.799 38.9931 39.839C55.9762 39.899 57.4376 39.919 57.4931 40.239Z" fill="#FCFFE8"/>
<path fill-rule="evenodd" clip-rule="evenodd" d="M34.868 42.1793C33.869 42.2793 33.721 42.3593 33.351 42.9793C32.8515 43.7593 32.6295 44.5393 32.833 44.7593C33.055 44.9993 44.9135 44.9193 45.1355 44.6793C45.2835 44.5193 45.2465 44.1593 44.9875 43.3793L44.6545 42.2993L43.082 42.1593C41.2135 42.0193 36.4035 42.0193 34.868 42.1793ZM44.3585 42.6393C44.451 42.7793 44.6175 43.2193 44.7285 43.6393C44.895 44.2993 44.8765 44.3793 44.5065 44.4793C43.859 44.6593 33.5915 44.5993 33.314 44.4193C33.092 44.2793 33.1475 44.0793 33.5545 43.3193L34.054 42.3993H39.1045C42.934 42.3993 44.2105 42.4593 44.3585 42.6393Z" fill="#FCFFE8"/>
<path fill-rule="evenodd" clip-rule="evenodd" d="M8.89384 24.1801C8.22784 24.2801 7.82084 24.4401 7.63584 24.7001C7.37684 25.1001 7.43234 25.1001 10.4848 25.2201C12.1868 25.2801 13.6298 25.3001 13.6668 25.2601C13.7223 25.2201 13.5743 25.0001 13.3708 24.7801C12.7418 24.1001 11.1878 23.8801 8.89384 24.1801Z" fill="#FCFFE8"/>
<path fill-rule="evenodd" clip-rule="evenodd" d="M28.7251 49.9191C28.6696 50.0791 28.7621 50.3791 28.9286 50.5591C29.2061 50.8591 29.2431 50.8591 29.5391 50.5591C29.7796 50.2791 29.7981 50.1591 29.5946 49.9191C29.2986 49.5191 28.8731 49.5191 28.7251 49.9191Z" fill="#FCFFE8"/>
<path fill-rule="evenodd" clip-rule="evenodd" d="M56.4576 50.8404C56.4946 51.1004 56.6426 51.3004 56.7906 51.3004C56.9386 51.3004 57.0866 51.1004 57.1236 50.8404C57.1791 50.5004 57.0866 50.4004 56.7906 50.4004C56.4946 50.4004 56.4021 50.5004 56.4576 50.8404Z" fill="#FCFFE8"/>
<path fill-rule="evenodd" clip-rule="evenodd" d="M18.3466 51.1408C18.3836 51.3408 18.5316 51.5008 18.6796 51.5008C18.8276 51.5008 18.9756 51.3408 19.0126 51.1408C19.0496 50.9008 18.9571 50.8008 18.6796 50.8008C18.4021 50.8008 18.3096 50.9008 18.3466 51.1408Z" fill="#FCFFE8"/>
<path fill-rule="evenodd" clip-rule="evenodd" d="M22.8425 51.0394C20.715 51.8594 20.3635 53.6794 22.047 54.9994C23.8415 56.3994 26.709 56.1994 27.4675 54.5994C27.856 53.7994 27.819 53.1794 27.3195 52.3794C26.5055 51.0394 24.4335 50.4394 22.8425 51.0394ZM26.08 51.5994C26.487 51.8194 26.894 52.1794 27.005 52.3994C27.2455 52.8794 27.301 52.8794 26.117 52.3994C24.9885 51.9394 23.194 51.8794 22.1395 52.2994C21.4365 52.5594 21.4365 52.5594 21.7695 52.1594C22.602 51.1594 24.7665 50.8794 26.08 51.5994ZM26.598 52.9994C27.486 53.5394 27.56 53.9394 26.931 54.7194L26.5055 55.2794L25.71 54.5394C24.8775 53.7794 23.2495 52.9994 22.4725 52.9994C21.936 52.9994 21.8435 52.6794 22.343 52.5194C22.5095 52.4794 23.3605 52.4394 24.23 52.4794C25.488 52.4994 25.9505 52.6194 26.598 52.9994ZM22.787 53.4194C23.971 53.6994 24.711 54.0794 25.377 54.7594C26.006 55.3994 25.895 55.5994 24.9145 55.5994C23.6565 55.5994 22.713 55.2194 21.973 54.3994C20.863 53.1994 21.011 53.0194 22.787 53.4194Z" fill="#FCFFE8"/>
<path fill-rule="evenodd" clip-rule="evenodd" d="M36.0892 51.0387C35.1642 51.3787 34.2207 52.4187 34.2207 53.1387C34.2207 53.7987 34.5167 54.1987 34.9977 54.1987C35.2012 54.1987 35.3307 54.3387 35.3307 54.5787C35.3307 55.0187 35.9782 55.5987 36.4592 55.5987C36.6257 55.5987 36.9587 55.4387 37.1992 55.2387C37.5322 54.9187 37.6987 54.8987 38.1427 55.0787C39.3637 55.5787 40.2887 54.1187 39.6782 52.6987C39.0677 51.3187 37.4397 50.5587 36.0892 51.0387ZM36.7737 51.8387C36.4407 52.1987 35.9412 52.7987 35.6822 53.1787C35.1457 53.9787 34.5907 53.9387 34.5907 53.1187C34.5907 52.3187 35.9597 51.2187 36.9587 51.1987C37.3657 51.1987 37.3657 51.2187 36.7737 51.8387ZM37.6617 52.8387C37.5322 54.1987 37.1067 55.0587 36.4777 55.1587C36.0337 55.2387 35.5157 54.5387 35.6452 54.0187C35.7562 53.5587 37.3287 51.5987 37.5877 51.5987C37.7172 51.5987 37.7542 52.0187 37.6617 52.8387ZM38.8827 52.1387C39.5487 52.8987 39.6967 53.6787 39.3267 54.2987C38.9752 54.8787 38.2167 54.9787 37.9577 54.4587C37.8467 54.2587 37.8467 53.8787 37.9392 53.5187C38.0317 53.1787 38.1057 52.5987 38.1057 52.2587C38.1057 51.4587 38.2537 51.4387 38.8827 52.1387Z" fill="#FCFFE8"/>
<path fill-rule="evenodd" clip-rule="evenodd" d="M42.2494 51.1001C42.1754 51.2801 42.2124 51.5201 42.3234 51.6401C42.6009 51.9401 43.1374 51.66 43.0634 51.26C42.9894 50.8 42.3974 50.6801 42.2494 51.1001Z" fill="#FCFFE8"/>
<path fill-rule="evenodd" clip-rule="evenodd" d="M50.0001 51.3205C49.9446 51.4805 49.9816 51.7205 50.0926 51.8405C50.3886 52.1605 50.8696 51.8805 50.8696 51.4005C50.8696 50.9205 50.1666 50.8405 50.0001 51.3205Z" fill="#FCFFE8"/>
<path fill-rule="evenodd" clip-rule="evenodd" d="M15.7207 52.5992C15.7207 52.8592 15.8502 52.9992 16.0907 52.9992C16.3312 52.9992 16.4607 52.8592 16.4607 52.5992C16.4607 52.3392 16.3312 52.1992 16.0907 52.1992C15.8502 52.1992 15.7207 52.3392 15.7207 52.5992Z" fill="#FCFFE8"/>
<path fill-rule="evenodd" clip-rule="evenodd" d="M61.9152 52.3188C61.7487 52.5188 61.9891 52.9988 62.2666 52.9988C62.4146 52.9988 62.5256 52.8188 62.5256 52.5988C62.5256 52.2188 62.1742 52.0588 61.9152 52.3188Z" fill="#FCFFE8"/>
<path fill-rule="evenodd" clip-rule="evenodd" d="M45.2094 54.2993C45.1354 54.4793 45.1724 54.7193 45.2834 54.8393C45.5609 55.1393 46.0974 54.8593 46.0234 54.4593C45.9494 53.9993 45.3574 53.8793 45.2094 54.2993Z" fill="#FCFFE8"/>
<path fill-rule="evenodd" clip-rule="evenodd" d="M12.6672 54.3792C12.5192 54.6792 12.7227 54.9992 13.0557 54.9992C13.2222 54.9992 13.3147 54.8592 13.2777 54.6592C13.2037 54.2592 12.8337 54.0992 12.6672 54.3792Z" fill="#FCFFE8"/>
<path fill-rule="evenodd" clip-rule="evenodd" d="M53.3493 54.4192C53.2938 54.5392 53.3678 54.7792 53.5343 54.9592C53.8118 55.2592 53.8488 55.2592 54.1263 54.9592C54.4778 54.5792 54.3298 54.1992 53.8303 54.1992C53.6453 54.1992 53.4233 54.2992 53.3493 54.4192Z" fill="#FCFFE8"/>
<path fill-rule="evenodd" clip-rule="evenodd" d="M3.04733 55.4002C2.97333 55.5402 2.99183 55.7202 3.10283 55.8402C3.36183 56.1202 3.93533 55.8802 3.84283 55.5402C3.73183 55.2202 3.21383 55.1202 3.04733 55.4002Z" fill="#FCFFE8"/>
<path fill-rule="evenodd" clip-rule="evenodd" d="M18.236 55.7799C18.1805 55.8799 18.236 56.0599 18.384 56.1799C18.569 56.3399 18.68 56.3399 18.8465 56.1399C18.9575 55.9799 18.9945 55.7999 18.9205 55.7399C18.754 55.5399 18.347 55.5599 18.236 55.7799Z" fill="#FCFFE8"/>
<path fill-rule="evenodd" clip-rule="evenodd" d="M60.416 56.9608C60.2495 57.2408 60.638 57.6608 60.934 57.5408C61.3595 57.3608 61.304 56.8008 60.8785 56.8008C60.675 56.8008 60.4715 56.8808 60.416 56.9608Z" fill="#FCFFE8"/>
<path fill-rule="evenodd" clip-rule="evenodd" d="M39.5293 57.7395C39.3073 57.9795 39.3998 58.5595 39.6588 58.6595C40.0103 58.7995 40.3988 58.2995 40.2508 57.8995C40.1398 57.5995 39.7328 57.4995 39.5293 57.7395Z" fill="#FCFFE8"/>
<path fill-rule="evenodd" clip-rule="evenodd" d="M31.5931 58.0408C31.4451 58.4608 31.6301 58.8008 32.0001 58.8008C32.3516 58.8008 32.5551 58.4608 32.4256 58.0408C32.3701 57.9208 32.1851 57.8008 32.0001 57.8008C31.8151 57.8008 31.6301 57.9208 31.5931 58.0408Z" fill="#FCFFE8"/>
<path fill-rule="evenodd" clip-rule="evenodd" d="M52.4606 58.9791C52.4051 59.0791 52.4606 59.2591 52.6086 59.3791C52.7936 59.5391 52.9046 59.5391 53.0711 59.3391C53.1821 59.1791 53.2191 58.9991 53.1451 58.9391C52.9786 58.7391 52.5716 58.7591 52.4606 58.9791Z" fill="#FCFFE8"/>
<path fill-rule="evenodd" clip-rule="evenodd" d="M18.902 59.44C18.939 59.74 19.087 59.9 19.3275 59.9C19.568 59.9 19.716 59.74 19.753 59.44C19.8085 59.08 19.7345 59 19.3275 59C18.9205 59 18.8465 59.08 18.902 59.44Z" fill="#FCFFE8"/>
<path fill-rule="evenodd" clip-rule="evenodd" d="M10.7256 60.42C10.7256 60.92 11.3361 60.86 11.4286 60.34C11.4656 60.1 11.3731 60 11.1141 60C10.8366 60 10.7256 60.12 10.7256 60.42Z" fill="#FCFFE8"/>
<path fill-rule="evenodd" clip-rule="evenodd" d="M63.1351 60.5192C62.9871 60.9392 63.3756 61.3592 63.6531 61.0592C63.8936 60.7992 63.7456 60.1992 63.4496 60.1992C63.3386 60.1992 63.2091 60.3392 63.1351 60.5192Z" fill="#FCFFE8"/>
<path fill-rule="evenodd" clip-rule="evenodd" d="M26.5054 60.7396C26.1169 60.8996 26.2279 61.5996 26.6164 61.5996C26.8199 61.5996 27.0419 61.4996 27.1159 61.3796C27.2639 61.0996 26.8014 60.6196 26.5054 60.7396Z" fill="#FCFFE8"/>
<path fill-rule="evenodd" clip-rule="evenodd" d="M36.4401 60.7993C36.1071 61.0193 36.3661 61.6393 36.7546 61.5593C36.9396 61.5193 37.1061 61.3593 37.1431 61.1793C37.2171 60.7993 36.7916 60.5593 36.4401 60.7993Z" fill="#FCFFE8"/>
</svg>
