<svg width="25" height="24" viewBox="0 0 25 24" fill="none" xmlns="http://www.w3.org/2000/svg">
<path d="M22.4734 19.6874C21.188 17.4315 19.1809 15.6737 16.7752 14.6971C17.9716 13.7998 18.8553 12.5489 19.3011 11.1215C19.747 9.69412 19.7325 8.16262 19.2596 6.74395C18.7867 5.32527 17.8794 4.09135 16.6663 3.21697C15.4531 2.34259 13.9956 1.87207 12.5002 1.87207C11.0048 1.87207 9.54731 2.34259 8.33416 3.21697C7.12102 4.09135 6.21375 5.32527 5.74086 6.74395C5.26797 8.16262 5.25343 9.69412 5.69932 11.1215C6.1452 12.5489 7.02889 13.7998 8.22522 14.6971C5.81953 15.6737 3.81245 17.4315 2.5271 19.6874C2.44745 19.8154 2.39437 19.9582 2.37101 20.1072C2.34764 20.2562 2.35447 20.4084 2.39109 20.5547C2.42771 20.701 2.49337 20.8384 2.58416 20.9588C2.67496 21.0792 2.78904 21.1802 2.91963 21.2556C3.05021 21.3311 3.19463 21.3795 3.3443 21.398C3.49397 21.4165 3.64584 21.4047 3.79087 21.3634C3.9359 21.322 4.07114 21.252 4.18854 21.1573C4.30595 21.0626 4.40312 20.9453 4.47429 20.8124C6.17304 17.8761 9.17304 16.1249 12.5002 16.1249C15.8274 16.1249 18.8274 17.8771 20.5262 20.8124C20.6804 21.0604 20.925 21.2387 21.2083 21.3096C21.4916 21.3805 21.7914 21.3385 22.0443 21.1924C22.2972 21.0463 22.4833 20.8076 22.5634 20.5267C22.6434 20.2458 22.6112 19.9449 22.4734 19.6874ZM7.62523 8.99988C7.62523 8.0357 7.91114 7.09317 8.44681 6.29148C8.98248 5.48979 9.74385 4.86495 10.6346 4.49597C11.5254 4.12699 12.5056 4.03045 13.4513 4.21855C14.3969 4.40666 15.2656 4.87096 15.9474 5.55274C16.6292 6.23452 17.0935 7.10316 17.2816 8.04882C17.4697 8.99447 17.3731 9.97467 17.0041 10.8655C16.6352 11.7563 16.0103 12.5176 15.2086 13.0533C14.4069 13.589 13.4644 13.8749 12.5002 13.8749C11.2078 13.8734 9.96864 13.3593 9.05472 12.4454C8.14081 11.5315 7.62671 10.2924 7.62523 8.99988Z" fill="#003342"/>
</svg>
