<svg width="270" height="36" viewBox="0 0 270 36" fill="none" xmlns="http://www.w3.org/2000/svg">
<g clip-path="url(#clip0_336_5917)">
<path d="M93.3302 9.81972C93.3302 7.11976 92.212 4.74706 90.3197 2.94709C88.5134 1.22893 85.9329 0.0834961 83.1805 0.0834961H59.3546V36.0011H66.0637V19.4741H72.7728C75.1812 19.4741 77.3315 20.7013 78.4497 22.5831L78.6217 22.9104L82.2343 29.6194L85.6749 36.0011H93.2441L89.8036 29.6194L84.3847 19.3923C85.4169 19.3105 86.363 19.065 87.3092 18.6559C90.9218 17.1014 93.3302 13.7469 93.3302 9.81972ZM84.5567 12.7651C84.1267 13.0106 83.6106 13.0924 83.1805 13.0924L66.0637 13.1742V6.54705H83.1805C84.3847 6.54705 85.1588 7.03793 85.5889 7.44701C85.9329 7.77428 86.6211 8.59247 86.6211 9.81972C86.6211 11.1288 85.8469 12.2742 84.5567 12.7651Z" fill="#003342"/>
<path d="M196.453 0.0834961H187.938L177.616 12.9287L167.208 0.0834961H158.693L173.315 18.165L158.779 36.0011H167.294L177.616 23.4013L187.938 36.0011H196.367H196.453L181.917 18.165L196.539 0.0834961H196.453Z" fill="#003342"/>
<path d="M217.953 0.0839844H211.244V36.0016H217.953V0.0839844Z" fill="#003342"/>
<path d="M269.918 9.98164V9.7362C269.918 4.4181 265.359 0 259.682 0H244.372C238.781 0 234.222 4.33629 234.222 9.7362V9.98164C234.222 12.0271 234.91 13.9089 236.029 15.4634C236.373 16.0361 236.803 16.527 237.319 17.0179C239.125 18.736 241.619 19.7178 244.372 19.7178H257.962C260.801 19.7178 263.209 21.9269 263.209 24.6268C263.209 27.3268 260.801 29.5359 257.962 29.5359H246.178C243.34 29.5359 241.017 27.3268 241.017 24.6268H234.308C234.308 30.9267 239.641 35.9994 246.264 35.9994H258.048C264.671 35.9994 270.004 30.9267 270.004 24.6268C270.004 21.9269 268.972 19.3906 267.338 17.427C267.166 17.2633 267.08 17.0997 266.908 16.9361C264.757 14.6452 261.661 13.2543 258.134 13.2543H244.544C242.652 13.2543 241.103 11.7816 241.103 9.98164V9.7362C241.103 7.93623 242.652 6.46353 244.544 6.46353H259.855C261.747 6.46353 263.295 7.93623 263.295 9.7362V9.98164H269.918Z" fill="#003342"/>
<path d="M6.79513 17.9997C6.79513 24.3814 12.214 29.5359 18.9231 29.5359H31.0511V22.6632H18.9231V16.2815H37.8462V35.9994H18.9231C8.5154 35.9994 0 27.9814 0 17.9997C0 8.01805 8.42939 0 18.9231 0H37.8462V6.3817H18.9231C12.214 6.46352 6.79513 11.618 6.79513 17.9997Z" fill="#003342"/>
<path d="M124.475 5.81067L135.657 0.0834961L113.895 36.0011H106.154L124.475 5.81067Z" fill="#C0D32C"/>
<path d="M131.857 14.0762L127.728 20.867L135.727 36.0031H143.641L131.857 14.0762Z" fill="#003342"/>
</g>
<defs>
<clipPath id="clip0_336_5917">
<rect width="270" height="36" fill="white"/>
</clipPath>
</defs>
</svg>
